<?xml version="1.0" encoding="utf-8" standalone="no"?>
<!DOCTYPE svg PUBLIC "-//W3C//DTD SVG 1.1//EN"
  "http://www.w3.org/Graphics/SVG/1.1/DTD/svg11.dtd">
<!-- Created with matplotlib (http://matplotlib.org/) -->
<svg height="701.08375pt" version="1.1" viewBox="0 0 1217.911875 701.08375" width="1217.911875pt" xmlns="http://www.w3.org/2000/svg" xmlns:xlink="http://www.w3.org/1999/xlink">
 <defs>
  <style type="text/css">
*{stroke-linecap:butt;stroke-linejoin:round;}
  </style>
 </defs>
 <g id="figure_1">
  <g id="patch_1">
   <path d="M 0 701.08375 
L 1217.911875 701.08375 
L 1217.911875 0 
L 0 0 
z
" style="fill:#ffffff;"/>
  </g>
  <g id="axes_1">
   <g id="patch_2">
    <path d="M 84.711875 622.8 
L 1200.711875 622.8 
L 1200.711875 79.2 
L 84.711875 79.2 
z
" style="fill:#d3d3d3;"/>
   </g>
   <g id="matplotlib.axis_1">
    <g id="xtick_1">
     <g id="line2d_1">
      <defs>
       <path d="M 0 0 
L 0 10 
" id="mfdee3b39da" style="stroke:#000000;stroke-width:4;"/>
      </defs>
      <g>
       <use style="stroke:#000000;stroke-width:4;" x="84.711875" xlink:href="#mfdee3b39da" y="622.8"/>
      </g>
     </g>
     <g id="text_1">
      <!-- 0 -->
      <defs>
       <path d="M 31.78125 66.40625 
Q 24.171875 66.40625 20.328125 58.90625 
Q 16.5 51.421875 16.5 36.375 
Q 16.5 21.390625 20.328125 13.890625 
Q 24.171875 6.390625 31.78125 6.390625 
Q 39.453125 6.390625 43.28125 13.890625 
Q 47.125 21.390625 47.125 36.375 
Q 47.125 51.421875 43.28125 58.90625 
Q 39.453125 66.40625 31.78125 66.40625 
z
M 31.78125 74.21875 
Q 44.046875 74.21875 50.515625 64.515625 
Q 56.984375 54.828125 56.984375 36.375 
Q 56.984375 17.96875 50.515625 8.265625 
Q 44.046875 -1.421875 31.78125 -1.421875 
Q 19.53125 -1.421875 13.0625 8.265625 
Q 6.59375 17.96875 6.59375 36.375 
Q 6.59375 54.828125 13.0625 64.515625 
Q 19.53125 74.21875 31.78125 74.21875 
z
" id="DejaVuSans-30"/>
      </defs>
      <g transform="translate(77.713125 653.016562)scale(0.22 -0.22)">
       <use xlink:href="#DejaVuSans-30"/>
      </g>
     </g>
    </g>
    <g id="xtick_2">
     <g id="line2d_2">
      <g>
       <use style="stroke:#000000;stroke-width:4;" x="156.867047" xlink:href="#mfdee3b39da" y="622.8"/>
      </g>
     </g>
     <g id="text_2">
      <!-- 15 -->
      <defs>
       <path d="M 12.40625 8.296875 
L 28.515625 8.296875 
L 28.515625 63.921875 
L 10.984375 60.40625 
L 10.984375 69.390625 
L 28.421875 72.90625 
L 38.28125 72.90625 
L 38.28125 8.296875 
L 54.390625 8.296875 
L 54.390625 0 
L 12.40625 0 
z
" id="DejaVuSans-31"/>
       <path d="M 10.796875 72.90625 
L 49.515625 72.90625 
L 49.515625 64.59375 
L 19.828125 64.59375 
L 19.828125 46.734375 
Q 21.96875 47.46875 24.109375 47.828125 
Q 26.265625 48.1875 28.421875 48.1875 
Q 40.625 48.1875 47.75 41.5 
Q 54.890625 34.8125 54.890625 23.390625 
Q 54.890625 11.625 47.5625 5.09375 
Q 40.234375 -1.421875 26.90625 -1.421875 
Q 22.3125 -1.421875 17.546875 -0.640625 
Q 12.796875 0.140625 7.71875 1.703125 
L 7.71875 11.625 
Q 12.109375 9.234375 16.796875 8.0625 
Q 21.484375 6.890625 26.703125 6.890625 
Q 35.15625 6.890625 40.078125 11.328125 
Q 45.015625 15.765625 45.015625 23.390625 
Q 45.015625 31 40.078125 35.4375 
Q 35.15625 39.890625 26.703125 39.890625 
Q 22.75 39.890625 18.8125 39.015625 
Q 14.890625 38.140625 10.796875 36.28125 
z
" id="DejaVuSans-35"/>
      </defs>
      <g transform="translate(142.869547 653.016562)scale(0.22 -0.22)">
       <use xlink:href="#DejaVuSans-31"/>
       <use x="63.623047" xlink:href="#DejaVuSans-35"/>
      </g>
     </g>
    </g>
    <g id="xtick_3">
     <g id="line2d_3">
      <g>
       <use style="stroke:#000000;stroke-width:4;" x="229.02222" xlink:href="#mfdee3b39da" y="622.8"/>
      </g>
     </g>
     <g id="text_3">
      <!-- 30 -->
      <defs>
       <path d="M 40.578125 39.3125 
Q 47.65625 37.796875 51.625 33 
Q 55.609375 28.21875 55.609375 21.1875 
Q 55.609375 10.40625 48.1875 4.484375 
Q 40.765625 -1.421875 27.09375 -1.421875 
Q 22.515625 -1.421875 17.65625 -0.515625 
Q 12.796875 0.390625 7.625 2.203125 
L 7.625 11.71875 
Q 11.71875 9.328125 16.59375 8.109375 
Q 21.484375 6.890625 26.8125 6.890625 
Q 36.078125 6.890625 40.9375 10.546875 
Q 45.796875 14.203125 45.796875 21.1875 
Q 45.796875 27.640625 41.28125 31.265625 
Q 36.765625 34.90625 28.71875 34.90625 
L 20.21875 34.90625 
L 20.21875 43.015625 
L 29.109375 43.015625 
Q 36.375 43.015625 40.234375 45.921875 
Q 44.09375 48.828125 44.09375 54.296875 
Q 44.09375 59.90625 40.109375 62.90625 
Q 36.140625 65.921875 28.71875 65.921875 
Q 24.65625 65.921875 20.015625 65.03125 
Q 15.375 64.15625 9.8125 62.3125 
L 9.8125 71.09375 
Q 15.4375 72.65625 20.34375 73.4375 
Q 25.25 74.21875 29.59375 74.21875 
Q 40.828125 74.21875 47.359375 69.109375 
Q 53.90625 64.015625 53.90625 55.328125 
Q 53.90625 49.265625 50.4375 45.09375 
Q 46.96875 40.921875 40.578125 39.3125 
z
" id="DejaVuSans-33"/>
      </defs>
      <g transform="translate(215.02472 653.016562)scale(0.22 -0.22)">
       <use xlink:href="#DejaVuSans-33"/>
       <use x="63.623047" xlink:href="#DejaVuSans-30"/>
      </g>
     </g>
    </g>
    <g id="xtick_4">
     <g id="line2d_4">
      <g>
       <use style="stroke:#000000;stroke-width:4;" x="301.177392" xlink:href="#mfdee3b39da" y="622.8"/>
      </g>
     </g>
     <g id="text_4">
      <!-- 45 -->
      <defs>
       <path d="M 37.796875 64.3125 
L 12.890625 25.390625 
L 37.796875 25.390625 
z
M 35.203125 72.90625 
L 47.609375 72.90625 
L 47.609375 25.390625 
L 58.015625 25.390625 
L 58.015625 17.1875 
L 47.609375 17.1875 
L 47.609375 0 
L 37.796875 0 
L 37.796875 17.1875 
L 4.890625 17.1875 
L 4.890625 26.703125 
z
" id="DejaVuSans-34"/>
      </defs>
      <g transform="translate(287.179892 653.016562)scale(0.22 -0.22)">
       <use xlink:href="#DejaVuSans-34"/>
       <use x="63.623047" xlink:href="#DejaVuSans-35"/>
      </g>
     </g>
    </g>
    <g id="xtick_5">
     <g id="line2d_5">
      <g>
       <use style="stroke:#000000;stroke-width:4;" x="373.332565" xlink:href="#mfdee3b39da" y="622.8"/>
      </g>
     </g>
     <g id="text_5">
      <!-- 60 -->
      <defs>
       <path d="M 33.015625 40.375 
Q 26.375 40.375 22.484375 35.828125 
Q 18.609375 31.296875 18.609375 23.390625 
Q 18.609375 15.53125 22.484375 10.953125 
Q 26.375 6.390625 33.015625 6.390625 
Q 39.65625 6.390625 43.53125 10.953125 
Q 47.40625 15.53125 47.40625 23.390625 
Q 47.40625 31.296875 43.53125 35.828125 
Q 39.65625 40.375 33.015625 40.375 
z
M 52.59375 71.296875 
L 52.59375 62.3125 
Q 48.875 64.0625 45.09375 64.984375 
Q 41.3125 65.921875 37.59375 65.921875 
Q 27.828125 65.921875 22.671875 59.328125 
Q 17.53125 52.734375 16.796875 39.40625 
Q 19.671875 43.65625 24.015625 45.921875 
Q 28.375 48.1875 33.59375 48.1875 
Q 44.578125 48.1875 50.953125 41.515625 
Q 57.328125 34.859375 57.328125 23.390625 
Q 57.328125 12.15625 50.6875 5.359375 
Q 44.046875 -1.421875 33.015625 -1.421875 
Q 20.359375 -1.421875 13.671875 8.265625 
Q 6.984375 17.96875 6.984375 36.375 
Q 6.984375 53.65625 15.1875 63.9375 
Q 23.390625 74.21875 37.203125 74.21875 
Q 40.921875 74.21875 44.703125 73.484375 
Q 48.484375 72.75 52.59375 71.296875 
z
" id="DejaVuSans-36"/>
      </defs>
      <g transform="translate(359.335065 653.016562)scale(0.22 -0.22)">
       <use xlink:href="#DejaVuSans-36"/>
       <use x="63.623047" xlink:href="#DejaVuSans-30"/>
      </g>
     </g>
    </g>
    <g id="xtick_6">
     <g id="line2d_6">
      <g>
       <use style="stroke:#000000;stroke-width:4;" x="445.487737" xlink:href="#mfdee3b39da" y="622.8"/>
      </g>
     </g>
     <g id="text_6">
      <!-- 75 -->
      <defs>
       <path d="M 8.203125 72.90625 
L 55.078125 72.90625 
L 55.078125 68.703125 
L 28.609375 0 
L 18.3125 0 
L 43.21875 64.59375 
L 8.203125 64.59375 
z
" id="DejaVuSans-37"/>
      </defs>
      <g transform="translate(431.490237 653.016562)scale(0.22 -0.22)">
       <use xlink:href="#DejaVuSans-37"/>
       <use x="63.623047" xlink:href="#DejaVuSans-35"/>
      </g>
     </g>
    </g>
    <g id="xtick_7">
     <g id="line2d_7">
      <g>
       <use style="stroke:#000000;stroke-width:4;" x="517.642909" xlink:href="#mfdee3b39da" y="622.8"/>
      </g>
     </g>
     <g id="text_7">
      <!-- 90 -->
      <defs>
       <path d="M 10.984375 1.515625 
L 10.984375 10.5 
Q 14.703125 8.734375 18.5 7.8125 
Q 22.3125 6.890625 25.984375 6.890625 
Q 35.75 6.890625 40.890625 13.453125 
Q 46.046875 20.015625 46.78125 33.40625 
Q 43.953125 29.203125 39.59375 26.953125 
Q 35.25 24.703125 29.984375 24.703125 
Q 19.046875 24.703125 12.671875 31.3125 
Q 6.296875 37.9375 6.296875 49.421875 
Q 6.296875 60.640625 12.9375 67.421875 
Q 19.578125 74.21875 30.609375 74.21875 
Q 43.265625 74.21875 49.921875 64.515625 
Q 56.59375 54.828125 56.59375 36.375 
Q 56.59375 19.140625 48.40625 8.859375 
Q 40.234375 -1.421875 26.421875 -1.421875 
Q 22.703125 -1.421875 18.890625 -0.6875 
Q 15.09375 0.046875 10.984375 1.515625 
z
M 30.609375 32.421875 
Q 37.25 32.421875 41.125 36.953125 
Q 45.015625 41.5 45.015625 49.421875 
Q 45.015625 57.28125 41.125 61.84375 
Q 37.25 66.40625 30.609375 66.40625 
Q 23.96875 66.40625 20.09375 61.84375 
Q 16.21875 57.28125 16.21875 49.421875 
Q 16.21875 41.5 20.09375 36.953125 
Q 23.96875 32.421875 30.609375 32.421875 
z
" id="DejaVuSans-39"/>
      </defs>
      <g transform="translate(503.645409 653.016562)scale(0.22 -0.22)">
       <use xlink:href="#DejaVuSans-39"/>
       <use x="63.623047" xlink:href="#DejaVuSans-30"/>
      </g>
     </g>
    </g>
    <g id="xtick_8">
     <g id="line2d_8">
      <g>
       <use style="stroke:#000000;stroke-width:4;" x="589.798082" xlink:href="#mfdee3b39da" y="622.8"/>
      </g>
     </g>
     <g id="text_8">
      <!-- 105 -->
      <g transform="translate(568.801832 653.016562)scale(0.22 -0.22)">
       <use xlink:href="#DejaVuSans-31"/>
       <use x="63.623047" xlink:href="#DejaVuSans-30"/>
       <use x="127.246094" xlink:href="#DejaVuSans-35"/>
      </g>
     </g>
    </g>
    <g id="xtick_9">
     <g id="line2d_9">
      <g>
       <use style="stroke:#000000;stroke-width:4;" x="661.953254" xlink:href="#mfdee3b39da" y="622.8"/>
      </g>
     </g>
     <g id="text_9">
      <!-- 120 -->
      <defs>
       <path d="M 19.1875 8.296875 
L 53.609375 8.296875 
L 53.609375 0 
L 7.328125 0 
L 7.328125 8.296875 
Q 12.9375 14.109375 22.625 23.890625 
Q 32.328125 33.6875 34.8125 36.53125 
Q 39.546875 41.84375 41.421875 45.53125 
Q 43.3125 49.21875 43.3125 52.78125 
Q 43.3125 58.59375 39.234375 62.25 
Q 35.15625 65.921875 28.609375 65.921875 
Q 23.96875 65.921875 18.8125 64.3125 
Q 13.671875 62.703125 7.8125 59.421875 
L 7.8125 69.390625 
Q 13.765625 71.78125 18.9375 73 
Q 24.125 74.21875 28.421875 74.21875 
Q 39.75 74.21875 46.484375 68.546875 
Q 53.21875 62.890625 53.21875 53.421875 
Q 53.21875 48.921875 51.53125 44.890625 
Q 49.859375 40.875 45.40625 35.40625 
Q 44.1875 33.984375 37.640625 27.21875 
Q 31.109375 20.453125 19.1875 8.296875 
z
" id="DejaVuSans-32"/>
      </defs>
      <g transform="translate(640.957004 653.016562)scale(0.22 -0.22)">
       <use xlink:href="#DejaVuSans-31"/>
       <use x="63.623047" xlink:href="#DejaVuSans-32"/>
       <use x="127.246094" xlink:href="#DejaVuSans-30"/>
      </g>
     </g>
    </g>
    <g id="xtick_10">
     <g id="line2d_10">
      <g>
       <use style="stroke:#000000;stroke-width:4;" x="734.108427" xlink:href="#mfdee3b39da" y="622.8"/>
      </g>
     </g>
     <g id="text_10">
      <!-- 135 -->
      <g transform="translate(713.112177 653.016562)scale(0.22 -0.22)">
       <use xlink:href="#DejaVuSans-31"/>
       <use x="63.623047" xlink:href="#DejaVuSans-33"/>
       <use x="127.246094" xlink:href="#DejaVuSans-35"/>
      </g>
     </g>
    </g>
    <g id="xtick_11">
     <g id="line2d_11">
      <g>
       <use style="stroke:#000000;stroke-width:4;" x="806.263599" xlink:href="#mfdee3b39da" y="622.8"/>
      </g>
     </g>
     <g id="text_11">
      <!-- 150 -->
      <g transform="translate(785.267349 653.016562)scale(0.22 -0.22)">
       <use xlink:href="#DejaVuSans-31"/>
       <use x="63.623047" xlink:href="#DejaVuSans-35"/>
       <use x="127.246094" xlink:href="#DejaVuSans-30"/>
      </g>
     </g>
    </g>
    <g id="xtick_12">
     <g id="line2d_12">
      <g>
       <use style="stroke:#000000;stroke-width:4;" x="878.418772" xlink:href="#mfdee3b39da" y="622.8"/>
      </g>
     </g>
     <g id="text_12">
      <!-- 165 -->
      <g transform="translate(857.422522 653.016562)scale(0.22 -0.22)">
       <use xlink:href="#DejaVuSans-31"/>
       <use x="63.623047" xlink:href="#DejaVuSans-36"/>
       <use x="127.246094" xlink:href="#DejaVuSans-35"/>
      </g>
     </g>
    </g>
    <g id="xtick_13">
     <g id="line2d_13">
      <g>
       <use style="stroke:#000000;stroke-width:4;" x="950.573944" xlink:href="#mfdee3b39da" y="622.8"/>
      </g>
     </g>
     <g id="text_13">
      <!-- 180 -->
      <defs>
       <path d="M 31.78125 34.625 
Q 24.75 34.625 20.71875 30.859375 
Q 16.703125 27.09375 16.703125 20.515625 
Q 16.703125 13.921875 20.71875 10.15625 
Q 24.75 6.390625 31.78125 6.390625 
Q 38.8125 6.390625 42.859375 10.171875 
Q 46.921875 13.96875 46.921875 20.515625 
Q 46.921875 27.09375 42.890625 30.859375 
Q 38.875 34.625 31.78125 34.625 
z
M 21.921875 38.8125 
Q 15.578125 40.375 12.03125 44.71875 
Q 8.5 49.078125 8.5 55.328125 
Q 8.5 64.0625 14.71875 69.140625 
Q 20.953125 74.21875 31.78125 74.21875 
Q 42.671875 74.21875 48.875 69.140625 
Q 55.078125 64.0625 55.078125 55.328125 
Q 55.078125 49.078125 51.53125 44.71875 
Q 48 40.375 41.703125 38.8125 
Q 48.828125 37.15625 52.796875 32.3125 
Q 56.78125 27.484375 56.78125 20.515625 
Q 56.78125 9.90625 50.3125 4.234375 
Q 43.84375 -1.421875 31.78125 -1.421875 
Q 19.734375 -1.421875 13.25 4.234375 
Q 6.78125 9.90625 6.78125 20.515625 
Q 6.78125 27.484375 10.78125 32.3125 
Q 14.796875 37.15625 21.921875 38.8125 
z
M 18.3125 54.390625 
Q 18.3125 48.734375 21.84375 45.5625 
Q 25.390625 42.390625 31.78125 42.390625 
Q 38.140625 42.390625 41.71875 45.5625 
Q 45.3125 48.734375 45.3125 54.390625 
Q 45.3125 60.0625 41.71875 63.234375 
Q 38.140625 66.40625 31.78125 66.40625 
Q 25.390625 66.40625 21.84375 63.234375 
Q 18.3125 60.0625 18.3125 54.390625 
z
" id="DejaVuSans-38"/>
      </defs>
      <g transform="translate(929.577694 653.016562)scale(0.22 -0.22)">
       <use xlink:href="#DejaVuSans-31"/>
       <use x="63.623047" xlink:href="#DejaVuSans-38"/>
       <use x="127.246094" xlink:href="#DejaVuSans-30"/>
      </g>
     </g>
    </g>
    <g id="xtick_14">
     <g id="line2d_14">
      <g>
       <use style="stroke:#000000;stroke-width:4;" x="1022.729116" xlink:href="#mfdee3b39da" y="622.8"/>
      </g>
     </g>
     <g id="text_14">
      <!-- 195 -->
      <g transform="translate(1001.732866 653.016562)scale(0.22 -0.22)">
       <use xlink:href="#DejaVuSans-31"/>
       <use x="63.623047" xlink:href="#DejaVuSans-39"/>
       <use x="127.246094" xlink:href="#DejaVuSans-35"/>
      </g>
     </g>
    </g>
    <g id="xtick_15">
     <g id="line2d_15">
      <g>
       <use style="stroke:#000000;stroke-width:4;" x="1094.884289" xlink:href="#mfdee3b39da" y="622.8"/>
      </g>
     </g>
     <g id="text_15">
      <!-- 210 -->
      <g transform="translate(1073.888039 653.016562)scale(0.22 -0.22)">
       <use xlink:href="#DejaVuSans-32"/>
       <use x="63.623047" xlink:href="#DejaVuSans-31"/>
       <use x="127.246094" xlink:href="#DejaVuSans-30"/>
      </g>
     </g>
    </g>
    <g id="xtick_16">
     <g id="line2d_16">
      <g>
       <use style="stroke:#000000;stroke-width:4;" x="1167.039461" xlink:href="#mfdee3b39da" y="622.8"/>
      </g>
     </g>
     <g id="text_16">
      <!-- 225 -->
      <g transform="translate(1146.043211 653.016562)scale(0.22 -0.22)">
       <use xlink:href="#DejaVuSans-32"/>
       <use x="63.623047" xlink:href="#DejaVuSans-32"/>
       <use x="127.246094" xlink:href="#DejaVuSans-35"/>
      </g>
     </g>
    </g>
    <g id="text_17">
     <!-- Start of peptide in chain -->
     <defs>
      <path d="M 53.515625 70.515625 
L 53.515625 60.890625 
Q 47.90625 63.578125 42.921875 64.890625 
Q 37.9375 66.21875 33.296875 66.21875 
Q 25.25 66.21875 20.875 63.09375 
Q 16.5 59.96875 16.5 54.203125 
Q 16.5 49.359375 19.40625 46.890625 
Q 22.3125 44.4375 30.421875 42.921875 
L 36.375 41.703125 
Q 47.40625 39.59375 52.65625 34.296875 
Q 57.90625 29 57.90625 20.125 
Q 57.90625 9.515625 50.796875 4.046875 
Q 43.703125 -1.421875 29.984375 -1.421875 
Q 24.8125 -1.421875 18.96875 -0.25 
Q 13.140625 0.921875 6.890625 3.21875 
L 6.890625 13.375 
Q 12.890625 10.015625 18.65625 8.296875 
Q 24.421875 6.59375 29.984375 6.59375 
Q 38.421875 6.59375 43.015625 9.90625 
Q 47.609375 13.234375 47.609375 19.390625 
Q 47.609375 24.75 44.3125 27.78125 
Q 41.015625 30.8125 33.5 32.328125 
L 27.484375 33.5 
Q 16.453125 35.6875 11.515625 40.375 
Q 6.59375 45.0625 6.59375 53.421875 
Q 6.59375 63.09375 13.40625 68.65625 
Q 20.21875 74.21875 32.171875 74.21875 
Q 37.3125 74.21875 42.625 73.28125 
Q 47.953125 72.359375 53.515625 70.515625 
z
" id="DejaVuSans-53"/>
      <path d="M 18.3125 70.21875 
L 18.3125 54.6875 
L 36.8125 54.6875 
L 36.8125 47.703125 
L 18.3125 47.703125 
L 18.3125 18.015625 
Q 18.3125 11.328125 20.140625 9.421875 
Q 21.96875 7.515625 27.59375 7.515625 
L 36.8125 7.515625 
L 36.8125 0 
L 27.59375 0 
Q 17.1875 0 13.234375 3.875 
Q 9.28125 7.765625 9.28125 18.015625 
L 9.28125 47.703125 
L 2.6875 47.703125 
L 2.6875 54.6875 
L 9.28125 54.6875 
L 9.28125 70.21875 
z
" id="DejaVuSans-74"/>
      <path d="M 34.28125 27.484375 
Q 23.390625 27.484375 19.1875 25 
Q 14.984375 22.515625 14.984375 16.5 
Q 14.984375 11.71875 18.140625 8.90625 
Q 21.296875 6.109375 26.703125 6.109375 
Q 34.1875 6.109375 38.703125 11.40625 
Q 43.21875 16.703125 43.21875 25.484375 
L 43.21875 27.484375 
z
M 52.203125 31.203125 
L 52.203125 0 
L 43.21875 0 
L 43.21875 8.296875 
Q 40.140625 3.328125 35.546875 0.953125 
Q 30.953125 -1.421875 24.3125 -1.421875 
Q 15.921875 -1.421875 10.953125 3.296875 
Q 6 8.015625 6 15.921875 
Q 6 25.140625 12.171875 29.828125 
Q 18.359375 34.515625 30.609375 34.515625 
L 43.21875 34.515625 
L 43.21875 35.40625 
Q 43.21875 41.609375 39.140625 45 
Q 35.0625 48.390625 27.6875 48.390625 
Q 23 48.390625 18.546875 47.265625 
Q 14.109375 46.140625 10.015625 43.890625 
L 10.015625 52.203125 
Q 14.9375 54.109375 19.578125 55.046875 
Q 24.21875 56 28.609375 56 
Q 40.484375 56 46.34375 49.84375 
Q 52.203125 43.703125 52.203125 31.203125 
z
" id="DejaVuSans-61"/>
      <path d="M 41.109375 46.296875 
Q 39.59375 47.171875 37.8125 47.578125 
Q 36.03125 48 33.890625 48 
Q 26.265625 48 22.1875 43.046875 
Q 18.109375 38.09375 18.109375 28.8125 
L 18.109375 0 
L 9.078125 0 
L 9.078125 54.6875 
L 18.109375 54.6875 
L 18.109375 46.1875 
Q 20.953125 51.171875 25.484375 53.578125 
Q 30.03125 56 36.53125 56 
Q 37.453125 56 38.578125 55.875 
Q 39.703125 55.765625 41.0625 55.515625 
z
" id="DejaVuSans-72"/>
      <path id="DejaVuSans-20"/>
      <path d="M 30.609375 48.390625 
Q 23.390625 48.390625 19.1875 42.75 
Q 14.984375 37.109375 14.984375 27.296875 
Q 14.984375 17.484375 19.15625 11.84375 
Q 23.34375 6.203125 30.609375 6.203125 
Q 37.796875 6.203125 41.984375 11.859375 
Q 46.1875 17.53125 46.1875 27.296875 
Q 46.1875 37.015625 41.984375 42.703125 
Q 37.796875 48.390625 30.609375 48.390625 
z
M 30.609375 56 
Q 42.328125 56 49.015625 48.375 
Q 55.71875 40.765625 55.71875 27.296875 
Q 55.71875 13.875 49.015625 6.21875 
Q 42.328125 -1.421875 30.609375 -1.421875 
Q 18.84375 -1.421875 12.171875 6.21875 
Q 5.515625 13.875 5.515625 27.296875 
Q 5.515625 40.765625 12.171875 48.375 
Q 18.84375 56 30.609375 56 
z
" id="DejaVuSans-6f"/>
      <path d="M 37.109375 75.984375 
L 37.109375 68.5 
L 28.515625 68.5 
Q 23.6875 68.5 21.796875 66.546875 
Q 19.921875 64.59375 19.921875 59.515625 
L 19.921875 54.6875 
L 34.71875 54.6875 
L 34.71875 47.703125 
L 19.921875 47.703125 
L 19.921875 0 
L 10.890625 0 
L 10.890625 47.703125 
L 2.296875 47.703125 
L 2.296875 54.6875 
L 10.890625 54.6875 
L 10.890625 58.5 
Q 10.890625 67.625 15.140625 71.796875 
Q 19.390625 75.984375 28.609375 75.984375 
z
" id="DejaVuSans-66"/>
      <path d="M 18.109375 8.203125 
L 18.109375 -20.796875 
L 9.078125 -20.796875 
L 9.078125 54.6875 
L 18.109375 54.6875 
L 18.109375 46.390625 
Q 20.953125 51.265625 25.265625 53.625 
Q 29.59375 56 35.59375 56 
Q 45.5625 56 51.78125 48.09375 
Q 58.015625 40.1875 58.015625 27.296875 
Q 58.015625 14.40625 51.78125 6.484375 
Q 45.5625 -1.421875 35.59375 -1.421875 
Q 29.59375 -1.421875 25.265625 0.953125 
Q 20.953125 3.328125 18.109375 8.203125 
z
M 48.6875 27.296875 
Q 48.6875 37.203125 44.609375 42.84375 
Q 40.53125 48.484375 33.40625 48.484375 
Q 26.265625 48.484375 22.1875 42.84375 
Q 18.109375 37.203125 18.109375 27.296875 
Q 18.109375 17.390625 22.1875 11.75 
Q 26.265625 6.109375 33.40625 6.109375 
Q 40.53125 6.109375 44.609375 11.75 
Q 48.6875 17.390625 48.6875 27.296875 
z
" id="DejaVuSans-70"/>
      <path d="M 56.203125 29.59375 
L 56.203125 25.203125 
L 14.890625 25.203125 
Q 15.484375 15.921875 20.484375 11.0625 
Q 25.484375 6.203125 34.421875 6.203125 
Q 39.59375 6.203125 44.453125 7.46875 
Q 49.3125 8.734375 54.109375 11.28125 
L 54.109375 2.78125 
Q 49.265625 0.734375 44.1875 -0.34375 
Q 39.109375 -1.421875 33.890625 -1.421875 
Q 20.796875 -1.421875 13.15625 6.1875 
Q 5.515625 13.8125 5.515625 26.8125 
Q 5.515625 40.234375 12.765625 48.109375 
Q 20.015625 56 32.328125 56 
Q 43.359375 56 49.78125 48.890625 
Q 56.203125 41.796875 56.203125 29.59375 
z
M 47.21875 32.234375 
Q 47.125 39.59375 43.09375 43.984375 
Q 39.0625 48.390625 32.421875 48.390625 
Q 24.90625 48.390625 20.390625 44.140625 
Q 15.875 39.890625 15.1875 32.171875 
z
" id="DejaVuSans-65"/>
      <path d="M 9.421875 54.6875 
L 18.40625 54.6875 
L 18.40625 0 
L 9.421875 0 
z
M 9.421875 75.984375 
L 18.40625 75.984375 
L 18.40625 64.59375 
L 9.421875 64.59375 
z
" id="DejaVuSans-69"/>
      <path d="M 45.40625 46.390625 
L 45.40625 75.984375 
L 54.390625 75.984375 
L 54.390625 0 
L 45.40625 0 
L 45.40625 8.203125 
Q 42.578125 3.328125 38.25 0.953125 
Q 33.9375 -1.421875 27.875 -1.421875 
Q 17.96875 -1.421875 11.734375 6.484375 
Q 5.515625 14.40625 5.515625 27.296875 
Q 5.515625 40.1875 11.734375 48.09375 
Q 17.96875 56 27.875 56 
Q 33.9375 56 38.25 53.625 
Q 42.578125 51.265625 45.40625 46.390625 
z
M 14.796875 27.296875 
Q 14.796875 17.390625 18.875 11.75 
Q 22.953125 6.109375 30.078125 6.109375 
Q 37.203125 6.109375 41.296875 11.75 
Q 45.40625 17.390625 45.40625 27.296875 
Q 45.40625 37.203125 41.296875 42.84375 
Q 37.203125 48.484375 30.078125 48.484375 
Q 22.953125 48.484375 18.875 42.84375 
Q 14.796875 37.203125 14.796875 27.296875 
z
" id="DejaVuSans-64"/>
      <path d="M 54.890625 33.015625 
L 54.890625 0 
L 45.90625 0 
L 45.90625 32.71875 
Q 45.90625 40.484375 42.875 44.328125 
Q 39.84375 48.1875 33.796875 48.1875 
Q 26.515625 48.1875 22.3125 43.546875 
Q 18.109375 38.921875 18.109375 30.90625 
L 18.109375 0 
L 9.078125 0 
L 9.078125 54.6875 
L 18.109375 54.6875 
L 18.109375 46.1875 
Q 21.34375 51.125 25.703125 53.5625 
Q 30.078125 56 35.796875 56 
Q 45.21875 56 50.046875 50.171875 
Q 54.890625 44.34375 54.890625 33.015625 
z
" id="DejaVuSans-6e"/>
      <path d="M 48.78125 52.59375 
L 48.78125 44.1875 
Q 44.96875 46.296875 41.140625 47.34375 
Q 37.3125 48.390625 33.40625 48.390625 
Q 24.65625 48.390625 19.8125 42.84375 
Q 14.984375 37.3125 14.984375 27.296875 
Q 14.984375 17.28125 19.8125 11.734375 
Q 24.65625 6.203125 33.40625 6.203125 
Q 37.3125 6.203125 41.140625 7.25 
Q 44.96875 8.296875 48.78125 10.40625 
L 48.78125 2.09375 
Q 45.015625 0.34375 40.984375 -0.53125 
Q 36.96875 -1.421875 32.421875 -1.421875 
Q 20.0625 -1.421875 12.78125 6.34375 
Q 5.515625 14.109375 5.515625 27.296875 
Q 5.515625 40.671875 12.859375 48.328125 
Q 20.21875 56 33.015625 56 
Q 37.15625 56 41.109375 55.140625 
Q 45.0625 54.296875 48.78125 52.59375 
z
" id="DejaVuSans-63"/>
      <path d="M 54.890625 33.015625 
L 54.890625 0 
L 45.90625 0 
L 45.90625 32.71875 
Q 45.90625 40.484375 42.875 44.328125 
Q 39.84375 48.1875 33.796875 48.1875 
Q 26.515625 48.1875 22.3125 43.546875 
Q 18.109375 38.921875 18.109375 30.90625 
L 18.109375 0 
L 9.078125 0 
L 9.078125 75.984375 
L 18.109375 75.984375 
L 18.109375 46.1875 
Q 21.34375 51.125 25.703125 53.5625 
Q 30.078125 56 35.796875 56 
Q 45.21875 56 50.046875 50.171875 
Q 54.890625 44.34375 54.890625 33.015625 
z
" id="DejaVuSans-68"/>
     </defs>
     <g transform="translate(509.584375 689.308437)scale(0.22 -0.22)">
      <use xlink:href="#DejaVuSans-53"/>
      <use x="63.476562" xlink:href="#DejaVuSans-74"/>
      <use x="102.685547" xlink:href="#DejaVuSans-61"/>
      <use x="163.964844" xlink:href="#DejaVuSans-72"/>
      <use x="205.078125" xlink:href="#DejaVuSans-74"/>
      <use x="244.287109" xlink:href="#DejaVuSans-20"/>
      <use x="276.074219" xlink:href="#DejaVuSans-6f"/>
      <use x="337.255859" xlink:href="#DejaVuSans-66"/>
      <use x="372.460938" xlink:href="#DejaVuSans-20"/>
      <use x="404.248047" xlink:href="#DejaVuSans-70"/>
      <use x="467.724609" xlink:href="#DejaVuSans-65"/>
      <use x="529.248047" xlink:href="#DejaVuSans-70"/>
      <use x="592.724609" xlink:href="#DejaVuSans-74"/>
      <use x="631.933594" xlink:href="#DejaVuSans-69"/>
      <use x="659.716797" xlink:href="#DejaVuSans-64"/>
      <use x="723.193359" xlink:href="#DejaVuSans-65"/>
      <use x="784.716797" xlink:href="#DejaVuSans-20"/>
      <use x="816.503906" xlink:href="#DejaVuSans-69"/>
      <use x="844.287109" xlink:href="#DejaVuSans-6e"/>
      <use x="907.666016" xlink:href="#DejaVuSans-20"/>
      <use x="939.453125" xlink:href="#DejaVuSans-63"/>
      <use x="994.433594" xlink:href="#DejaVuSans-68"/>
      <use x="1057.8125" xlink:href="#DejaVuSans-61"/>
      <use x="1119.091797" xlink:href="#DejaVuSans-69"/>
      <use x="1146.875" xlink:href="#DejaVuSans-6e"/>
     </g>
    </g>
   </g>
   <g id="matplotlib.axis_2">
    <g id="ytick_1">
     <g id="line2d_17">
      <defs>
       <path d="M 0 0 
L -10 0 
" id="mda34b1a811" style="stroke:#000000;stroke-width:4;"/>
      </defs>
      <g>
       <use style="stroke:#000000;stroke-width:4;" x="84.711875" xlink:href="#mda34b1a811" y="370.476485"/>
      </g>
     </g>
     <g id="text_18">
      <!-- $\mathdefault{10^{1}}$ -->
      <g transform="translate(32.491875 378.834766)scale(0.22 -0.22)">
       <use transform="translate(0 0.684375)" xlink:href="#DejaVuSans-31"/>
       <use transform="translate(63.623047 0.684375)" xlink:href="#DejaVuSans-30"/>
       <use transform="translate(128.203125 38.965625)scale(0.7)" xlink:href="#DejaVuSans-31"/>
      </g>
     </g>
    </g>
    <g id="ytick_2">
     <g id="line2d_18">
      <g>
       <use style="stroke:#000000;stroke-width:4;" x="84.711875" xlink:href="#mda34b1a811" y="103.909091"/>
      </g>
     </g>
     <g id="text_19">
      <!-- $\mathdefault{10^{2}}$ -->
      <g transform="translate(32.491875 112.267372)scale(0.22 -0.22)">
       <use transform="translate(0 0.765625)" xlink:href="#DejaVuSans-31"/>
       <use transform="translate(63.623047 0.765625)" xlink:href="#DejaVuSans-30"/>
       <use transform="translate(128.203125 39.046875)scale(0.7)" xlink:href="#DejaVuSans-32"/>
      </g>
     </g>
    </g>
    <g id="text_20">
     <!-- Adjusted rank -->
     <defs>
      <path d="M 34.1875 63.1875 
L 20.796875 26.90625 
L 47.609375 26.90625 
z
M 28.609375 72.90625 
L 39.796875 72.90625 
L 67.578125 0 
L 57.328125 0 
L 50.6875 18.703125 
L 17.828125 18.703125 
L 11.1875 0 
L 0.78125 0 
z
" id="DejaVuSans-41"/>
      <path d="M 9.421875 54.6875 
L 18.40625 54.6875 
L 18.40625 -0.984375 
Q 18.40625 -11.421875 14.421875 -16.109375 
Q 10.453125 -20.796875 1.609375 -20.796875 
L -1.8125 -20.796875 
L -1.8125 -13.1875 
L 0.59375 -13.1875 
Q 5.71875 -13.1875 7.5625 -10.8125 
Q 9.421875 -8.453125 9.421875 -0.984375 
z
M 9.421875 75.984375 
L 18.40625 75.984375 
L 18.40625 64.59375 
L 9.421875 64.59375 
z
" id="DejaVuSans-6a"/>
      <path d="M 8.5 21.578125 
L 8.5 54.6875 
L 17.484375 54.6875 
L 17.484375 21.921875 
Q 17.484375 14.15625 20.5 10.265625 
Q 23.53125 6.390625 29.59375 6.390625 
Q 36.859375 6.390625 41.078125 11.03125 
Q 45.3125 15.671875 45.3125 23.6875 
L 45.3125 54.6875 
L 54.296875 54.6875 
L 54.296875 0 
L 45.3125 0 
L 45.3125 8.40625 
Q 42.046875 3.421875 37.71875 1 
Q 33.40625 -1.421875 27.6875 -1.421875 
Q 18.265625 -1.421875 13.375 4.4375 
Q 8.5 10.296875 8.5 21.578125 
z
M 31.109375 56 
z
" id="DejaVuSans-75"/>
      <path d="M 44.28125 53.078125 
L 44.28125 44.578125 
Q 40.484375 46.53125 36.375 47.5 
Q 32.28125 48.484375 27.875 48.484375 
Q 21.1875 48.484375 17.84375 46.4375 
Q 14.5 44.390625 14.5 40.28125 
Q 14.5 37.15625 16.890625 35.375 
Q 19.28125 33.59375 26.515625 31.984375 
L 29.59375 31.296875 
Q 39.15625 29.25 43.1875 25.515625 
Q 47.21875 21.78125 47.21875 15.09375 
Q 47.21875 7.46875 41.1875 3.015625 
Q 35.15625 -1.421875 24.609375 -1.421875 
Q 20.21875 -1.421875 15.453125 -0.5625 
Q 10.6875 0.296875 5.421875 2 
L 5.421875 11.28125 
Q 10.40625 8.6875 15.234375 7.390625 
Q 20.0625 6.109375 24.8125 6.109375 
Q 31.15625 6.109375 34.5625 8.28125 
Q 37.984375 10.453125 37.984375 14.40625 
Q 37.984375 18.0625 35.515625 20.015625 
Q 33.0625 21.96875 24.703125 23.78125 
L 21.578125 24.515625 
Q 13.234375 26.265625 9.515625 29.90625 
Q 5.8125 33.546875 5.8125 39.890625 
Q 5.8125 47.609375 11.28125 51.796875 
Q 16.75 56 26.8125 56 
Q 31.78125 56 36.171875 55.265625 
Q 40.578125 54.546875 44.28125 53.078125 
z
" id="DejaVuSans-73"/>
      <path d="M 9.078125 75.984375 
L 18.109375 75.984375 
L 18.109375 31.109375 
L 44.921875 54.6875 
L 56.390625 54.6875 
L 27.390625 29.109375 
L 57.625 0 
L 45.90625 0 
L 18.109375 26.703125 
L 18.109375 0 
L 9.078125 0 
z
" id="DejaVuSans-6b"/>
     </defs>
     <g transform="translate(23.916563 427.427656)rotate(-90)scale(0.22 -0.22)">
      <use xlink:href="#DejaVuSans-41"/>
      <use x="68.392578" xlink:href="#DejaVuSans-64"/>
      <use x="131.869141" xlink:href="#DejaVuSans-6a"/>
      <use x="159.652344" xlink:href="#DejaVuSans-75"/>
      <use x="223.03125" xlink:href="#DejaVuSans-73"/>
      <use x="275.130859" xlink:href="#DejaVuSans-74"/>
      <use x="314.339844" xlink:href="#DejaVuSans-65"/>
      <use x="375.863281" xlink:href="#DejaVuSans-64"/>
      <use x="439.339844" xlink:href="#DejaVuSans-20"/>
      <use x="471.126953" xlink:href="#DejaVuSans-72"/>
      <use x="512.240234" xlink:href="#DejaVuSans-61"/>
      <use x="573.519531" xlink:href="#DejaVuSans-6e"/>
      <use x="636.898438" xlink:href="#DejaVuSans-6b"/>
     </g>
    </g>
   </g>
   <g id="line2d_19">
    <path clip-path="url(#p961d4620c3)" d="M 84.711875 157.398358 
L 84.711875 132.673151 
L 89.52222 132.673151 
L 89.52222 138.767651 
L 94.332565 138.767651 
L 94.332565 168.984894 
L 99.142909 168.984894 
L 99.142909 179.613339 
L 103.953254 179.613339 
L 103.953254 191.31711 
L 108.763599 191.31711 
L 108.763599 359.442545 
L 113.573944 359.442545 
L 113.573944 381.394714 
L 118.384289 381.394714 
L 118.384289 359.442545 
L 123.194634 359.442545 
L 123.194634 429.614128 
L 128.004978 429.614128 
L 128.004978 465.520376 
L 132.815323 465.520376 
L 132.815323 450.721266 
L 142.436013 450.721266 
L 142.436013 389.291098 
L 156.867047 389.291098 
L 156.867047 416.839271 
L 161.677392 416.839271 
L 161.677392 468.181843 
L 166.487737 468.181843 
L 166.487737 498.824969 
L 171.298082 498.824969 
L 171.298082 420.347684 
L 176.108427 420.347684 
L 176.108427 359.442545 
L 180.918772 359.442545 
L 180.918772 219.012432 
L 185.729116 219.012432 
L 185.729116 145.200903 
L 190.539461 145.200903 
L 190.539461 131.19837 
L 195.349806 131.19837 
L 195.349806 143.558765 
L 200.160151 143.558765 
L 200.160151 274.051638 
L 204.970496 274.051638 
L 204.970496 279.197763 
L 209.780841 279.197763 
L 209.780841 296.169864 
L 214.591185 296.169864 
L 214.591185 302.429158 
L 219.40153 302.429158 
L 219.40153 284.583327 
L 224.211875 284.583327 
L 224.211875 239.495479 
L 229.02222 239.495479 
L 229.02222 259.858121 
L 233.832565 259.858121 
L 233.832565 228.801535 
L 238.642909 228.801535 
L 238.642909 215.925082 
L 243.453254 215.925082 
L 243.453254 259.858121 
L 248.263599 259.858121 
L 248.263599 255.48897 
L 253.073944 255.48897 
L 253.073944 239.495479 
L 257.884289 239.495479 
L 257.884289 232.257575 
L 262.694634 232.257575 
L 262.694634 222.184377 
L 267.504978 222.184377 
L 267.504978 164.992473 
L 272.315323 164.992473 
L 272.315323 155.57519 
L 277.125668 155.57519 
L 277.125668 118.7082 
L 281.936013 118.7082 
L 281.936013 116.106546 
L 286.746358 116.106546 
L 286.746358 114.82732 
L 291.556703 114.82732 
L 291.556703 118.7082 
L 296.367047 118.7082 
L 296.367047 131.19837 
L 301.177392 131.19837 
L 301.177392 148.556754 
L 305.987737 148.556754 
L 305.987737 150.271877 
L 310.798082 150.271877 
L 310.798082 168.984894 
L 315.608427 168.984894 
L 315.608427 164.992473 
L 320.418772 164.992473 
L 320.418772 161.133157 
L 325.229116 161.133157 
L 325.229116 141.939596 
L 330.039461 141.939596 
L 330.039461 137.213684 
L 339.660151 137.213684 
L 339.660151 118.7082 
L 344.470496 118.7082 
L 344.470496 111.072329 
L 349.280841 111.072329 
L 349.280841 113.562075 
L 354.091185 113.562075 
L 354.091185 128.304001 
L 363.711875 128.304001 
L 363.711875 279.197763 
L 368.52222 279.197763 
L 368.52222 274.051638 
L 373.332565 274.051638 
L 373.332565 279.197763 
L 387.763599 279.197763 
L 387.763599 274.051638 
L 397.384289 274.051638 
L 397.384289 279.197763 
L 402.194634 279.197763 
L 402.194634 247.216256 
L 407.004978 247.216256 
L 407.004978 219.012432 
L 411.815323 219.012432 
L 411.815323 279.197763 
L 416.625668 279.197763 
L 416.625668 349.369346 
L 421.436013 349.369346 
L 421.436013 316.064753 
L 431.056703 316.064753 
L 431.056703 309.046316 
L 445.487737 309.046316 
L 445.487737 157.398358 
L 450.298082 157.398358 
L 450.298082 106.247933 
L 455.108427 106.247933 
L 455.108427 105.072606 
L 464.729116 105.072606 
L 464.729116 103.909091 
L 474.349806 103.909091 
L 474.349806 105.072606 
L 488.780841 105.072606 
L 488.780841 106.247933 
L 493.591185 106.247933 
L 493.591185 112.310509 
L 498.40153 112.310509 
L 498.40153 120.031286 
L 508.02222 120.031286 
L 508.02222 121.369668 
L 512.832565 121.369668 
L 512.832565 122.723704 
L 517.642909 122.723704 
L 517.642909 134.166962 
L 522.453254 134.166962 
L 522.453254 137.213684 
L 527.263599 137.213684 
L 527.263599 134.166962 
L 532.073944 134.166962 
L 532.073944 137.213684 
L 536.884289 137.213684 
L 536.884289 135.680301 
L 541.694634 135.680301 
L 541.694634 131.19837 
L 546.504978 131.19837 
L 546.504978 132.673151 
L 556.125668 132.673151 
L 556.125668 134.166962 
L 560.936013 134.166962 
L 560.936013 132.673151 
L 565.746358 132.673151 
L 565.746358 131.19837 
L 570.556703 131.19837 
L 570.556703 152.012794 
L 575.367047 152.012794 
L 575.367047 193.806857 
L 580.177392 193.806857 
L 580.177392 309.046316 
L 584.987737 309.046316 
L 584.987737 349.369346 
L 599.418772 349.369346 
L 599.418772 309.046316 
L 604.229116 309.046316 
L 604.229116 259.858121 
L 609.039461 259.858121 
L 609.039461 219.012432 
L 613.849806 219.012432 
L 613.849806 143.558765 
L 618.660151 143.558765 
L 618.660151 135.680301 
L 623.470496 135.680301 
L 623.470496 132.673151 
L 628.280841 132.673151 
L 628.280841 129.742141 
L 633.091185 129.742141 
L 633.091185 121.369668 
L 637.90153 121.369668 
L 637.90153 117.400065 
L 642.711875 117.400065 
L 642.711875 114.82732 
L 647.52222 114.82732 
L 647.52222 137.213684 
L 652.332565 137.213684 
L 652.332565 164.992473 
L 657.142909 164.992473 
L 657.142909 181.861347 
L 661.953254 181.861347 
L 661.953254 188.879784 
L 676.384289 188.879784 
L 676.384289 164.992473 
L 681.194634 164.992473 
L 681.194634 129.742141 
L 690.815323 129.742141 
L 690.815323 135.680301 
L 695.625668 135.680301 
L 695.625668 128.304001 
L 700.436013 128.304001 
L 700.436013 132.673151 
L 705.246358 132.673151 
L 705.246358 125.480233 
L 710.056703 125.480233 
L 710.056703 120.031286 
L 714.867047 120.031286 
L 714.867047 113.562075 
L 719.677392 113.562075 
L 719.677392 114.82732 
L 724.487737 114.82732 
L 724.487737 117.400065 
L 729.298082 117.400065 
L 729.298082 173.119932 
L 734.108427 173.119932 
L 734.108427 209.986922 
L 738.918772 209.986922 
L 738.918772 212.917933 
L 743.729116 212.917933 
L 743.729116 207.128289 
L 748.539461 207.128289 
L 748.539461 204.338546 
L 753.349806 204.338546 
L 753.349806 177.408154 
L 758.160151 177.408154 
L 758.160151 235.819972 
L 762.970496 235.819972 
L 762.970496 269.124565 
L 767.780841 269.124565 
L 767.780841 302.429158 
L 772.591185 302.429158 
L 772.591185 309.046316 
L 777.40153 309.046316 
L 777.40153 296.169864 
L 782.211875 296.169864 
L 782.211875 264.398654 
L 787.02222 264.398654 
L 787.02222 243.291515 
L 791.832565 243.291515 
L 791.832565 284.583327 
L 796.642909 284.583327 
L 796.642909 502.387365 
L 801.453254 502.387365 
L 801.453254 517.846128 
L 806.263599 517.846128 
L 806.263599 598.090909 
L 820.694634 598.090909 
L 820.694634 590.103691 
L 825.504978 590.103691 
L 825.504978 568.996552 
L 830.315323 568.996552 
L 830.315323 433.538868 
L 835.125668 433.538868 
L 835.125668 402.247695 
L 839.936013 402.247695 
L 839.936013 359.442545 
L 844.746358 359.442545 
L 844.746358 385.275594 
L 849.556703 385.275594 
L 849.556703 400.734356 
L 859.177392 400.734356 
L 859.177392 394.871395 
L 863.987737 394.871395 
L 863.987737 349.369346 
L 868.798082 349.369346 
L 868.798082 309.046316 
L 873.608427 309.046316 
L 873.608427 251.278734 
L 878.418772 251.278734 
L 878.418772 359.442545 
L 883.229116 359.442545 
L 883.229116 259.858121 
L 888.039461 259.858121 
L 888.039461 302.429158 
L 892.849806 302.429158 
L 892.849806 323.536297 
L 897.660151 323.536297 
L 897.660151 340.102902 
L 902.470496 340.102902 
L 902.470496 371.64 
L 907.280841 371.64 
L 907.280841 349.369346 
L 916.90153 349.369346 
L 916.90153 316.064753 
L 921.711875 316.064753 
L 921.711875 302.429158 
L 926.52222 302.429158 
L 926.52222 274.051638 
L 931.332565 274.051638 
L 931.332565 222.184377 
L 936.142909 222.184377 
L 936.142909 186.492714 
L 940.953254 186.492714 
L 940.953254 166.971474 
L 945.763599 166.971474 
L 945.763599 168.984894 
L 950.573944 168.984894 
L 950.573944 163.046734 
L 955.384289 163.046734 
L 955.384289 153.78029 
L 965.004978 153.78029 
L 965.004978 146.866669 
L 969.815323 146.866669 
L 969.815323 138.767651 
L 974.625668 138.767651 
L 974.625668 173.119932 
L 979.436013 173.119932 
L 979.436013 225.445684 
L 984.246358 225.445684 
L 984.246358 239.495479 
L 998.677392 239.495479 
L 998.677392 201.614449 
L 1003.487737 201.614449 
L 1003.487737 198.952982 
L 1008.298082 198.952982 
L 1008.298082 164.992473 
L 1013.108427 164.992473 
L 1013.108427 251.278734 
L 1017.918772 251.278734 
L 1017.918772 279.197763 
L 1022.729116 279.197763 
L 1022.729116 316.064753 
L 1027.539461 316.064753 
L 1027.539461 331.523515 
L 1032.349806 331.523515 
L 1032.349806 359.442545 
L 1037.160151 359.442545 
L 1037.160151 269.124565 
L 1041.970496 269.124565 
L 1041.970496 290.231703 
L 1046.780841 290.231703 
L 1046.780841 201.614449 
L 1051.591185 201.614449 
L 1051.591185 371.64 
L 1056.40153 371.64 
L 1056.40153 390.661158 
L 1061.211875 390.661158 
L 1061.211875 396.309534 
L 1070.832565 396.309534 
L 1070.832565 400.734356 
L 1075.642909 400.734356 
L 1075.642909 410.126159 
L 1085.263599 410.126159 
L 1085.263599 457.884504 
L 1090.073944 457.884504 
L 1090.073944 498.824969 
L 1094.884289 498.824969 
L 1094.884289 517.846128 
L 1099.694634 517.846128 
L 1099.694634 502.387365 
L 1104.504978 502.387365 
L 1104.504978 435.552288 
L 1109.315323 435.552288 
L 1109.315323 359.442545 
L 1114.125668 359.442545 
L 1114.125668 393.450902 
L 1118.936013 393.450902 
L 1118.936013 359.442545 
L 1123.746358 359.442545 
L 1123.746358 393.450902 
L 1128.556703 393.450902 
L 1128.556703 410.126159 
L 1133.367047 410.126159 
L 1133.367047 427.700551 
L 1138.177392 427.700551 
L 1138.177392 460.374251 
L 1142.987737 460.374251 
L 1142.987737 479.485327 
L 1147.798082 479.485327 
L 1147.798082 410.126159 
L 1152.608427 410.126159 
L 1152.608427 396.309534 
L 1157.418772 396.309534 
L 1157.418772 349.369346 
L 1162.229116 349.369346 
L 1162.229116 331.523515 
L 1167.039461 331.523515 
L 1167.039461 323.536297 
L 1171.849806 323.536297 
L 1171.849806 316.064753 
L 1176.660151 316.064753 
L 1176.660151 323.536297 
L 1181.470496 323.536297 
L 1181.470496 302.429158 
L 1186.280841 302.429158 
L 1186.280841 225.445684 
L 1191.091185 225.445684 
L 1191.091185 201.614449 
L 1195.90153 201.614449 
L 1195.90153 157.398358 
L 1200.711875 157.398358 
L 1200.711875 157.398358 
" style="fill:none;stroke:#1f77b4;stroke-linecap:square;stroke-width:3;"/>
   </g>
   <g id="patch_3">
    <path d="M 84.711875 622.8 
L 84.711875 79.2 
" style="fill:none;stroke:#000000;stroke-linecap:square;stroke-linejoin:miter;stroke-width:0.8;"/>
   </g>
   <g id="patch_4">
    <path d="M 1200.711875 622.8 
L 1200.711875 79.2 
" style="fill:none;stroke:#000000;stroke-linecap:square;stroke-linejoin:miter;stroke-width:0.8;"/>
   </g>
   <g id="patch_5">
    <path d="M 84.711875 622.8 
L 1200.711875 622.8 
" style="fill:none;stroke:#000000;stroke-linecap:square;stroke-linejoin:miter;stroke-width:0.8;"/>
   </g>
   <g id="patch_6">
    <path d="M 84.711875 79.2 
L 1200.711875 79.2 
" style="fill:none;stroke:#000000;stroke-linecap:square;stroke-linejoin:miter;stroke-width:0.8;"/>
   </g>
   <g id="patch_7">
    <path d="M 827.323164 589.096458 
Q 820.073298 593.109485 813.80161 596.581061 
" style="fill:none;stroke:#000000;stroke-linecap:round;"/>
    <path d="M 823.631673 596.168914 
L 813.80161 596.581061 
L 819.36993 588.469722 
L 823.631673 596.168914 
z
" style="fill:#1f77b4;stroke:#000000;stroke-linecap:round;"/>
   </g>
   <g id="text_21">
    <!-- Lowest -->
    <defs>
     <path d="M 9.8125 72.90625 
L 19.671875 72.90625 
L 19.671875 8.296875 
L 55.171875 8.296875 
L 55.171875 0 
L 9.8125 0 
z
" id="DejaVuSans-4c"/>
     <path d="M 4.203125 54.6875 
L 13.1875 54.6875 
L 24.421875 12.015625 
L 35.59375 54.6875 
L 46.1875 54.6875 
L 57.421875 12.015625 
L 68.609375 54.6875 
L 77.59375 54.6875 
L 63.28125 0 
L 52.6875 0 
L 40.921875 44.828125 
L 29.109375 0 
L 18.5 0 
z
" id="DejaVuSans-77"/>
    </defs>
    <g transform="translate(831.073944 593.090909)scale(0.22 -0.22)">
     <use xlink:href="#DejaVuSans-4c"/>
     <use x="55.697266" xlink:href="#DejaVuSans-6f"/>
     <use x="116.878906" xlink:href="#DejaVuSans-77"/>
     <use x="198.666016" xlink:href="#DejaVuSans-65"/>
     <use x="260.189453" xlink:href="#DejaVuSans-73"/>
     <use x="312.289062" xlink:href="#DejaVuSans-74"/>
    </g>
   </g>
   <g id="text_22">
    <!-- Lower rank means higher affinity -->
    <defs>
     <path d="M 52 44.1875 
Q 55.375 50.25 60.0625 53.125 
Q 64.75 56 71.09375 56 
Q 79.640625 56 84.28125 50.015625 
Q 88.921875 44.046875 88.921875 33.015625 
L 88.921875 0 
L 79.890625 0 
L 79.890625 32.71875 
Q 79.890625 40.578125 77.09375 44.375 
Q 74.3125 48.1875 68.609375 48.1875 
Q 61.625 48.1875 57.5625 43.546875 
Q 53.515625 38.921875 53.515625 30.90625 
L 53.515625 0 
L 44.484375 0 
L 44.484375 32.71875 
Q 44.484375 40.625 41.703125 44.40625 
Q 38.921875 48.1875 33.109375 48.1875 
Q 26.21875 48.1875 22.15625 43.53125 
Q 18.109375 38.875 18.109375 30.90625 
L 18.109375 0 
L 9.078125 0 
L 9.078125 54.6875 
L 18.109375 54.6875 
L 18.109375 46.1875 
Q 21.1875 51.21875 25.484375 53.609375 
Q 29.78125 56 35.6875 56 
Q 41.65625 56 45.828125 52.96875 
Q 50 49.953125 52 44.1875 
z
" id="DejaVuSans-6d"/>
     <path d="M 45.40625 27.984375 
Q 45.40625 37.75 41.375 43.109375 
Q 37.359375 48.484375 30.078125 48.484375 
Q 22.859375 48.484375 18.828125 43.109375 
Q 14.796875 37.75 14.796875 27.984375 
Q 14.796875 18.265625 18.828125 12.890625 
Q 22.859375 7.515625 30.078125 7.515625 
Q 37.359375 7.515625 41.375 12.890625 
Q 45.40625 18.265625 45.40625 27.984375 
z
M 54.390625 6.78125 
Q 54.390625 -7.171875 48.1875 -13.984375 
Q 42 -20.796875 29.203125 -20.796875 
Q 24.46875 -20.796875 20.265625 -20.09375 
Q 16.0625 -19.390625 12.109375 -17.921875 
L 12.109375 -9.1875 
Q 16.0625 -11.328125 19.921875 -12.34375 
Q 23.78125 -13.375 27.78125 -13.375 
Q 36.625 -13.375 41.015625 -8.765625 
Q 45.40625 -4.15625 45.40625 5.171875 
L 45.40625 9.625 
Q 42.625 4.78125 38.28125 2.390625 
Q 33.9375 0 27.875 0 
Q 17.828125 0 11.671875 7.65625 
Q 5.515625 15.328125 5.515625 27.984375 
Q 5.515625 40.671875 11.671875 48.328125 
Q 17.828125 56 27.875 56 
Q 33.9375 56 38.28125 53.609375 
Q 42.625 51.21875 45.40625 46.390625 
L 45.40625 54.6875 
L 54.390625 54.6875 
z
" id="DejaVuSans-67"/>
     <path d="M 32.171875 -5.078125 
Q 28.375 -14.84375 24.75 -17.8125 
Q 21.140625 -20.796875 15.09375 -20.796875 
L 7.90625 -20.796875 
L 7.90625 -13.28125 
L 13.1875 -13.28125 
Q 16.890625 -13.28125 18.9375 -11.515625 
Q 21 -9.765625 23.484375 -3.21875 
L 25.09375 0.875 
L 2.984375 54.6875 
L 12.5 54.6875 
L 29.59375 11.921875 
L 46.6875 54.6875 
L 56.203125 54.6875 
z
" id="DejaVuSans-79"/>
    </defs>
    <g transform="translate(510.114375 64.2)scale(0.16 -0.16)">
     <use xlink:href="#DejaVuSans-4c"/>
     <use x="55.697266" xlink:href="#DejaVuSans-6f"/>
     <use x="116.878906" xlink:href="#DejaVuSans-77"/>
     <use x="198.666016" xlink:href="#DejaVuSans-65"/>
     <use x="260.189453" xlink:href="#DejaVuSans-72"/>
     <use x="301.302734" xlink:href="#DejaVuSans-20"/>
     <use x="333.089844" xlink:href="#DejaVuSans-72"/>
     <use x="374.203125" xlink:href="#DejaVuSans-61"/>
     <use x="435.482422" xlink:href="#DejaVuSans-6e"/>
     <use x="498.861328" xlink:href="#DejaVuSans-6b"/>
     <use x="556.771484" xlink:href="#DejaVuSans-20"/>
     <use x="588.558594" xlink:href="#DejaVuSans-6d"/>
     <use x="685.970703" xlink:href="#DejaVuSans-65"/>
     <use x="747.494141" xlink:href="#DejaVuSans-61"/>
     <use x="808.773438" xlink:href="#DejaVuSans-6e"/>
     <use x="872.152344" xlink:href="#DejaVuSans-73"/>
     <use x="924.251953" xlink:href="#DejaVuSans-20"/>
     <use x="956.039062" xlink:href="#DejaVuSans-68"/>
     <use x="1019.417969" xlink:href="#DejaVuSans-69"/>
     <use x="1047.201172" xlink:href="#DejaVuSans-67"/>
     <use x="1110.677734" xlink:href="#DejaVuSans-68"/>
     <use x="1174.056641" xlink:href="#DejaVuSans-65"/>
     <use x="1235.580078" xlink:href="#DejaVuSans-72"/>
     <use x="1276.693359" xlink:href="#DejaVuSans-20"/>
     <use x="1308.480469" xlink:href="#DejaVuSans-61"/>
     <use x="1369.759766" xlink:href="#DejaVuSans-66"/>
     <use x="1404.964844" xlink:href="#DejaVuSans-66"/>
     <use x="1440.169922" xlink:href="#DejaVuSans-69"/>
     <use x="1467.953125" xlink:href="#DejaVuSans-6e"/>
     <use x="1531.332031" xlink:href="#DejaVuSans-69"/>
     <use x="1559.115234" xlink:href="#DejaVuSans-74"/>
     <use x="1598.324219" xlink:href="#DejaVuSans-79"/>
    </g>
   </g>
  </g>
  <g id="text_23">
   <!-- Affinity to HLA-DRB1*15:01 in relation to start location of peptide in MOG -->
   <defs>
    <path d="M 9.8125 72.90625 
L 19.671875 72.90625 
L 19.671875 43.015625 
L 55.515625 43.015625 
L 55.515625 72.90625 
L 65.375 72.90625 
L 65.375 0 
L 55.515625 0 
L 55.515625 34.71875 
L 19.671875 34.71875 
L 19.671875 0 
L 9.8125 0 
z
" id="DejaVuSans-48"/>
    <path d="M 4.890625 31.390625 
L 31.203125 31.390625 
L 31.203125 23.390625 
L 4.890625 23.390625 
z
" id="DejaVuSans-2d"/>
    <path d="M 19.671875 64.796875 
L 19.671875 8.109375 
L 31.59375 8.109375 
Q 46.6875 8.109375 53.6875 14.9375 
Q 60.6875 21.78125 60.6875 36.53125 
Q 60.6875 51.171875 53.6875 57.984375 
Q 46.6875 64.796875 31.59375 64.796875 
z
M 9.8125 72.90625 
L 30.078125 72.90625 
Q 51.265625 72.90625 61.171875 64.09375 
Q 71.09375 55.28125 71.09375 36.53125 
Q 71.09375 17.671875 61.125 8.828125 
Q 51.171875 0 30.078125 0 
L 9.8125 0 
z
" id="DejaVuSans-44"/>
    <path d="M 44.390625 34.1875 
Q 47.5625 33.109375 50.5625 29.59375 
Q 53.5625 26.078125 56.59375 19.921875 
L 66.609375 0 
L 56 0 
L 46.6875 18.703125 
Q 43.0625 26.03125 39.671875 28.421875 
Q 36.28125 30.8125 30.421875 30.8125 
L 19.671875 30.8125 
L 19.671875 0 
L 9.8125 0 
L 9.8125 72.90625 
L 32.078125 72.90625 
Q 44.578125 72.90625 50.734375 67.671875 
Q 56.890625 62.453125 56.890625 51.90625 
Q 56.890625 45.015625 53.6875 40.46875 
Q 50.484375 35.9375 44.390625 34.1875 
z
M 19.671875 64.796875 
L 19.671875 38.921875 
L 32.078125 38.921875 
Q 39.203125 38.921875 42.84375 42.21875 
Q 46.484375 45.515625 46.484375 51.90625 
Q 46.484375 58.296875 42.84375 61.546875 
Q 39.203125 64.796875 32.078125 64.796875 
z
" id="DejaVuSans-52"/>
    <path d="M 19.671875 34.8125 
L 19.671875 8.109375 
L 35.5 8.109375 
Q 43.453125 8.109375 47.28125 11.40625 
Q 51.125 14.703125 51.125 21.484375 
Q 51.125 28.328125 47.28125 31.5625 
Q 43.453125 34.8125 35.5 34.8125 
z
M 19.671875 64.796875 
L 19.671875 42.828125 
L 34.28125 42.828125 
Q 41.5 42.828125 45.03125 45.53125 
Q 48.578125 48.25 48.578125 53.8125 
Q 48.578125 59.328125 45.03125 62.0625 
Q 41.5 64.796875 34.28125 64.796875 
z
M 9.8125 72.90625 
L 35.015625 72.90625 
Q 46.296875 72.90625 52.390625 68.21875 
Q 58.5 63.53125 58.5 54.890625 
Q 58.5 48.1875 55.375 44.234375 
Q 52.25 40.28125 46.1875 39.3125 
Q 53.46875 37.75 57.5 32.78125 
Q 61.53125 27.828125 61.53125 20.40625 
Q 61.53125 10.640625 54.890625 5.3125 
Q 48.25 0 35.984375 0 
L 9.8125 0 
z
" id="DejaVuSans-42"/>
    <path d="M 47.015625 60.890625 
L 29.5 51.421875 
L 47.015625 41.890625 
L 44.1875 37.109375 
L 27.78125 47.015625 
L 27.78125 28.609375 
L 22.21875 28.609375 
L 22.21875 47.015625 
L 5.8125 37.109375 
L 2.984375 41.890625 
L 20.515625 51.421875 
L 2.984375 60.890625 
L 5.8125 65.71875 
L 22.21875 55.8125 
L 22.21875 74.21875 
L 27.78125 74.21875 
L 27.78125 55.8125 
L 44.1875 65.71875 
z
" id="DejaVuSans-2a"/>
    <path d="M 11.71875 12.40625 
L 22.015625 12.40625 
L 22.015625 0 
L 11.71875 0 
z
M 11.71875 51.703125 
L 22.015625 51.703125 
L 22.015625 39.3125 
L 11.71875 39.3125 
z
" id="DejaVuSans-3a"/>
    <path d="M 9.421875 75.984375 
L 18.40625 75.984375 
L 18.40625 0 
L 9.421875 0 
z
" id="DejaVuSans-6c"/>
    <path d="M 9.8125 72.90625 
L 24.515625 72.90625 
L 43.109375 23.296875 
L 61.8125 72.90625 
L 76.515625 72.90625 
L 76.515625 0 
L 66.890625 0 
L 66.890625 64.015625 
L 48.09375 14.015625 
L 38.1875 14.015625 
L 19.390625 64.015625 
L 19.390625 0 
L 9.8125 0 
z
" id="DejaVuSans-4d"/>
    <path d="M 39.40625 66.21875 
Q 28.65625 66.21875 22.328125 58.203125 
Q 16.015625 50.203125 16.015625 36.375 
Q 16.015625 22.609375 22.328125 14.59375 
Q 28.65625 6.59375 39.40625 6.59375 
Q 50.140625 6.59375 56.421875 14.59375 
Q 62.703125 22.609375 62.703125 36.375 
Q 62.703125 50.203125 56.421875 58.203125 
Q 50.140625 66.21875 39.40625 66.21875 
z
M 39.40625 74.21875 
Q 54.734375 74.21875 63.90625 63.9375 
Q 73.09375 53.65625 73.09375 36.375 
Q 73.09375 19.140625 63.90625 8.859375 
Q 54.734375 -1.421875 39.40625 -1.421875 
Q 24.03125 -1.421875 14.8125 8.828125 
Q 5.609375 19.09375 5.609375 36.375 
Q 5.609375 53.65625 14.8125 63.9375 
Q 24.03125 74.21875 39.40625 74.21875 
z
" id="DejaVuSans-4f"/>
    <path d="M 59.515625 10.40625 
L 59.515625 29.984375 
L 43.40625 29.984375 
L 43.40625 38.09375 
L 69.28125 38.09375 
L 69.28125 6.78125 
Q 63.578125 2.734375 56.6875 0.65625 
Q 49.8125 -1.421875 42 -1.421875 
Q 24.90625 -1.421875 15.25 8.5625 
Q 5.609375 18.5625 5.609375 36.375 
Q 5.609375 54.25 15.25 64.234375 
Q 24.90625 74.21875 42 74.21875 
Q 49.125 74.21875 55.546875 72.453125 
Q 61.96875 70.703125 67.390625 67.28125 
L 67.390625 56.78125 
Q 61.921875 61.421875 55.765625 63.765625 
Q 49.609375 66.109375 42.828125 66.109375 
Q 29.4375 66.109375 22.71875 58.640625 
Q 16.015625 51.171875 16.015625 36.375 
Q 16.015625 21.625 22.71875 14.15625 
Q 29.4375 6.6875 42.828125 6.6875 
Q 48.046875 6.6875 52.140625 7.59375 
Q 56.25 8.5 59.515625 10.40625 
z
" id="DejaVuSans-47"/>
   </defs>
   <g transform="translate(139.828437 27.259875)scale(0.264 -0.264)">
    <use xlink:href="#DejaVuSans-41"/>
    <use x="68.361328" xlink:href="#DejaVuSans-66"/>
    <use x="103.566406" xlink:href="#DejaVuSans-66"/>
    <use x="138.771484" xlink:href="#DejaVuSans-69"/>
    <use x="166.554688" xlink:href="#DejaVuSans-6e"/>
    <use x="229.933594" xlink:href="#DejaVuSans-69"/>
    <use x="257.716797" xlink:href="#DejaVuSans-74"/>
    <use x="296.925781" xlink:href="#DejaVuSans-79"/>
    <use x="356.105469" xlink:href="#DejaVuSans-20"/>
    <use x="387.892578" xlink:href="#DejaVuSans-74"/>
    <use x="427.101562" xlink:href="#DejaVuSans-6f"/>
    <use x="488.283203" xlink:href="#DejaVuSans-20"/>
    <use x="520.070312" xlink:href="#DejaVuSans-48"/>
    <use x="595.265625" xlink:href="#DejaVuSans-4c"/>
    <use x="651.009766" xlink:href="#DejaVuSans-41"/>
    <use x="719.386719" xlink:href="#DejaVuSans-2d"/>
    <use x="755.470703" xlink:href="#DejaVuSans-44"/>
    <use x="832.472656" xlink:href="#DejaVuSans-52"/>
    <use x="901.955078" xlink:href="#DejaVuSans-42"/>
    <use x="970.558594" xlink:href="#DejaVuSans-31"/>
    <use x="1034.181641" xlink:href="#DejaVuSans-2a"/>
    <use x="1084.181641" xlink:href="#DejaVuSans-31"/>
    <use x="1147.804688" xlink:href="#DejaVuSans-35"/>
    <use x="1211.427734" xlink:href="#DejaVuSans-3a"/>
    <use x="1245.119141" xlink:href="#DejaVuSans-30"/>
    <use x="1308.742188" xlink:href="#DejaVuSans-31"/>
    <use x="1372.365234" xlink:href="#DejaVuSans-20"/>
    <use x="1404.152344" xlink:href="#DejaVuSans-69"/>
    <use x="1431.935547" xlink:href="#DejaVuSans-6e"/>
    <use x="1495.314453" xlink:href="#DejaVuSans-20"/>
    <use x="1527.101562" xlink:href="#DejaVuSans-72"/>
    <use x="1568.183594" xlink:href="#DejaVuSans-65"/>
    <use x="1629.707031" xlink:href="#DejaVuSans-6c"/>
    <use x="1657.490234" xlink:href="#DejaVuSans-61"/>
    <use x="1718.769531" xlink:href="#DejaVuSans-74"/>
    <use x="1757.978516" xlink:href="#DejaVuSans-69"/>
    <use x="1785.761719" xlink:href="#DejaVuSans-6f"/>
    <use x="1846.943359" xlink:href="#DejaVuSans-6e"/>
    <use x="1910.322266" xlink:href="#DejaVuSans-20"/>
    <use x="1942.109375" xlink:href="#DejaVuSans-74"/>
    <use x="1981.318359" xlink:href="#DejaVuSans-6f"/>
    <use x="2042.5" xlink:href="#DejaVuSans-20"/>
    <use x="2074.287109" xlink:href="#DejaVuSans-73"/>
    <use x="2126.386719" xlink:href="#DejaVuSans-74"/>
    <use x="2165.595703" xlink:href="#DejaVuSans-61"/>
    <use x="2226.875" xlink:href="#DejaVuSans-72"/>
    <use x="2267.988281" xlink:href="#DejaVuSans-74"/>
    <use x="2307.197266" xlink:href="#DejaVuSans-20"/>
    <use x="2338.984375" xlink:href="#DejaVuSans-6c"/>
    <use x="2366.767578" xlink:href="#DejaVuSans-6f"/>
    <use x="2427.949219" xlink:href="#DejaVuSans-63"/>
    <use x="2482.929688" xlink:href="#DejaVuSans-61"/>
    <use x="2544.208984" xlink:href="#DejaVuSans-74"/>
    <use x="2583.417969" xlink:href="#DejaVuSans-69"/>
    <use x="2611.201172" xlink:href="#DejaVuSans-6f"/>
    <use x="2672.382812" xlink:href="#DejaVuSans-6e"/>
    <use x="2735.761719" xlink:href="#DejaVuSans-20"/>
    <use x="2767.548828" xlink:href="#DejaVuSans-6f"/>
    <use x="2828.730469" xlink:href="#DejaVuSans-66"/>
    <use x="2863.935547" xlink:href="#DejaVuSans-20"/>
    <use x="2895.722656" xlink:href="#DejaVuSans-70"/>
    <use x="2959.199219" xlink:href="#DejaVuSans-65"/>
    <use x="3020.722656" xlink:href="#DejaVuSans-70"/>
    <use x="3084.199219" xlink:href="#DejaVuSans-74"/>
    <use x="3123.408203" xlink:href="#DejaVuSans-69"/>
    <use x="3151.191406" xlink:href="#DejaVuSans-64"/>
    <use x="3214.667969" xlink:href="#DejaVuSans-65"/>
    <use x="3276.191406" xlink:href="#DejaVuSans-20"/>
    <use x="3307.978516" xlink:href="#DejaVuSans-69"/>
    <use x="3335.761719" xlink:href="#DejaVuSans-6e"/>
    <use x="3399.140625" xlink:href="#DejaVuSans-20"/>
    <use x="3430.927734" xlink:href="#DejaVuSans-4d"/>
    <use x="3517.207031" xlink:href="#DejaVuSans-4f"/>
    <use x="3595.917969" xlink:href="#DejaVuSans-47"/>
   </g>
  </g>
 </g>
 <defs>
  <clipPath id="p961d4620c3">
   <rect height="543.6" width="1116" x="84.711875" y="79.2"/>
  </clipPath>
 </defs>
</svg>
