<?xml version="1.0" encoding="utf-8" standalone="no"?>
<!DOCTYPE svg PUBLIC "-//W3C//DTD SVG 1.1//EN"
  "http://www.w3.org/Graphics/SVG/1.1/DTD/svg11.dtd">
<!-- Created with matplotlib (http://matplotlib.org/) -->
<svg height="1048.733583pt" version="1.1" viewBox="0 0 1785.865 1048.733583" width="1785.865pt" xmlns="http://www.w3.org/2000/svg" xmlns:xlink="http://www.w3.org/1999/xlink">
 <defs>
  <style type="text/css">
*{stroke-linecap:butt;stroke-linejoin:round;}
  </style>
 </defs>
 <g id="figure_1">
  <g id="patch_1">
   <path d="M 0 1048.733583 
L 1785.865 1048.733583 
L 1785.865 0 
L 0 0 
z
" style="fill:#ffffff;"/>
  </g>
  <g id="axes_1">
   <g id="patch_2">
    <path d="M 94.665 861.915 
L 1768.665 861.915 
L 1768.665 46.515 
L 94.665 46.515 
z
" style="fill:#d3d3d3;"/>
   </g>
   <g id="patch_3">
    <path clip-path="url(#p400e1c474e)" d="M 108.615 861.915 
L 136.515 861.915 
L 136.515 809.128579 
L 108.615 809.128579 
z
" style="fill:#fde725;stroke:#000000;stroke-linejoin:miter;stroke-width:2;"/>
   </g>
   <g id="patch_4">
    <path clip-path="url(#p400e1c474e)" d="M 164.415 861.915 
L 192.315 861.915 
L 192.315 803.120368 
L 164.415 803.120368 
z
" style="fill:#eae51a;stroke:#000000;stroke-linejoin:miter;stroke-width:2;"/>
   </g>
   <g id="patch_5">
    <path clip-path="url(#p400e1c474e)" d="M 220.215 861.915 
L 248.115 861.915 
L 248.115 776.226474 
L 220.215 776.226474 
z
" style="fill:#d2e21b;stroke:#000000;stroke-linejoin:miter;stroke-width:2;"/>
   </g>
   <g id="patch_6">
    <path clip-path="url(#p400e1c474e)" d="M 276.015 861.915 
L 303.915 861.915 
L 303.915 770.075211 
L 276.015 770.075211 
z
" style="fill:#bade28;stroke:#000000;stroke-linejoin:miter;stroke-width:2;"/>
   </g>
   <g id="patch_7">
    <path clip-path="url(#p400e1c474e)" d="M 331.815 861.915 
L 359.715 861.915 
L 359.715 764.925316 
L 331.815 764.925316 
z
" style="fill:#a2da37;stroke:#000000;stroke-linejoin:miter;stroke-width:2;"/>
   </g>
   <g id="patch_8">
    <path clip-path="url(#p400e1c474e)" d="M 387.615 861.915 
L 415.515 861.915 
L 415.515 735.456474 
L 387.615 735.456474 
z
" style="fill:#8bd646;stroke:#000000;stroke-linejoin:miter;stroke-width:2;"/>
   </g>
   <g id="patch_9">
    <path clip-path="url(#p400e1c474e)" d="M 443.415 861.915 
L 471.315 861.915 
L 471.315 730.735737 
L 443.415 730.735737 
z
" style="fill:#77d153;stroke:#000000;stroke-linejoin:miter;stroke-width:2;"/>
   </g>
   <g id="patch_10">
    <path clip-path="url(#p400e1c474e)" d="M 499.215 861.915 
L 527.115 861.915 
L 527.115 710.422263 
L 499.215 710.422263 
z
" style="fill:#63cb5f;stroke:#000000;stroke-linejoin:miter;stroke-width:2;"/>
   </g>
   <g id="patch_11">
    <path clip-path="url(#p400e1c474e)" d="M 555.015 861.915 
L 582.915 861.915 
L 582.915 699.979421 
L 555.015 699.979421 
z
" style="fill:#50c46a;stroke:#000000;stroke-linejoin:miter;stroke-width:2;"/>
   </g>
   <g id="patch_12">
    <path clip-path="url(#p400e1c474e)" d="M 610.815 861.915 
L 638.715 861.915 
L 638.715 693.399 
L 610.815 693.399 
z
" style="fill:#3fbc73;stroke:#000000;stroke-linejoin:miter;stroke-width:2;"/>
   </g>
   <g id="patch_13">
    <path clip-path="url(#p400e1c474e)" d="M 666.615 861.915 
L 694.515 861.915 
L 694.515 688.821316 
L 666.615 688.821316 
z
" style="fill:#31b57b;stroke:#000000;stroke-linejoin:miter;stroke-width:2;"/>
   </g>
   <g id="patch_14">
    <path clip-path="url(#p400e1c474e)" d="M 722.415 861.915 
L 750.315 861.915 
L 750.315 672.084158 
L 722.415 672.084158 
z
" style="fill:#26ad81;stroke:#000000;stroke-linejoin:miter;stroke-width:2;"/>
   </g>
   <g id="patch_15">
    <path clip-path="url(#p400e1c474e)" d="M 778.215 861.915 
L 806.115 861.915 
L 806.115 662.356579 
L 778.215 662.356579 
z
" style="fill:#21a585;stroke:#000000;stroke-linejoin:miter;stroke-width:2;"/>
   </g>
   <g id="patch_16">
    <path clip-path="url(#p400e1c474e)" d="M 834.015 861.915 
L 861.915 861.915 
L 861.915 648.766579 
L 834.015 648.766579 
z
" style="fill:#1e9d89;stroke:#000000;stroke-linejoin:miter;stroke-width:2;"/>
   </g>
   <g id="patch_17">
    <path clip-path="url(#p400e1c474e)" d="M 889.815 861.915 
L 917.715 861.915 
L 917.715 634.032158 
L 889.815 634.032158 
z
" style="fill:#1f948c;stroke:#000000;stroke-linejoin:miter;stroke-width:2;"/>
   </g>
   <g id="patch_18">
    <path clip-path="url(#p400e1c474e)" d="M 945.615 861.915 
L 973.515 861.915 
L 973.515 632.315526 
L 945.615 632.315526 
z
" style="fill:#228c8d;stroke:#000000;stroke-linejoin:miter;stroke-width:2;"/>
   </g>
   <g id="patch_19">
    <path clip-path="url(#p400e1c474e)" d="M 1001.415 861.915 
L 1029.315 861.915 
L 1029.315 589.971947 
L 1001.415 589.971947 
z
" style="fill:#25838e;stroke:#000000;stroke-linejoin:miter;stroke-width:2;"/>
   </g>
   <g id="patch_20">
    <path clip-path="url(#p400e1c474e)" d="M 1057.215 861.915 
L 1085.115 861.915 
L 1085.115 559.501737 
L 1057.215 559.501737 
z
" style="fill:#297b8e;stroke:#000000;stroke-linejoin:miter;stroke-width:2;"/>
   </g>
   <g id="patch_21">
    <path clip-path="url(#p400e1c474e)" d="M 1113.015 861.915 
L 1140.915 861.915 
L 1140.915 546.483947 
L 1113.015 546.483947 
z
" style="fill:#2c738e;stroke:#000000;stroke-linejoin:miter;stroke-width:2;"/>
   </g>
   <g id="patch_22">
    <path clip-path="url(#p400e1c474e)" d="M 1168.815 861.915 
L 1196.715 861.915 
L 1196.715 537.614684 
L 1168.815 537.614684 
z
" style="fill:#2f6b8e;stroke:#000000;stroke-linejoin:miter;stroke-width:2;"/>
   </g>
   <g id="patch_23">
    <path clip-path="url(#p400e1c474e)" d="M 1224.615 861.915 
L 1252.515 861.915 
L 1252.515 531.320368 
L 1224.615 531.320368 
z
" style="fill:#33628d;stroke:#000000;stroke-linejoin:miter;stroke-width:2;"/>
   </g>
   <g id="patch_24">
    <path clip-path="url(#p400e1c474e)" d="M 1280.415 861.915 
L 1308.315 861.915 
L 1308.315 525.026053 
L 1280.415 525.026053 
z
" style="fill:#38598c;stroke:#000000;stroke-linejoin:miter;stroke-width:2;"/>
   </g>
   <g id="patch_25">
    <path clip-path="url(#p400e1c474e)" d="M 1336.215 861.915 
L 1364.115 861.915 
L 1364.115 518.016474 
L 1336.215 518.016474 
z
" style="fill:#3c4f8a;stroke:#000000;stroke-linejoin:miter;stroke-width:2;"/>
   </g>
   <g id="patch_26">
    <path clip-path="url(#p400e1c474e)" d="M 1392.015 861.915 
L 1419.915 861.915 
L 1419.915 517.301211 
L 1392.015 517.301211 
z
" style="fill:#404588;stroke:#000000;stroke-linejoin:miter;stroke-width:2;"/>
   </g>
   <g id="patch_27">
    <path clip-path="url(#p400e1c474e)" d="M 1447.815 861.915 
L 1475.715 861.915 
L 1475.715 512.151316 
L 1447.815 512.151316 
z
" style="fill:#443b84;stroke:#000000;stroke-linejoin:miter;stroke-width:2;"/>
   </g>
   <g id="patch_28">
    <path clip-path="url(#p400e1c474e)" d="M 1503.615 861.915 
L 1531.515 861.915 
L 1531.515 511.436053 
L 1503.615 511.436053 
z
" style="fill:#46307e;stroke:#000000;stroke-linejoin:miter;stroke-width:2;"/>
   </g>
   <g id="patch_29">
    <path clip-path="url(#p400e1c474e)" d="M 1559.415 861.915 
L 1587.315 861.915 
L 1587.315 490.121211 
L 1559.415 490.121211 
z
" style="fill:#482576;stroke:#000000;stroke-linejoin:miter;stroke-width:2;"/>
   </g>
   <g id="patch_30">
    <path clip-path="url(#p400e1c474e)" d="M 1615.215 861.915 
L 1643.115 861.915 
L 1643.115 431.755737 
L 1615.215 431.755737 
z
" style="fill:#481a6c;stroke:#000000;stroke-linejoin:miter;stroke-width:2;"/>
   </g>
   <g id="patch_31">
    <path clip-path="url(#p400e1c474e)" d="M 1671.015 861.915 
L 1698.915 861.915 
L 1698.915 361.087737 
L 1671.015 361.087737 
z
" style="fill:#470d60;stroke:#000000;stroke-linejoin:miter;stroke-width:2;"/>
   </g>
   <g id="patch_32">
    <path clip-path="url(#p400e1c474e)" d="M 1726.815 861.915 
L 1754.715 861.915 
L 1754.715 332.620263 
L 1726.815 332.620263 
z
" style="fill:#440154;stroke:#000000;stroke-linejoin:miter;stroke-width:2;"/>
   </g>
   <g id="matplotlib.axis_1">
    <g id="xtick_1">
     <g id="line2d_1">
      <defs>
       <path d="M 0 0 
L 0 10 
" id="mf91d32ea69" style="stroke:#000000;stroke-width:4;"/>
      </defs>
      <g>
       <use style="stroke:#000000;stroke-width:4;" x="122.565" xlink:href="#mf91d32ea69" y="861.915"/>
      </g>
     </g>
     <g id="text_1">
      <!-- HLA-B*18:01 -->
      <defs>
       <path d="M 9.8125 72.90625 
L 19.671875 72.90625 
L 19.671875 43.015625 
L 55.515625 43.015625 
L 55.515625 72.90625 
L 65.375 72.90625 
L 65.375 0 
L 55.515625 0 
L 55.515625 34.71875 
L 19.671875 34.71875 
L 19.671875 0 
L 9.8125 0 
z
" id="DejaVuSans-48"/>
       <path d="M 9.8125 72.90625 
L 19.671875 72.90625 
L 19.671875 8.296875 
L 55.171875 8.296875 
L 55.171875 0 
L 9.8125 0 
z
" id="DejaVuSans-4c"/>
       <path d="M 34.1875 63.1875 
L 20.796875 26.90625 
L 47.609375 26.90625 
z
M 28.609375 72.90625 
L 39.796875 72.90625 
L 67.578125 0 
L 57.328125 0 
L 50.6875 18.703125 
L 17.828125 18.703125 
L 11.1875 0 
L 0.78125 0 
z
" id="DejaVuSans-41"/>
       <path d="M 4.890625 31.390625 
L 31.203125 31.390625 
L 31.203125 23.390625 
L 4.890625 23.390625 
z
" id="DejaVuSans-2d"/>
       <path d="M 19.671875 34.8125 
L 19.671875 8.109375 
L 35.5 8.109375 
Q 43.453125 8.109375 47.28125 11.40625 
Q 51.125 14.703125 51.125 21.484375 
Q 51.125 28.328125 47.28125 31.5625 
Q 43.453125 34.8125 35.5 34.8125 
z
M 19.671875 64.796875 
L 19.671875 42.828125 
L 34.28125 42.828125 
Q 41.5 42.828125 45.03125 45.53125 
Q 48.578125 48.25 48.578125 53.8125 
Q 48.578125 59.328125 45.03125 62.0625 
Q 41.5 64.796875 34.28125 64.796875 
z
M 9.8125 72.90625 
L 35.015625 72.90625 
Q 46.296875 72.90625 52.390625 68.21875 
Q 58.5 63.53125 58.5 54.890625 
Q 58.5 48.1875 55.375 44.234375 
Q 52.25 40.28125 46.1875 39.3125 
Q 53.46875 37.75 57.5 32.78125 
Q 61.53125 27.828125 61.53125 20.40625 
Q 61.53125 10.640625 54.890625 5.3125 
Q 48.25 0 35.984375 0 
L 9.8125 0 
z
" id="DejaVuSans-42"/>
       <path d="M 47.015625 60.890625 
L 29.5 51.421875 
L 47.015625 41.890625 
L 44.1875 37.109375 
L 27.78125 47.015625 
L 27.78125 28.609375 
L 22.21875 28.609375 
L 22.21875 47.015625 
L 5.8125 37.109375 
L 2.984375 41.890625 
L 20.515625 51.421875 
L 2.984375 60.890625 
L 5.8125 65.71875 
L 22.21875 55.8125 
L 22.21875 74.21875 
L 27.78125 74.21875 
L 27.78125 55.8125 
L 44.1875 65.71875 
z
" id="DejaVuSans-2a"/>
       <path d="M 12.40625 8.296875 
L 28.515625 8.296875 
L 28.515625 63.921875 
L 10.984375 60.40625 
L 10.984375 69.390625 
L 28.421875 72.90625 
L 38.28125 72.90625 
L 38.28125 8.296875 
L 54.390625 8.296875 
L 54.390625 0 
L 12.40625 0 
z
" id="DejaVuSans-31"/>
       <path d="M 31.78125 34.625 
Q 24.75 34.625 20.71875 30.859375 
Q 16.703125 27.09375 16.703125 20.515625 
Q 16.703125 13.921875 20.71875 10.15625 
Q 24.75 6.390625 31.78125 6.390625 
Q 38.8125 6.390625 42.859375 10.171875 
Q 46.921875 13.96875 46.921875 20.515625 
Q 46.921875 27.09375 42.890625 30.859375 
Q 38.875 34.625 31.78125 34.625 
z
M 21.921875 38.8125 
Q 15.578125 40.375 12.03125 44.71875 
Q 8.5 49.078125 8.5 55.328125 
Q 8.5 64.0625 14.71875 69.140625 
Q 20.953125 74.21875 31.78125 74.21875 
Q 42.671875 74.21875 48.875 69.140625 
Q 55.078125 64.0625 55.078125 55.328125 
Q 55.078125 49.078125 51.53125 44.71875 
Q 48 40.375 41.703125 38.8125 
Q 48.828125 37.15625 52.796875 32.3125 
Q 56.78125 27.484375 56.78125 20.515625 
Q 56.78125 9.90625 50.3125 4.234375 
Q 43.84375 -1.421875 31.78125 -1.421875 
Q 19.734375 -1.421875 13.25 4.234375 
Q 6.78125 9.90625 6.78125 20.515625 
Q 6.78125 27.484375 10.78125 32.3125 
Q 14.796875 37.15625 21.921875 38.8125 
z
M 18.3125 54.390625 
Q 18.3125 48.734375 21.84375 45.5625 
Q 25.390625 42.390625 31.78125 42.390625 
Q 38.140625 42.390625 41.71875 45.5625 
Q 45.3125 48.734375 45.3125 54.390625 
Q 45.3125 60.0625 41.71875 63.234375 
Q 38.140625 66.40625 31.78125 66.40625 
Q 25.390625 66.40625 21.84375 63.234375 
Q 18.3125 60.0625 18.3125 54.390625 
z
" id="DejaVuSans-38"/>
       <path d="M 11.71875 12.40625 
L 22.015625 12.40625 
L 22.015625 0 
L 11.71875 0 
z
M 11.71875 51.703125 
L 22.015625 51.703125 
L 22.015625 39.3125 
L 11.71875 39.3125 
z
" id="DejaVuSans-3a"/>
       <path d="M 31.78125 66.40625 
Q 24.171875 66.40625 20.328125 58.90625 
Q 16.5 51.421875 16.5 36.375 
Q 16.5 21.390625 20.328125 13.890625 
Q 24.171875 6.390625 31.78125 6.390625 
Q 39.453125 6.390625 43.28125 13.890625 
Q 47.125 21.390625 47.125 36.375 
Q 47.125 51.421875 43.28125 58.90625 
Q 39.453125 66.40625 31.78125 66.40625 
z
M 31.78125 74.21875 
Q 44.046875 74.21875 50.515625 64.515625 
Q 56.984375 54.828125 56.984375 36.375 
Q 56.984375 17.96875 50.515625 8.265625 
Q 44.046875 -1.421875 31.78125 -1.421875 
Q 19.53125 -1.421875 13.0625 8.265625 
Q 6.59375 17.96875 6.59375 36.375 
Q 6.59375 54.828125 13.0625 64.515625 
Q 19.53125 74.21875 31.78125 74.21875 
z
" id="DejaVuSans-30"/>
      </defs>
      <g transform="translate(19.433697 987.131463)rotate(-45)scale(0.22 -0.22)">
       <use xlink:href="#DejaVuSans-48"/>
       <use x="75.195312" xlink:href="#DejaVuSans-4c"/>
       <use x="130.939453" xlink:href="#DejaVuSans-41"/>
       <use x="199.316406" xlink:href="#DejaVuSans-2d"/>
       <use x="235.353516" xlink:href="#DejaVuSans-42"/>
       <use x="303.957031" xlink:href="#DejaVuSans-2a"/>
       <use x="353.957031" xlink:href="#DejaVuSans-31"/>
       <use x="417.580078" xlink:href="#DejaVuSans-38"/>
       <use x="481.203125" xlink:href="#DejaVuSans-3a"/>
       <use x="514.894531" xlink:href="#DejaVuSans-30"/>
       <use x="578.517578" xlink:href="#DejaVuSans-31"/>
      </g>
     </g>
    </g>
    <g id="xtick_2">
     <g id="line2d_2">
      <g>
       <use style="stroke:#000000;stroke-width:4;" x="178.365" xlink:href="#mf91d32ea69" y="861.915"/>
      </g>
     </g>
     <g id="text_2">
      <!-- HLA-A*26:01 -->
      <defs>
       <path d="M 19.1875 8.296875 
L 53.609375 8.296875 
L 53.609375 0 
L 7.328125 0 
L 7.328125 8.296875 
Q 12.9375 14.109375 22.625 23.890625 
Q 32.328125 33.6875 34.8125 36.53125 
Q 39.546875 41.84375 41.421875 45.53125 
Q 43.3125 49.21875 43.3125 52.78125 
Q 43.3125 58.59375 39.234375 62.25 
Q 35.15625 65.921875 28.609375 65.921875 
Q 23.96875 65.921875 18.8125 64.3125 
Q 13.671875 62.703125 7.8125 59.421875 
L 7.8125 69.390625 
Q 13.765625 71.78125 18.9375 73 
Q 24.125 74.21875 28.421875 74.21875 
Q 39.75 74.21875 46.484375 68.546875 
Q 53.21875 62.890625 53.21875 53.421875 
Q 53.21875 48.921875 51.53125 44.890625 
Q 49.859375 40.875 45.40625 35.40625 
Q 44.1875 33.984375 37.640625 27.21875 
Q 31.109375 20.453125 19.1875 8.296875 
z
" id="DejaVuSans-32"/>
       <path d="M 33.015625 40.375 
Q 26.375 40.375 22.484375 35.828125 
Q 18.609375 31.296875 18.609375 23.390625 
Q 18.609375 15.53125 22.484375 10.953125 
Q 26.375 6.390625 33.015625 6.390625 
Q 39.65625 6.390625 43.53125 10.953125 
Q 47.40625 15.53125 47.40625 23.390625 
Q 47.40625 31.296875 43.53125 35.828125 
Q 39.65625 40.375 33.015625 40.375 
z
M 52.59375 71.296875 
L 52.59375 62.3125 
Q 48.875 64.0625 45.09375 64.984375 
Q 41.3125 65.921875 37.59375 65.921875 
Q 27.828125 65.921875 22.671875 59.328125 
Q 17.53125 52.734375 16.796875 39.40625 
Q 19.671875 43.65625 24.015625 45.921875 
Q 28.375 48.1875 33.59375 48.1875 
Q 44.578125 48.1875 50.953125 41.515625 
Q 57.328125 34.859375 57.328125 23.390625 
Q 57.328125 12.15625 50.6875 5.359375 
Q 44.046875 -1.421875 33.015625 -1.421875 
Q 20.359375 -1.421875 13.671875 8.265625 
Q 6.984375 17.96875 6.984375 36.375 
Q 6.984375 53.65625 15.1875 63.9375 
Q 23.390625 74.21875 37.203125 74.21875 
Q 40.921875 74.21875 44.703125 73.484375 
Q 48.484375 72.75 52.59375 71.296875 
z
" id="DejaVuSans-36"/>
      </defs>
      <g transform="translate(75.262865 987.102295)rotate(-45)scale(0.22 -0.22)">
       <use xlink:href="#DejaVuSans-48"/>
       <use x="75.195312" xlink:href="#DejaVuSans-4c"/>
       <use x="130.939453" xlink:href="#DejaVuSans-41"/>
       <use x="199.316406" xlink:href="#DejaVuSans-2d"/>
       <use x="235.369141" xlink:href="#DejaVuSans-41"/>
       <use x="303.777344" xlink:href="#DejaVuSans-2a"/>
       <use x="353.777344" xlink:href="#DejaVuSans-32"/>
       <use x="417.400391" xlink:href="#DejaVuSans-36"/>
       <use x="481.023438" xlink:href="#DejaVuSans-3a"/>
       <use x="514.714844" xlink:href="#DejaVuSans-30"/>
       <use x="578.337891" xlink:href="#DejaVuSans-31"/>
      </g>
     </g>
    </g>
    <g id="xtick_3">
     <g id="line2d_3">
      <g>
       <use style="stroke:#000000;stroke-width:4;" x="234.165" xlink:href="#mf91d32ea69" y="861.915"/>
      </g>
     </g>
     <g id="text_3">
      <!-- HLA-A*02:01 -->
      <g transform="translate(131.062865 987.102295)rotate(-45)scale(0.22 -0.22)">
       <use xlink:href="#DejaVuSans-48"/>
       <use x="75.195312" xlink:href="#DejaVuSans-4c"/>
       <use x="130.939453" xlink:href="#DejaVuSans-41"/>
       <use x="199.316406" xlink:href="#DejaVuSans-2d"/>
       <use x="235.369141" xlink:href="#DejaVuSans-41"/>
       <use x="303.777344" xlink:href="#DejaVuSans-2a"/>
       <use x="353.777344" xlink:href="#DejaVuSans-30"/>
       <use x="417.400391" xlink:href="#DejaVuSans-32"/>
       <use x="481.023438" xlink:href="#DejaVuSans-3a"/>
       <use x="514.714844" xlink:href="#DejaVuSans-30"/>
       <use x="578.337891" xlink:href="#DejaVuSans-31"/>
      </g>
     </g>
    </g>
    <g id="xtick_4">
     <g id="line2d_4">
      <g>
       <use style="stroke:#000000;stroke-width:4;" x="289.965" xlink:href="#mf91d32ea69" y="861.915"/>
      </g>
     </g>
     <g id="text_4">
      <!-- HLA-A*02:01 -->
      <g transform="translate(186.862865 987.102295)rotate(-45)scale(0.22 -0.22)">
       <use xlink:href="#DejaVuSans-48"/>
       <use x="75.195312" xlink:href="#DejaVuSans-4c"/>
       <use x="130.939453" xlink:href="#DejaVuSans-41"/>
       <use x="199.316406" xlink:href="#DejaVuSans-2d"/>
       <use x="235.369141" xlink:href="#DejaVuSans-41"/>
       <use x="303.777344" xlink:href="#DejaVuSans-2a"/>
       <use x="353.777344" xlink:href="#DejaVuSans-30"/>
       <use x="417.400391" xlink:href="#DejaVuSans-32"/>
       <use x="481.023438" xlink:href="#DejaVuSans-3a"/>
       <use x="514.714844" xlink:href="#DejaVuSans-30"/>
       <use x="578.337891" xlink:href="#DejaVuSans-31"/>
      </g>
     </g>
    </g>
    <g id="xtick_5">
     <g id="line2d_5">
      <g>
       <use style="stroke:#000000;stroke-width:4;" x="345.765" xlink:href="#mf91d32ea69" y="861.915"/>
      </g>
     </g>
     <g id="text_5">
      <!-- HLA-A*24:02 -->
      <defs>
       <path d="M 37.796875 64.3125 
L 12.890625 25.390625 
L 37.796875 25.390625 
z
M 35.203125 72.90625 
L 47.609375 72.90625 
L 47.609375 25.390625 
L 58.015625 25.390625 
L 58.015625 17.1875 
L 47.609375 17.1875 
L 47.609375 0 
L 37.796875 0 
L 37.796875 17.1875 
L 4.890625 17.1875 
L 4.890625 26.703125 
z
" id="DejaVuSans-34"/>
      </defs>
      <g transform="translate(242.662865 987.102295)rotate(-45)scale(0.22 -0.22)">
       <use xlink:href="#DejaVuSans-48"/>
       <use x="75.195312" xlink:href="#DejaVuSans-4c"/>
       <use x="130.939453" xlink:href="#DejaVuSans-41"/>
       <use x="199.316406" xlink:href="#DejaVuSans-2d"/>
       <use x="235.369141" xlink:href="#DejaVuSans-41"/>
       <use x="303.777344" xlink:href="#DejaVuSans-2a"/>
       <use x="353.777344" xlink:href="#DejaVuSans-32"/>
       <use x="417.400391" xlink:href="#DejaVuSans-34"/>
       <use x="481.023438" xlink:href="#DejaVuSans-3a"/>
       <use x="514.714844" xlink:href="#DejaVuSans-30"/>
       <use x="578.337891" xlink:href="#DejaVuSans-32"/>
      </g>
     </g>
    </g>
    <g id="xtick_6">
     <g id="line2d_6">
      <g>
       <use style="stroke:#000000;stroke-width:4;" x="401.565" xlink:href="#mf91d32ea69" y="861.915"/>
      </g>
     </g>
     <g id="text_6">
      <!-- HLA-A*02:01 -->
      <g transform="translate(298.462865 987.102295)rotate(-45)scale(0.22 -0.22)">
       <use xlink:href="#DejaVuSans-48"/>
       <use x="75.195312" xlink:href="#DejaVuSans-4c"/>
       <use x="130.939453" xlink:href="#DejaVuSans-41"/>
       <use x="199.316406" xlink:href="#DejaVuSans-2d"/>
       <use x="235.369141" xlink:href="#DejaVuSans-41"/>
       <use x="303.777344" xlink:href="#DejaVuSans-2a"/>
       <use x="353.777344" xlink:href="#DejaVuSans-30"/>
       <use x="417.400391" xlink:href="#DejaVuSans-32"/>
       <use x="481.023438" xlink:href="#DejaVuSans-3a"/>
       <use x="514.714844" xlink:href="#DejaVuSans-30"/>
       <use x="578.337891" xlink:href="#DejaVuSans-31"/>
      </g>
     </g>
    </g>
    <g id="xtick_7">
     <g id="line2d_7">
      <g>
       <use style="stroke:#000000;stroke-width:4;" x="457.365" xlink:href="#mf91d32ea69" y="861.915"/>
      </g>
     </g>
     <g id="text_7">
      <!-- HLA-A*02:01 -->
      <g transform="translate(354.262865 987.102295)rotate(-45)scale(0.22 -0.22)">
       <use xlink:href="#DejaVuSans-48"/>
       <use x="75.195312" xlink:href="#DejaVuSans-4c"/>
       <use x="130.939453" xlink:href="#DejaVuSans-41"/>
       <use x="199.316406" xlink:href="#DejaVuSans-2d"/>
       <use x="235.369141" xlink:href="#DejaVuSans-41"/>
       <use x="303.777344" xlink:href="#DejaVuSans-2a"/>
       <use x="353.777344" xlink:href="#DejaVuSans-30"/>
       <use x="417.400391" xlink:href="#DejaVuSans-32"/>
       <use x="481.023438" xlink:href="#DejaVuSans-3a"/>
       <use x="514.714844" xlink:href="#DejaVuSans-30"/>
       <use x="578.337891" xlink:href="#DejaVuSans-31"/>
      </g>
     </g>
    </g>
    <g id="xtick_8">
     <g id="line2d_8">
      <g>
       <use style="stroke:#000000;stroke-width:4;" x="513.165" xlink:href="#mf91d32ea69" y="861.915"/>
      </g>
     </g>
     <g id="text_8">
      <!-- HLA-A*02:01 -->
      <g transform="translate(410.062865 987.102295)rotate(-45)scale(0.22 -0.22)">
       <use xlink:href="#DejaVuSans-48"/>
       <use x="75.195312" xlink:href="#DejaVuSans-4c"/>
       <use x="130.939453" xlink:href="#DejaVuSans-41"/>
       <use x="199.316406" xlink:href="#DejaVuSans-2d"/>
       <use x="235.369141" xlink:href="#DejaVuSans-41"/>
       <use x="303.777344" xlink:href="#DejaVuSans-2a"/>
       <use x="353.777344" xlink:href="#DejaVuSans-30"/>
       <use x="417.400391" xlink:href="#DejaVuSans-32"/>
       <use x="481.023438" xlink:href="#DejaVuSans-3a"/>
       <use x="514.714844" xlink:href="#DejaVuSans-30"/>
       <use x="578.337891" xlink:href="#DejaVuSans-31"/>
      </g>
     </g>
    </g>
    <g id="xtick_9">
     <g id="line2d_9">
      <g>
       <use style="stroke:#000000;stroke-width:4;" x="568.965" xlink:href="#mf91d32ea69" y="861.915"/>
      </g>
     </g>
     <g id="text_9">
      <!-- HLA-B*18:01 -->
      <g transform="translate(465.833697 987.131463)rotate(-45)scale(0.22 -0.22)">
       <use xlink:href="#DejaVuSans-48"/>
       <use x="75.195312" xlink:href="#DejaVuSans-4c"/>
       <use x="130.939453" xlink:href="#DejaVuSans-41"/>
       <use x="199.316406" xlink:href="#DejaVuSans-2d"/>
       <use x="235.353516" xlink:href="#DejaVuSans-42"/>
       <use x="303.957031" xlink:href="#DejaVuSans-2a"/>
       <use x="353.957031" xlink:href="#DejaVuSans-31"/>
       <use x="417.580078" xlink:href="#DejaVuSans-38"/>
       <use x="481.203125" xlink:href="#DejaVuSans-3a"/>
       <use x="514.894531" xlink:href="#DejaVuSans-30"/>
       <use x="578.517578" xlink:href="#DejaVuSans-31"/>
      </g>
     </g>
    </g>
    <g id="xtick_10">
     <g id="line2d_10">
      <g>
       <use style="stroke:#000000;stroke-width:4;" x="624.765" xlink:href="#mf91d32ea69" y="861.915"/>
      </g>
     </g>
     <g id="text_10">
      <!-- HLA-A*02:01 -->
      <g transform="translate(521.662865 987.102295)rotate(-45)scale(0.22 -0.22)">
       <use xlink:href="#DejaVuSans-48"/>
       <use x="75.195312" xlink:href="#DejaVuSans-4c"/>
       <use x="130.939453" xlink:href="#DejaVuSans-41"/>
       <use x="199.316406" xlink:href="#DejaVuSans-2d"/>
       <use x="235.369141" xlink:href="#DejaVuSans-41"/>
       <use x="303.777344" xlink:href="#DejaVuSans-2a"/>
       <use x="353.777344" xlink:href="#DejaVuSans-30"/>
       <use x="417.400391" xlink:href="#DejaVuSans-32"/>
       <use x="481.023438" xlink:href="#DejaVuSans-3a"/>
       <use x="514.714844" xlink:href="#DejaVuSans-30"/>
       <use x="578.337891" xlink:href="#DejaVuSans-31"/>
      </g>
     </g>
    </g>
    <g id="xtick_11">
     <g id="line2d_11">
      <g>
       <use style="stroke:#000000;stroke-width:4;" x="680.565" xlink:href="#mf91d32ea69" y="861.915"/>
      </g>
     </g>
     <g id="text_11">
      <!-- HLA-A*02:01 -->
      <g transform="translate(577.462865 987.102295)rotate(-45)scale(0.22 -0.22)">
       <use xlink:href="#DejaVuSans-48"/>
       <use x="75.195312" xlink:href="#DejaVuSans-4c"/>
       <use x="130.939453" xlink:href="#DejaVuSans-41"/>
       <use x="199.316406" xlink:href="#DejaVuSans-2d"/>
       <use x="235.369141" xlink:href="#DejaVuSans-41"/>
       <use x="303.777344" xlink:href="#DejaVuSans-2a"/>
       <use x="353.777344" xlink:href="#DejaVuSans-30"/>
       <use x="417.400391" xlink:href="#DejaVuSans-32"/>
       <use x="481.023438" xlink:href="#DejaVuSans-3a"/>
       <use x="514.714844" xlink:href="#DejaVuSans-30"/>
       <use x="578.337891" xlink:href="#DejaVuSans-31"/>
      </g>
     </g>
    </g>
    <g id="xtick_12">
     <g id="line2d_12">
      <g>
       <use style="stroke:#000000;stroke-width:4;" x="736.365" xlink:href="#mf91d32ea69" y="861.915"/>
      </g>
     </g>
     <g id="text_12">
      <!-- HLA-A*02:01 -->
      <g transform="translate(633.262865 987.102295)rotate(-45)scale(0.22 -0.22)">
       <use xlink:href="#DejaVuSans-48"/>
       <use x="75.195312" xlink:href="#DejaVuSans-4c"/>
       <use x="130.939453" xlink:href="#DejaVuSans-41"/>
       <use x="199.316406" xlink:href="#DejaVuSans-2d"/>
       <use x="235.369141" xlink:href="#DejaVuSans-41"/>
       <use x="303.777344" xlink:href="#DejaVuSans-2a"/>
       <use x="353.777344" xlink:href="#DejaVuSans-30"/>
       <use x="417.400391" xlink:href="#DejaVuSans-32"/>
       <use x="481.023438" xlink:href="#DejaVuSans-3a"/>
       <use x="514.714844" xlink:href="#DejaVuSans-30"/>
       <use x="578.337891" xlink:href="#DejaVuSans-31"/>
      </g>
     </g>
    </g>
    <g id="xtick_13">
     <g id="line2d_13">
      <g>
       <use style="stroke:#000000;stroke-width:4;" x="792.165" xlink:href="#mf91d32ea69" y="861.915"/>
      </g>
     </g>
     <g id="text_13">
      <!-- HLA-C*12:03 -->
      <defs>
       <path d="M 64.40625 67.28125 
L 64.40625 56.890625 
Q 59.421875 61.53125 53.78125 63.8125 
Q 48.140625 66.109375 41.796875 66.109375 
Q 29.296875 66.109375 22.65625 58.46875 
Q 16.015625 50.828125 16.015625 36.375 
Q 16.015625 21.96875 22.65625 14.328125 
Q 29.296875 6.6875 41.796875 6.6875 
Q 48.140625 6.6875 53.78125 8.984375 
Q 59.421875 11.28125 64.40625 15.921875 
L 64.40625 5.609375 
Q 59.234375 2.09375 53.4375 0.328125 
Q 47.65625 -1.421875 41.21875 -1.421875 
Q 24.65625 -1.421875 15.125 8.703125 
Q 5.609375 18.84375 5.609375 36.375 
Q 5.609375 53.953125 15.125 64.078125 
Q 24.65625 74.21875 41.21875 74.21875 
Q 47.75 74.21875 53.53125 72.484375 
Q 59.328125 70.75 64.40625 67.28125 
z
" id="DejaVuSans-43"/>
       <path d="M 40.578125 39.3125 
Q 47.65625 37.796875 51.625 33 
Q 55.609375 28.21875 55.609375 21.1875 
Q 55.609375 10.40625 48.1875 4.484375 
Q 40.765625 -1.421875 27.09375 -1.421875 
Q 22.515625 -1.421875 17.65625 -0.515625 
Q 12.796875 0.390625 7.625 2.203125 
L 7.625 11.71875 
Q 11.71875 9.328125 16.59375 8.109375 
Q 21.484375 6.890625 26.8125 6.890625 
Q 36.078125 6.890625 40.9375 10.546875 
Q 45.796875 14.203125 45.796875 21.1875 
Q 45.796875 27.640625 41.28125 31.265625 
Q 36.765625 34.90625 28.71875 34.90625 
L 20.21875 34.90625 
L 20.21875 43.015625 
L 29.109375 43.015625 
Q 36.375 43.015625 40.234375 45.921875 
Q 44.09375 48.828125 44.09375 54.296875 
Q 44.09375 59.90625 40.109375 62.90625 
Q 36.140625 65.921875 28.71875 65.921875 
Q 24.65625 65.921875 20.015625 65.03125 
Q 15.375 64.15625 9.8125 62.3125 
L 9.8125 71.09375 
Q 15.4375 72.65625 20.34375 73.4375 
Q 25.25 74.21875 29.59375 74.21875 
Q 40.828125 74.21875 47.359375 69.109375 
Q 53.90625 64.015625 53.90625 55.328125 
Q 53.90625 49.265625 50.4375 45.09375 
Q 46.96875 40.921875 40.578125 39.3125 
z
" id="DejaVuSans-33"/>
      </defs>
      <g transform="translate(688.836812 987.328348)rotate(-45)scale(0.22 -0.22)">
       <use xlink:href="#DejaVuSans-48"/>
       <use x="75.195312" xlink:href="#DejaVuSans-4c"/>
       <use x="130.939453" xlink:href="#DejaVuSans-41"/>
       <use x="199.316406" xlink:href="#DejaVuSans-2d"/>
       <use x="235.400391" xlink:href="#DejaVuSans-43"/>
       <use x="305.224609" xlink:href="#DejaVuSans-2a"/>
       <use x="355.224609" xlink:href="#DejaVuSans-31"/>
       <use x="418.847656" xlink:href="#DejaVuSans-32"/>
       <use x="482.470703" xlink:href="#DejaVuSans-3a"/>
       <use x="516.162109" xlink:href="#DejaVuSans-30"/>
       <use x="579.785156" xlink:href="#DejaVuSans-33"/>
      </g>
     </g>
    </g>
    <g id="xtick_14">
     <g id="line2d_14">
      <g>
       <use style="stroke:#000000;stroke-width:4;" x="847.965" xlink:href="#mf91d32ea69" y="861.915"/>
      </g>
     </g>
     <g id="text_14">
      <!-- HLA-C*06:02 -->
      <g transform="translate(744.636812 987.328348)rotate(-45)scale(0.22 -0.22)">
       <use xlink:href="#DejaVuSans-48"/>
       <use x="75.195312" xlink:href="#DejaVuSans-4c"/>
       <use x="130.939453" xlink:href="#DejaVuSans-41"/>
       <use x="199.316406" xlink:href="#DejaVuSans-2d"/>
       <use x="235.400391" xlink:href="#DejaVuSans-43"/>
       <use x="305.224609" xlink:href="#DejaVuSans-2a"/>
       <use x="355.224609" xlink:href="#DejaVuSans-30"/>
       <use x="418.847656" xlink:href="#DejaVuSans-36"/>
       <use x="482.470703" xlink:href="#DejaVuSans-3a"/>
       <use x="516.162109" xlink:href="#DejaVuSans-30"/>
       <use x="579.785156" xlink:href="#DejaVuSans-32"/>
      </g>
     </g>
    </g>
    <g id="xtick_15">
     <g id="line2d_15">
      <g>
       <use style="stroke:#000000;stroke-width:4;" x="903.765" xlink:href="#mf91d32ea69" y="861.915"/>
      </g>
     </g>
     <g id="text_15">
      <!-- HLA-A*02:01 -->
      <g transform="translate(800.662865 987.102295)rotate(-45)scale(0.22 -0.22)">
       <use xlink:href="#DejaVuSans-48"/>
       <use x="75.195312" xlink:href="#DejaVuSans-4c"/>
       <use x="130.939453" xlink:href="#DejaVuSans-41"/>
       <use x="199.316406" xlink:href="#DejaVuSans-2d"/>
       <use x="235.369141" xlink:href="#DejaVuSans-41"/>
       <use x="303.777344" xlink:href="#DejaVuSans-2a"/>
       <use x="353.777344" xlink:href="#DejaVuSans-30"/>
       <use x="417.400391" xlink:href="#DejaVuSans-32"/>
       <use x="481.023438" xlink:href="#DejaVuSans-3a"/>
       <use x="514.714844" xlink:href="#DejaVuSans-30"/>
       <use x="578.337891" xlink:href="#DejaVuSans-31"/>
      </g>
     </g>
    </g>
    <g id="xtick_16">
     <g id="line2d_16">
      <g>
       <use style="stroke:#000000;stroke-width:4;" x="959.565" xlink:href="#mf91d32ea69" y="861.915"/>
      </g>
     </g>
     <g id="text_16">
      <!-- HLA-A*02:01 -->
      <g transform="translate(856.462865 987.102295)rotate(-45)scale(0.22 -0.22)">
       <use xlink:href="#DejaVuSans-48"/>
       <use x="75.195312" xlink:href="#DejaVuSans-4c"/>
       <use x="130.939453" xlink:href="#DejaVuSans-41"/>
       <use x="199.316406" xlink:href="#DejaVuSans-2d"/>
       <use x="235.369141" xlink:href="#DejaVuSans-41"/>
       <use x="303.777344" xlink:href="#DejaVuSans-2a"/>
       <use x="353.777344" xlink:href="#DejaVuSans-30"/>
       <use x="417.400391" xlink:href="#DejaVuSans-32"/>
       <use x="481.023438" xlink:href="#DejaVuSans-3a"/>
       <use x="514.714844" xlink:href="#DejaVuSans-30"/>
       <use x="578.337891" xlink:href="#DejaVuSans-31"/>
      </g>
     </g>
    </g>
    <g id="xtick_17">
     <g id="line2d_17">
      <g>
       <use style="stroke:#000000;stroke-width:4;" x="1015.365" xlink:href="#mf91d32ea69" y="861.915"/>
      </g>
     </g>
     <g id="text_17">
      <!-- HLA-C*12:03 -->
      <g transform="translate(912.036812 987.328348)rotate(-45)scale(0.22 -0.22)">
       <use xlink:href="#DejaVuSans-48"/>
       <use x="75.195312" xlink:href="#DejaVuSans-4c"/>
       <use x="130.939453" xlink:href="#DejaVuSans-41"/>
       <use x="199.316406" xlink:href="#DejaVuSans-2d"/>
       <use x="235.400391" xlink:href="#DejaVuSans-43"/>
       <use x="305.224609" xlink:href="#DejaVuSans-2a"/>
       <use x="355.224609" xlink:href="#DejaVuSans-31"/>
       <use x="418.847656" xlink:href="#DejaVuSans-32"/>
       <use x="482.470703" xlink:href="#DejaVuSans-3a"/>
       <use x="516.162109" xlink:href="#DejaVuSans-30"/>
       <use x="579.785156" xlink:href="#DejaVuSans-33"/>
      </g>
     </g>
    </g>
    <g id="xtick_18">
     <g id="line2d_18">
      <g>
       <use style="stroke:#000000;stroke-width:4;" x="1071.165" xlink:href="#mf91d32ea69" y="861.915"/>
      </g>
     </g>
     <g id="text_18">
      <!-- HLA-A*26:01 -->
      <g transform="translate(968.062865 987.102295)rotate(-45)scale(0.22 -0.22)">
       <use xlink:href="#DejaVuSans-48"/>
       <use x="75.195312" xlink:href="#DejaVuSans-4c"/>
       <use x="130.939453" xlink:href="#DejaVuSans-41"/>
       <use x="199.316406" xlink:href="#DejaVuSans-2d"/>
       <use x="235.369141" xlink:href="#DejaVuSans-41"/>
       <use x="303.777344" xlink:href="#DejaVuSans-2a"/>
       <use x="353.777344" xlink:href="#DejaVuSans-32"/>
       <use x="417.400391" xlink:href="#DejaVuSans-36"/>
       <use x="481.023438" xlink:href="#DejaVuSans-3a"/>
       <use x="514.714844" xlink:href="#DejaVuSans-30"/>
       <use x="578.337891" xlink:href="#DejaVuSans-31"/>
      </g>
     </g>
    </g>
    <g id="xtick_19">
     <g id="line2d_19">
      <g>
       <use style="stroke:#000000;stroke-width:4;" x="1126.965" xlink:href="#mf91d32ea69" y="861.915"/>
      </g>
     </g>
     <g id="text_19">
      <!-- HLA-A*01:01 -->
      <g transform="translate(1023.862865 987.102295)rotate(-45)scale(0.22 -0.22)">
       <use xlink:href="#DejaVuSans-48"/>
       <use x="75.195312" xlink:href="#DejaVuSans-4c"/>
       <use x="130.939453" xlink:href="#DejaVuSans-41"/>
       <use x="199.316406" xlink:href="#DejaVuSans-2d"/>
       <use x="235.369141" xlink:href="#DejaVuSans-41"/>
       <use x="303.777344" xlink:href="#DejaVuSans-2a"/>
       <use x="353.777344" xlink:href="#DejaVuSans-30"/>
       <use x="417.400391" xlink:href="#DejaVuSans-31"/>
       <use x="481.023438" xlink:href="#DejaVuSans-3a"/>
       <use x="514.714844" xlink:href="#DejaVuSans-30"/>
       <use x="578.337891" xlink:href="#DejaVuSans-31"/>
      </g>
     </g>
    </g>
    <g id="xtick_20">
     <g id="line2d_20">
      <g>
       <use style="stroke:#000000;stroke-width:4;" x="1182.765" xlink:href="#mf91d32ea69" y="861.915"/>
      </g>
     </g>
     <g id="text_20">
      <!-- HLA-B*18:01 -->
      <g transform="translate(1079.633697 987.131463)rotate(-45)scale(0.22 -0.22)">
       <use xlink:href="#DejaVuSans-48"/>
       <use x="75.195312" xlink:href="#DejaVuSans-4c"/>
       <use x="130.939453" xlink:href="#DejaVuSans-41"/>
       <use x="199.316406" xlink:href="#DejaVuSans-2d"/>
       <use x="235.353516" xlink:href="#DejaVuSans-42"/>
       <use x="303.957031" xlink:href="#DejaVuSans-2a"/>
       <use x="353.957031" xlink:href="#DejaVuSans-31"/>
       <use x="417.580078" xlink:href="#DejaVuSans-38"/>
       <use x="481.203125" xlink:href="#DejaVuSans-3a"/>
       <use x="514.894531" xlink:href="#DejaVuSans-30"/>
       <use x="578.517578" xlink:href="#DejaVuSans-31"/>
      </g>
     </g>
    </g>
    <g id="xtick_21">
     <g id="line2d_21">
      <g>
       <use style="stroke:#000000;stroke-width:4;" x="1238.565" xlink:href="#mf91d32ea69" y="861.915"/>
      </g>
     </g>
     <g id="text_21">
      <!-- HLA-A*26:01 -->
      <g transform="translate(1135.462865 987.102295)rotate(-45)scale(0.22 -0.22)">
       <use xlink:href="#DejaVuSans-48"/>
       <use x="75.195312" xlink:href="#DejaVuSans-4c"/>
       <use x="130.939453" xlink:href="#DejaVuSans-41"/>
       <use x="199.316406" xlink:href="#DejaVuSans-2d"/>
       <use x="235.369141" xlink:href="#DejaVuSans-41"/>
       <use x="303.777344" xlink:href="#DejaVuSans-2a"/>
       <use x="353.777344" xlink:href="#DejaVuSans-32"/>
       <use x="417.400391" xlink:href="#DejaVuSans-36"/>
       <use x="481.023438" xlink:href="#DejaVuSans-3a"/>
       <use x="514.714844" xlink:href="#DejaVuSans-30"/>
       <use x="578.337891" xlink:href="#DejaVuSans-31"/>
      </g>
     </g>
    </g>
    <g id="xtick_22">
     <g id="line2d_22">
      <g>
       <use style="stroke:#000000;stroke-width:4;" x="1294.365" xlink:href="#mf91d32ea69" y="861.915"/>
      </g>
     </g>
     <g id="text_22">
      <!-- HLA-C*12:03 -->
      <g transform="translate(1191.036812 987.328348)rotate(-45)scale(0.22 -0.22)">
       <use xlink:href="#DejaVuSans-48"/>
       <use x="75.195312" xlink:href="#DejaVuSans-4c"/>
       <use x="130.939453" xlink:href="#DejaVuSans-41"/>
       <use x="199.316406" xlink:href="#DejaVuSans-2d"/>
       <use x="235.400391" xlink:href="#DejaVuSans-43"/>
       <use x="305.224609" xlink:href="#DejaVuSans-2a"/>
       <use x="355.224609" xlink:href="#DejaVuSans-31"/>
       <use x="418.847656" xlink:href="#DejaVuSans-32"/>
       <use x="482.470703" xlink:href="#DejaVuSans-3a"/>
       <use x="516.162109" xlink:href="#DejaVuSans-30"/>
       <use x="579.785156" xlink:href="#DejaVuSans-33"/>
      </g>
     </g>
    </g>
    <g id="xtick_23">
     <g id="line2d_23">
      <g>
       <use style="stroke:#000000;stroke-width:4;" x="1350.165" xlink:href="#mf91d32ea69" y="861.915"/>
      </g>
     </g>
     <g id="text_23">
      <!-- HLA-A*02:01 -->
      <g transform="translate(1247.062865 987.102295)rotate(-45)scale(0.22 -0.22)">
       <use xlink:href="#DejaVuSans-48"/>
       <use x="75.195312" xlink:href="#DejaVuSans-4c"/>
       <use x="130.939453" xlink:href="#DejaVuSans-41"/>
       <use x="199.316406" xlink:href="#DejaVuSans-2d"/>
       <use x="235.369141" xlink:href="#DejaVuSans-41"/>
       <use x="303.777344" xlink:href="#DejaVuSans-2a"/>
       <use x="353.777344" xlink:href="#DejaVuSans-30"/>
       <use x="417.400391" xlink:href="#DejaVuSans-32"/>
       <use x="481.023438" xlink:href="#DejaVuSans-3a"/>
       <use x="514.714844" xlink:href="#DejaVuSans-30"/>
       <use x="578.337891" xlink:href="#DejaVuSans-31"/>
      </g>
     </g>
    </g>
    <g id="xtick_24">
     <g id="line2d_24">
      <g>
       <use style="stroke:#000000;stroke-width:4;" x="1405.965" xlink:href="#mf91d32ea69" y="861.915"/>
      </g>
     </g>
     <g id="text_24">
      <!-- HLA-A*02:01 -->
      <g transform="translate(1302.862865 987.102295)rotate(-45)scale(0.22 -0.22)">
       <use xlink:href="#DejaVuSans-48"/>
       <use x="75.195312" xlink:href="#DejaVuSans-4c"/>
       <use x="130.939453" xlink:href="#DejaVuSans-41"/>
       <use x="199.316406" xlink:href="#DejaVuSans-2d"/>
       <use x="235.369141" xlink:href="#DejaVuSans-41"/>
       <use x="303.777344" xlink:href="#DejaVuSans-2a"/>
       <use x="353.777344" xlink:href="#DejaVuSans-30"/>
       <use x="417.400391" xlink:href="#DejaVuSans-32"/>
       <use x="481.023438" xlink:href="#DejaVuSans-3a"/>
       <use x="514.714844" xlink:href="#DejaVuSans-30"/>
       <use x="578.337891" xlink:href="#DejaVuSans-31"/>
      </g>
     </g>
    </g>
    <g id="xtick_25">
     <g id="line2d_25">
      <g>
       <use style="stroke:#000000;stroke-width:4;" x="1461.765" xlink:href="#mf91d32ea69" y="861.915"/>
      </g>
     </g>
     <g id="text_25">
      <!-- HLA-A*02:01 -->
      <g transform="translate(1358.662865 987.102295)rotate(-45)scale(0.22 -0.22)">
       <use xlink:href="#DejaVuSans-48"/>
       <use x="75.195312" xlink:href="#DejaVuSans-4c"/>
       <use x="130.939453" xlink:href="#DejaVuSans-41"/>
       <use x="199.316406" xlink:href="#DejaVuSans-2d"/>
       <use x="235.369141" xlink:href="#DejaVuSans-41"/>
       <use x="303.777344" xlink:href="#DejaVuSans-2a"/>
       <use x="353.777344" xlink:href="#DejaVuSans-30"/>
       <use x="417.400391" xlink:href="#DejaVuSans-32"/>
       <use x="481.023438" xlink:href="#DejaVuSans-3a"/>
       <use x="514.714844" xlink:href="#DejaVuSans-30"/>
       <use x="578.337891" xlink:href="#DejaVuSans-31"/>
      </g>
     </g>
    </g>
    <g id="xtick_26">
     <g id="line2d_26">
      <g>
       <use style="stroke:#000000;stroke-width:4;" x="1517.565" xlink:href="#mf91d32ea69" y="861.915"/>
      </g>
     </g>
     <g id="text_26">
      <!-- HLA-B*18:01 -->
      <g transform="translate(1414.433697 987.131463)rotate(-45)scale(0.22 -0.22)">
       <use xlink:href="#DejaVuSans-48"/>
       <use x="75.195312" xlink:href="#DejaVuSans-4c"/>
       <use x="130.939453" xlink:href="#DejaVuSans-41"/>
       <use x="199.316406" xlink:href="#DejaVuSans-2d"/>
       <use x="235.353516" xlink:href="#DejaVuSans-42"/>
       <use x="303.957031" xlink:href="#DejaVuSans-2a"/>
       <use x="353.957031" xlink:href="#DejaVuSans-31"/>
       <use x="417.580078" xlink:href="#DejaVuSans-38"/>
       <use x="481.203125" xlink:href="#DejaVuSans-3a"/>
       <use x="514.894531" xlink:href="#DejaVuSans-30"/>
       <use x="578.517578" xlink:href="#DejaVuSans-31"/>
      </g>
     </g>
    </g>
    <g id="xtick_27">
     <g id="line2d_27">
      <g>
       <use style="stroke:#000000;stroke-width:4;" x="1573.365" xlink:href="#mf91d32ea69" y="861.915"/>
      </g>
     </g>
     <g id="text_27">
      <!-- HLA-C*12:03 -->
      <g transform="translate(1470.036812 987.328348)rotate(-45)scale(0.22 -0.22)">
       <use xlink:href="#DejaVuSans-48"/>
       <use x="75.195312" xlink:href="#DejaVuSans-4c"/>
       <use x="130.939453" xlink:href="#DejaVuSans-41"/>
       <use x="199.316406" xlink:href="#DejaVuSans-2d"/>
       <use x="235.400391" xlink:href="#DejaVuSans-43"/>
       <use x="305.224609" xlink:href="#DejaVuSans-2a"/>
       <use x="355.224609" xlink:href="#DejaVuSans-31"/>
       <use x="418.847656" xlink:href="#DejaVuSans-32"/>
       <use x="482.470703" xlink:href="#DejaVuSans-3a"/>
       <use x="516.162109" xlink:href="#DejaVuSans-30"/>
       <use x="579.785156" xlink:href="#DejaVuSans-33"/>
      </g>
     </g>
    </g>
    <g id="xtick_28">
     <g id="line2d_28">
      <g>
       <use style="stroke:#000000;stroke-width:4;" x="1629.165" xlink:href="#mf91d32ea69" y="861.915"/>
      </g>
     </g>
     <g id="text_28">
      <!-- HLA-A*02:01 -->
      <g transform="translate(1526.062865 987.102295)rotate(-45)scale(0.22 -0.22)">
       <use xlink:href="#DejaVuSans-48"/>
       <use x="75.195312" xlink:href="#DejaVuSans-4c"/>
       <use x="130.939453" xlink:href="#DejaVuSans-41"/>
       <use x="199.316406" xlink:href="#DejaVuSans-2d"/>
       <use x="235.369141" xlink:href="#DejaVuSans-41"/>
       <use x="303.777344" xlink:href="#DejaVuSans-2a"/>
       <use x="353.777344" xlink:href="#DejaVuSans-30"/>
       <use x="417.400391" xlink:href="#DejaVuSans-32"/>
       <use x="481.023438" xlink:href="#DejaVuSans-3a"/>
       <use x="514.714844" xlink:href="#DejaVuSans-30"/>
       <use x="578.337891" xlink:href="#DejaVuSans-31"/>
      </g>
     </g>
    </g>
    <g id="xtick_29">
     <g id="line2d_29">
      <g>
       <use style="stroke:#000000;stroke-width:4;" x="1684.965" xlink:href="#mf91d32ea69" y="861.915"/>
      </g>
     </g>
     <g id="text_29">
      <!-- HLA-C*12:03 -->
      <g transform="translate(1581.636812 987.328348)rotate(-45)scale(0.22 -0.22)">
       <use xlink:href="#DejaVuSans-48"/>
       <use x="75.195312" xlink:href="#DejaVuSans-4c"/>
       <use x="130.939453" xlink:href="#DejaVuSans-41"/>
       <use x="199.316406" xlink:href="#DejaVuSans-2d"/>
       <use x="235.400391" xlink:href="#DejaVuSans-43"/>
       <use x="305.224609" xlink:href="#DejaVuSans-2a"/>
       <use x="355.224609" xlink:href="#DejaVuSans-31"/>
       <use x="418.847656" xlink:href="#DejaVuSans-32"/>
       <use x="482.470703" xlink:href="#DejaVuSans-3a"/>
       <use x="516.162109" xlink:href="#DejaVuSans-30"/>
       <use x="579.785156" xlink:href="#DejaVuSans-33"/>
      </g>
     </g>
    </g>
    <g id="xtick_30">
     <g id="line2d_30">
      <g>
       <use style="stroke:#000000;stroke-width:4;" x="1740.765" xlink:href="#mf91d32ea69" y="861.915"/>
      </g>
     </g>
     <g id="text_30">
      <!-- HLA-A*02:01 -->
      <g transform="translate(1637.662865 987.102295)rotate(-45)scale(0.22 -0.22)">
       <use xlink:href="#DejaVuSans-48"/>
       <use x="75.195312" xlink:href="#DejaVuSans-4c"/>
       <use x="130.939453" xlink:href="#DejaVuSans-41"/>
       <use x="199.316406" xlink:href="#DejaVuSans-2d"/>
       <use x="235.369141" xlink:href="#DejaVuSans-41"/>
       <use x="303.777344" xlink:href="#DejaVuSans-2a"/>
       <use x="353.777344" xlink:href="#DejaVuSans-30"/>
       <use x="417.400391" xlink:href="#DejaVuSans-32"/>
       <use x="481.023438" xlink:href="#DejaVuSans-3a"/>
       <use x="514.714844" xlink:href="#DejaVuSans-30"/>
       <use x="578.337891" xlink:href="#DejaVuSans-31"/>
      </g>
     </g>
    </g>
    <g id="text_31">
     <!-- Haplotype -->
     <defs>
      <path d="M 34.28125 27.484375 
Q 23.390625 27.484375 19.1875 25 
Q 14.984375 22.515625 14.984375 16.5 
Q 14.984375 11.71875 18.140625 8.90625 
Q 21.296875 6.109375 26.703125 6.109375 
Q 34.1875 6.109375 38.703125 11.40625 
Q 43.21875 16.703125 43.21875 25.484375 
L 43.21875 27.484375 
z
M 52.203125 31.203125 
L 52.203125 0 
L 43.21875 0 
L 43.21875 8.296875 
Q 40.140625 3.328125 35.546875 0.953125 
Q 30.953125 -1.421875 24.3125 -1.421875 
Q 15.921875 -1.421875 10.953125 3.296875 
Q 6 8.015625 6 15.921875 
Q 6 25.140625 12.171875 29.828125 
Q 18.359375 34.515625 30.609375 34.515625 
L 43.21875 34.515625 
L 43.21875 35.40625 
Q 43.21875 41.609375 39.140625 45 
Q 35.0625 48.390625 27.6875 48.390625 
Q 23 48.390625 18.546875 47.265625 
Q 14.109375 46.140625 10.015625 43.890625 
L 10.015625 52.203125 
Q 14.9375 54.109375 19.578125 55.046875 
Q 24.21875 56 28.609375 56 
Q 40.484375 56 46.34375 49.84375 
Q 52.203125 43.703125 52.203125 31.203125 
z
" id="DejaVuSans-61"/>
      <path d="M 18.109375 8.203125 
L 18.109375 -20.796875 
L 9.078125 -20.796875 
L 9.078125 54.6875 
L 18.109375 54.6875 
L 18.109375 46.390625 
Q 20.953125 51.265625 25.265625 53.625 
Q 29.59375 56 35.59375 56 
Q 45.5625 56 51.78125 48.09375 
Q 58.015625 40.1875 58.015625 27.296875 
Q 58.015625 14.40625 51.78125 6.484375 
Q 45.5625 -1.421875 35.59375 -1.421875 
Q 29.59375 -1.421875 25.265625 0.953125 
Q 20.953125 3.328125 18.109375 8.203125 
z
M 48.6875 27.296875 
Q 48.6875 37.203125 44.609375 42.84375 
Q 40.53125 48.484375 33.40625 48.484375 
Q 26.265625 48.484375 22.1875 42.84375 
Q 18.109375 37.203125 18.109375 27.296875 
Q 18.109375 17.390625 22.1875 11.75 
Q 26.265625 6.109375 33.40625 6.109375 
Q 40.53125 6.109375 44.609375 11.75 
Q 48.6875 17.390625 48.6875 27.296875 
z
" id="DejaVuSans-70"/>
      <path d="M 9.421875 75.984375 
L 18.40625 75.984375 
L 18.40625 0 
L 9.421875 0 
z
" id="DejaVuSans-6c"/>
      <path d="M 30.609375 48.390625 
Q 23.390625 48.390625 19.1875 42.75 
Q 14.984375 37.109375 14.984375 27.296875 
Q 14.984375 17.484375 19.15625 11.84375 
Q 23.34375 6.203125 30.609375 6.203125 
Q 37.796875 6.203125 41.984375 11.859375 
Q 46.1875 17.53125 46.1875 27.296875 
Q 46.1875 37.015625 41.984375 42.703125 
Q 37.796875 48.390625 30.609375 48.390625 
z
M 30.609375 56 
Q 42.328125 56 49.015625 48.375 
Q 55.71875 40.765625 55.71875 27.296875 
Q 55.71875 13.875 49.015625 6.21875 
Q 42.328125 -1.421875 30.609375 -1.421875 
Q 18.84375 -1.421875 12.171875 6.21875 
Q 5.515625 13.875 5.515625 27.296875 
Q 5.515625 40.765625 12.171875 48.375 
Q 18.84375 56 30.609375 56 
z
" id="DejaVuSans-6f"/>
      <path d="M 18.3125 70.21875 
L 18.3125 54.6875 
L 36.8125 54.6875 
L 36.8125 47.703125 
L 18.3125 47.703125 
L 18.3125 18.015625 
Q 18.3125 11.328125 20.140625 9.421875 
Q 21.96875 7.515625 27.59375 7.515625 
L 36.8125 7.515625 
L 36.8125 0 
L 27.59375 0 
Q 17.1875 0 13.234375 3.875 
Q 9.28125 7.765625 9.28125 18.015625 
L 9.28125 47.703125 
L 2.6875 47.703125 
L 2.6875 54.6875 
L 9.28125 54.6875 
L 9.28125 70.21875 
z
" id="DejaVuSans-74"/>
      <path d="M 32.171875 -5.078125 
Q 28.375 -14.84375 24.75 -17.8125 
Q 21.140625 -20.796875 15.09375 -20.796875 
L 7.90625 -20.796875 
L 7.90625 -13.28125 
L 13.1875 -13.28125 
Q 16.890625 -13.28125 18.9375 -11.515625 
Q 21 -9.765625 23.484375 -3.21875 
L 25.09375 0.875 
L 2.984375 54.6875 
L 12.5 54.6875 
L 29.59375 11.921875 
L 46.6875 54.6875 
L 56.203125 54.6875 
z
" id="DejaVuSans-79"/>
      <path d="M 56.203125 29.59375 
L 56.203125 25.203125 
L 14.890625 25.203125 
Q 15.484375 15.921875 20.484375 11.0625 
Q 25.484375 6.203125 34.421875 6.203125 
Q 39.59375 6.203125 44.453125 7.46875 
Q 49.3125 8.734375 54.109375 11.28125 
L 54.109375 2.78125 
Q 49.265625 0.734375 44.1875 -0.34375 
Q 39.109375 -1.421875 33.890625 -1.421875 
Q 20.796875 -1.421875 13.15625 6.1875 
Q 5.515625 13.8125 5.515625 26.8125 
Q 5.515625 40.234375 12.765625 48.109375 
Q 20.015625 56 32.328125 56 
Q 43.359375 56 49.78125 48.890625 
Q 56.203125 41.796875 56.203125 29.59375 
z
M 47.21875 32.234375 
Q 47.125 39.59375 43.09375 43.984375 
Q 39.0625 48.390625 32.421875 48.390625 
Q 24.90625 48.390625 20.390625 44.140625 
Q 15.875 39.890625 15.1875 32.171875 
z
" id="DejaVuSans-65"/>
     </defs>
     <g transform="translate(849.69 1034.878583)scale(0.32 -0.32)">
      <use xlink:href="#DejaVuSans-48"/>
      <use x="75.195312" xlink:href="#DejaVuSans-61"/>
      <use x="136.474609" xlink:href="#DejaVuSans-70"/>
      <use x="199.951172" xlink:href="#DejaVuSans-6c"/>
      <use x="227.734375" xlink:href="#DejaVuSans-6f"/>
      <use x="288.916016" xlink:href="#DejaVuSans-74"/>
      <use x="328.125" xlink:href="#DejaVuSans-79"/>
      <use x="387.304688" xlink:href="#DejaVuSans-70"/>
      <use x="450.78125" xlink:href="#DejaVuSans-65"/>
     </g>
    </g>
   </g>
   <g id="matplotlib.axis_2">
    <g id="ytick_1">
     <g id="line2d_31">
      <defs>
       <path d="M 0 0 
L -10 0 
" id="m4f7652a884" style="stroke:#000000;stroke-width:4;"/>
      </defs>
      <g>
       <use style="stroke:#000000;stroke-width:4;" x="94.665" xlink:href="#m4f7652a884" y="861.915"/>
      </g>
     </g>
     <g id="text_32">
      <!-- 0 -->
      <g transform="translate(67.1675 870.273281)scale(0.22 -0.22)">
       <use xlink:href="#DejaVuSans-30"/>
      </g>
     </g>
    </g>
    <g id="ytick_2">
     <g id="line2d_32">
      <g>
       <use style="stroke:#000000;stroke-width:4;" x="94.665" xlink:href="#m4f7652a884" y="718.862368"/>
      </g>
     </g>
     <g id="text_33">
      <!-- 10 -->
      <g transform="translate(53.17 727.22065)scale(0.22 -0.22)">
       <use xlink:href="#DejaVuSans-31"/>
       <use x="63.623047" xlink:href="#DejaVuSans-30"/>
      </g>
     </g>
    </g>
    <g id="ytick_3">
     <g id="line2d_33">
      <g>
       <use style="stroke:#000000;stroke-width:4;" x="94.665" xlink:href="#m4f7652a884" y="575.809737"/>
      </g>
     </g>
     <g id="text_34">
      <!-- 20 -->
      <g transform="translate(53.17 584.168018)scale(0.22 -0.22)">
       <use xlink:href="#DejaVuSans-32"/>
       <use x="63.623047" xlink:href="#DejaVuSans-30"/>
      </g>
     </g>
    </g>
    <g id="ytick_4">
     <g id="line2d_34">
      <g>
       <use style="stroke:#000000;stroke-width:4;" x="94.665" xlink:href="#m4f7652a884" y="432.757105"/>
      </g>
     </g>
     <g id="text_35">
      <!-- 30 -->
      <g transform="translate(53.17 441.115387)scale(0.22 -0.22)">
       <use xlink:href="#DejaVuSans-33"/>
       <use x="63.623047" xlink:href="#DejaVuSans-30"/>
      </g>
     </g>
    </g>
    <g id="ytick_5">
     <g id="line2d_35">
      <g>
       <use style="stroke:#000000;stroke-width:4;" x="94.665" xlink:href="#m4f7652a884" y="289.704474"/>
      </g>
     </g>
     <g id="text_36">
      <!-- 40 -->
      <g transform="translate(53.17 298.062755)scale(0.22 -0.22)">
       <use xlink:href="#DejaVuSans-34"/>
       <use x="63.623047" xlink:href="#DejaVuSans-30"/>
      </g>
     </g>
    </g>
    <g id="ytick_6">
     <g id="line2d_36">
      <g>
       <use style="stroke:#000000;stroke-width:4;" x="94.665" xlink:href="#m4f7652a884" y="146.651842"/>
      </g>
     </g>
     <g id="text_37">
      <!-- 50 -->
      <defs>
       <path d="M 10.796875 72.90625 
L 49.515625 72.90625 
L 49.515625 64.59375 
L 19.828125 64.59375 
L 19.828125 46.734375 
Q 21.96875 47.46875 24.109375 47.828125 
Q 26.265625 48.1875 28.421875 48.1875 
Q 40.625 48.1875 47.75 41.5 
Q 54.890625 34.8125 54.890625 23.390625 
Q 54.890625 11.625 47.5625 5.09375 
Q 40.234375 -1.421875 26.90625 -1.421875 
Q 22.3125 -1.421875 17.546875 -0.640625 
Q 12.796875 0.140625 7.71875 1.703125 
L 7.71875 11.625 
Q 12.109375 9.234375 16.796875 8.0625 
Q 21.484375 6.890625 26.703125 6.890625 
Q 35.15625 6.890625 40.078125 11.328125 
Q 45.015625 15.765625 45.015625 23.390625 
Q 45.015625 31 40.078125 35.4375 
Q 35.15625 39.890625 26.703125 39.890625 
Q 22.75 39.890625 18.8125 39.015625 
Q 14.890625 38.140625 10.796875 36.28125 
z
" id="DejaVuSans-35"/>
      </defs>
      <g transform="translate(53.17 155.010123)scale(0.22 -0.22)">
       <use xlink:href="#DejaVuSans-35"/>
       <use x="63.623047" xlink:href="#DejaVuSans-30"/>
      </g>
     </g>
    </g>
    <g id="text_38">
     <!-- ic50 nM -->
     <defs>
      <path d="M 9.421875 54.6875 
L 18.40625 54.6875 
L 18.40625 0 
L 9.421875 0 
z
M 9.421875 75.984375 
L 18.40625 75.984375 
L 18.40625 64.59375 
L 9.421875 64.59375 
z
" id="DejaVuSans-69"/>
      <path d="M 48.78125 52.59375 
L 48.78125 44.1875 
Q 44.96875 46.296875 41.140625 47.34375 
Q 37.3125 48.390625 33.40625 48.390625 
Q 24.65625 48.390625 19.8125 42.84375 
Q 14.984375 37.3125 14.984375 27.296875 
Q 14.984375 17.28125 19.8125 11.734375 
Q 24.65625 6.203125 33.40625 6.203125 
Q 37.3125 6.203125 41.140625 7.25 
Q 44.96875 8.296875 48.78125 10.40625 
L 48.78125 2.09375 
Q 45.015625 0.34375 40.984375 -0.53125 
Q 36.96875 -1.421875 32.421875 -1.421875 
Q 20.0625 -1.421875 12.78125 6.34375 
Q 5.515625 14.109375 5.515625 27.296875 
Q 5.515625 40.671875 12.859375 48.328125 
Q 20.21875 56 33.015625 56 
Q 37.15625 56 41.109375 55.140625 
Q 45.0625 54.296875 48.78125 52.59375 
z
" id="DejaVuSans-63"/>
      <path id="DejaVuSans-20"/>
      <path d="M 54.890625 33.015625 
L 54.890625 0 
L 45.90625 0 
L 45.90625 32.71875 
Q 45.90625 40.484375 42.875 44.328125 
Q 39.84375 48.1875 33.796875 48.1875 
Q 26.515625 48.1875 22.3125 43.546875 
Q 18.109375 38.921875 18.109375 30.90625 
L 18.109375 0 
L 9.078125 0 
L 9.078125 54.6875 
L 18.109375 54.6875 
L 18.109375 46.1875 
Q 21.34375 51.125 25.703125 53.5625 
Q 30.078125 56 35.796875 56 
Q 45.21875 56 50.046875 50.171875 
Q 54.890625 44.34375 54.890625 33.015625 
z
" id="DejaVuSans-6e"/>
      <path d="M 9.8125 72.90625 
L 24.515625 72.90625 
L 43.109375 23.296875 
L 61.8125 72.90625 
L 76.515625 72.90625 
L 76.515625 0 
L 66.890625 0 
L 66.890625 64.015625 
L 48.09375 14.015625 
L 38.1875 14.015625 
L 19.390625 64.015625 
L 19.390625 0 
L 9.8125 0 
z
" id="DejaVuSans-4d"/>
     </defs>
     <g transform="translate(31.515 516.8475)rotate(-90)scale(0.32 -0.32)">
      <use xlink:href="#DejaVuSans-69"/>
      <use x="27.783203" xlink:href="#DejaVuSans-63"/>
      <use x="82.763672" xlink:href="#DejaVuSans-35"/>
      <use x="146.386719" xlink:href="#DejaVuSans-30"/>
      <use x="210.009766" xlink:href="#DejaVuSans-20"/>
      <use x="241.796875" xlink:href="#DejaVuSans-6e"/>
      <use x="305.175781" xlink:href="#DejaVuSans-4d"/>
     </g>
    </g>
   </g>
   <g id="patch_33">
    <path d="M 94.665 861.915 
L 94.665 46.515 
" style="fill:none;stroke:#000000;stroke-linecap:square;stroke-linejoin:miter;stroke-width:0.8;"/>
   </g>
   <g id="patch_34">
    <path d="M 1768.665 861.915 
L 1768.665 46.515 
" style="fill:none;stroke:#000000;stroke-linecap:square;stroke-linejoin:miter;stroke-width:0.8;"/>
   </g>
   <g id="patch_35">
    <path d="M 94.665 861.915 
L 1768.665 861.915 
" style="fill:none;stroke:#000000;stroke-linecap:square;stroke-linejoin:miter;stroke-width:0.8;"/>
   </g>
   <g id="patch_36">
    <path d="M 94.665 46.515 
L 1768.665 46.515 
" style="fill:none;stroke:#000000;stroke-linecap:square;stroke-linejoin:miter;stroke-width:0.8;"/>
   </g>
   <g id="text_39">
    <!-- DENPVVHFF -->
    <defs>
     <path d="M 27.984375 58.6875 
L 27.984375 14.203125 
L 34.71875 14.203125 
Q 46.234375 14.203125 52.3125 19.921875 
Q 58.40625 25.640625 58.40625 36.53125 
Q 58.40625 47.359375 52.34375 53.015625 
Q 46.296875 58.6875 34.71875 58.6875 
z
M 9.1875 72.90625 
L 29 72.90625 
Q 45.609375 72.90625 53.734375 70.53125 
Q 61.859375 68.171875 67.671875 62.5 
Q 72.796875 57.5625 75.28125 51.109375 
Q 77.78125 44.671875 77.78125 36.53125 
Q 77.78125 28.265625 75.28125 21.796875 
Q 72.796875 15.328125 67.671875 10.40625 
Q 61.8125 4.734375 53.609375 2.359375 
Q 45.40625 0 29 0 
L 9.1875 0 
z
" id="DejaVuSans-Bold-44"/>
     <path d="M 9.1875 72.90625 
L 59.90625 72.90625 
L 59.90625 58.6875 
L 27.984375 58.6875 
L 27.984375 45.125 
L 58.015625 45.125 
L 58.015625 30.90625 
L 27.984375 30.90625 
L 27.984375 14.203125 
L 60.984375 14.203125 
L 60.984375 0 
L 9.1875 0 
z
" id="DejaVuSans-Bold-45"/>
     <path d="M 9.1875 72.90625 
L 30.171875 72.90625 
L 56.6875 22.90625 
L 56.6875 72.90625 
L 74.515625 72.90625 
L 74.515625 0 
L 53.515625 0 
L 27 50 
L 27 0 
L 9.1875 0 
z
" id="DejaVuSans-Bold-4e"/>
     <path d="M 9.1875 72.90625 
L 40.375 72.90625 
Q 54.296875 72.90625 61.734375 66.71875 
Q 69.1875 60.546875 69.1875 49.125 
Q 69.1875 37.640625 61.734375 31.46875 
Q 54.296875 25.296875 40.375 25.296875 
L 27.984375 25.296875 
L 27.984375 0 
L 9.1875 0 
z
M 27.984375 59.28125 
L 27.984375 38.921875 
L 38.375 38.921875 
Q 43.84375 38.921875 46.828125 41.578125 
Q 49.8125 44.234375 49.8125 49.125 
Q 49.8125 54 46.828125 56.640625 
Q 43.84375 59.28125 38.375 59.28125 
z
" id="DejaVuSans-Bold-50"/>
     <path d="M 0.484375 72.90625 
L 19.390625 72.90625 
L 38.71875 19.09375 
L 58.015625 72.90625 
L 76.90625 72.90625 
L 49.90625 0 
L 27.484375 0 
z
" id="DejaVuSans-Bold-56"/>
     <path d="M 9.1875 72.90625 
L 27.984375 72.90625 
L 27.984375 45.125 
L 55.71875 45.125 
L 55.71875 72.90625 
L 74.515625 72.90625 
L 74.515625 0 
L 55.71875 0 
L 55.71875 30.90625 
L 27.984375 30.90625 
L 27.984375 0 
L 9.1875 0 
z
" id="DejaVuSans-Bold-48"/>
     <path d="M 9.1875 72.90625 
L 59.90625 72.90625 
L 59.90625 58.6875 
L 27.984375 58.6875 
L 27.984375 45.125 
L 58.015625 45.125 
L 58.015625 30.90625 
L 27.984375 30.90625 
L 27.984375 0 
L 9.1875 0 
z
" id="DejaVuSans-Bold-46"/>
    </defs>
    <g transform="translate(128.635625 780.518053)rotate(-90)scale(0.22 -0.22)">
     <use xlink:href="#DejaVuSans-Bold-44"/>
     <use x="83.007812" xlink:href="#DejaVuSans-Bold-45"/>
     <use x="151.318359" xlink:href="#DejaVuSans-Bold-4e"/>
     <use x="235.009766" xlink:href="#DejaVuSans-Bold-50"/>
     <use x="308.300781" xlink:href="#DejaVuSans-Bold-56"/>
     <use x="385.693359" xlink:href="#DejaVuSans-Bold-56"/>
     <use x="463.085938" xlink:href="#DejaVuSans-Bold-48"/>
     <use x="546.777344" xlink:href="#DejaVuSans-Bold-46"/>
     <use x="615.087891" xlink:href="#DejaVuSans-Bold-46"/>
    </g>
   </g>
   <g id="text_40">
    <!-- YVIYGTASF -->
    <defs>
     <path d="M -0.984375 72.90625 
L 19.578125 72.90625 
L 36.1875 46.921875 
L 52.78125 72.90625 
L 73.390625 72.90625 
L 45.609375 30.71875 
L 45.609375 0 
L 26.8125 0 
L 26.8125 30.71875 
z
" id="DejaVuSans-Bold-59"/>
     <path d="M 9.1875 72.90625 
L 27.984375 72.90625 
L 27.984375 0 
L 9.1875 0 
z
" id="DejaVuSans-Bold-49"/>
     <path d="M 74.703125 5.421875 
Q 67.671875 2 60.109375 0.28125 
Q 52.546875 -1.421875 44.484375 -1.421875 
Q 26.265625 -1.421875 15.625 8.765625 
Q 4.984375 18.953125 4.984375 36.375 
Q 4.984375 54 15.8125 64.109375 
Q 26.65625 74.21875 45.515625 74.21875 
Q 52.78125 74.21875 59.4375 72.84375 
Q 66.109375 71.484375 72.015625 68.796875 
L 72.015625 53.71875 
Q 65.921875 57.171875 59.890625 58.875 
Q 53.859375 60.59375 47.796875 60.59375 
Q 36.578125 60.59375 30.5 54.3125 
Q 24.421875 48.046875 24.421875 36.375 
Q 24.421875 24.8125 30.28125 18.5 
Q 36.140625 12.203125 46.921875 12.203125 
Q 49.859375 12.203125 52.375 12.5625 
Q 54.890625 12.9375 56.890625 13.71875 
L 56.890625 27.875 
L 45.40625 27.875 
L 45.40625 40.484375 
L 74.703125 40.484375 
z
" id="DejaVuSans-Bold-47"/>
     <path d="M 0.484375 72.90625 
L 67.671875 72.90625 
L 67.671875 58.6875 
L 43.5 58.6875 
L 43.5 0 
L 24.703125 0 
L 24.703125 58.6875 
L 0.484375 58.6875 
z
" id="DejaVuSans-Bold-54"/>
     <path d="M 53.421875 13.28125 
L 24.03125 13.28125 
L 19.390625 0 
L 0.484375 0 
L 27.484375 72.90625 
L 49.90625 72.90625 
L 76.90625 0 
L 58.015625 0 
z
M 28.71875 26.8125 
L 48.6875 26.8125 
L 38.71875 55.8125 
z
" id="DejaVuSans-Bold-41"/>
     <path d="M 59.90625 70.609375 
L 59.90625 55.171875 
Q 53.90625 57.859375 48.1875 59.21875 
Q 42.484375 60.59375 37.40625 60.59375 
Q 30.671875 60.59375 27.4375 58.734375 
Q 24.21875 56.890625 24.21875 52.984375 
Q 24.21875 50.046875 26.390625 48.40625 
Q 28.5625 46.78125 34.28125 45.609375 
L 42.28125 44 
Q 54.4375 41.546875 59.5625 36.5625 
Q 64.703125 31.59375 64.703125 22.40625 
Q 64.703125 10.359375 57.546875 4.46875 
Q 50.390625 -1.421875 35.6875 -1.421875 
Q 28.765625 -1.421875 21.78125 -0.09375 
Q 14.796875 1.21875 7.8125 3.8125 
L 7.8125 19.671875 
Q 14.796875 15.96875 21.3125 14.078125 
Q 27.828125 12.203125 33.890625 12.203125 
Q 40.046875 12.203125 43.3125 14.25 
Q 46.578125 16.3125 46.578125 20.125 
Q 46.578125 23.53125 44.359375 25.390625 
Q 42.140625 27.25 35.5 28.71875 
L 28.21875 30.328125 
Q 17.28125 32.671875 12.21875 37.796875 
Q 7.171875 42.921875 7.171875 51.609375 
Q 7.171875 62.5 14.203125 68.359375 
Q 21.234375 74.21875 34.421875 74.21875 
Q 40.4375 74.21875 46.78125 73.3125 
Q 53.125 72.40625 59.90625 70.609375 
z
" id="DejaVuSans-Bold-53"/>
    </defs>
    <g transform="translate(184.435625 774.509842)rotate(-90)scale(0.22 -0.22)">
     <use xlink:href="#DejaVuSans-Bold-59"/>
     <use x="72.412109" xlink:href="#DejaVuSans-Bold-56"/>
     <use x="149.804688" xlink:href="#DejaVuSans-Bold-49"/>
     <use x="187.011719" xlink:href="#DejaVuSans-Bold-59"/>
     <use x="259.423828" xlink:href="#DejaVuSans-Bold-47"/>
     <use x="341.488281" xlink:href="#DejaVuSans-Bold-54"/>
     <use x="409.591797" xlink:href="#DejaVuSans-Bold-41"/>
     <use x="486.984375" xlink:href="#DejaVuSans-Bold-53"/>
     <use x="559.005859" xlink:href="#DejaVuSans-Bold-46"/>
    </g>
   </g>
   <g id="text_41">
    <!-- FQMTFHLFI -->
    <defs>
     <path d="M 44.484375 -1.3125 
L 43.015625 -1.3125 
Q 25 -1.3125 14.984375 8.640625 
Q 4.984375 18.609375 4.984375 36.375 
Q 4.984375 54.109375 14.96875 64.15625 
Q 24.953125 74.21875 42.484375 74.21875 
Q 60.203125 74.21875 70.09375 64.25 
Q 79.984375 54.296875 79.984375 36.375 
Q 79.984375 24.078125 74.734375 15.1875 
Q 69.484375 6.296875 59.625 1.8125 
L 74.3125 -14.59375 
L 56.390625 -14.59375 
z
M 42.484375 60.59375 
Q 33.890625 60.59375 29.15625 54.25 
Q 24.421875 47.90625 24.421875 36.375 
Q 24.421875 24.65625 29.046875 18.421875 
Q 33.6875 12.203125 42.484375 12.203125 
Q 51.125 12.203125 55.859375 18.546875 
Q 60.59375 24.90625 60.59375 36.375 
Q 60.59375 47.90625 55.859375 54.25 
Q 51.125 60.59375 42.484375 60.59375 
z
" id="DejaVuSans-Bold-51"/>
     <path d="M 9.1875 72.90625 
L 33.109375 72.90625 
L 49.703125 33.890625 
L 66.40625 72.90625 
L 90.28125 72.90625 
L 90.28125 0 
L 72.515625 0 
L 72.515625 53.328125 
L 55.71875 14.015625 
L 43.796875 14.015625 
L 27 53.328125 
L 27 0 
L 9.1875 0 
z
" id="DejaVuSans-Bold-4d"/>
     <path d="M 9.1875 72.90625 
L 27.984375 72.90625 
L 27.984375 14.203125 
L 60.984375 14.203125 
L 60.984375 0 
L 9.1875 0 
z
" id="DejaVuSans-Bold-4c"/>
    </defs>
    <g transform="translate(240.235625 747.615947)rotate(-90)scale(0.22 -0.22)">
     <use xlink:href="#DejaVuSans-Bold-46"/>
     <use x="68.310547" xlink:href="#DejaVuSans-Bold-51"/>
     <use x="153.320312" xlink:href="#DejaVuSans-Bold-4d"/>
     <use x="252.832031" xlink:href="#DejaVuSans-Bold-54"/>
     <use x="321.044922" xlink:href="#DejaVuSans-Bold-46"/>
     <use x="389.355469" xlink:href="#DejaVuSans-Bold-48"/>
     <use x="473.046875" xlink:href="#DejaVuSans-Bold-4c"/>
     <use x="536.767578" xlink:href="#DejaVuSans-Bold-46"/>
     <use x="605.078125" xlink:href="#DejaVuSans-Bold-49"/>
    </g>
   </g>
   <g id="text_42">
    <!-- FLYGALLLA -->
    <g transform="translate(296.035625 741.464684)rotate(-90)scale(0.22 -0.22)">
     <use xlink:href="#DejaVuSans-Bold-46"/>
     <use x="68.310547" xlink:href="#DejaVuSans-Bold-4c"/>
     <use x="131.796875" xlink:href="#DejaVuSans-Bold-59"/>
     <use x="204.208984" xlink:href="#DejaVuSans-Bold-47"/>
     <use x="286.289062" xlink:href="#DejaVuSans-Bold-41"/>
     <use x="363.681641" xlink:href="#DejaVuSans-Bold-4c"/>
     <use x="427.402344" xlink:href="#DejaVuSans-Bold-4c"/>
     <use x="491.123047" xlink:href="#DejaVuSans-Bold-4c"/>
     <use x="554.84375" xlink:href="#DejaVuSans-Bold-41"/>
    </g>
   </g>
   <g id="text_43">
    <!-- IYGTASFFF -->
    <g transform="translate(351.835625 736.314789)rotate(-90)scale(0.22 -0.22)">
     <use xlink:href="#DejaVuSans-Bold-49"/>
     <use x="37.207031" xlink:href="#DejaVuSans-Bold-59"/>
     <use x="109.619141" xlink:href="#DejaVuSans-Bold-47"/>
     <use x="191.683594" xlink:href="#DejaVuSans-Bold-54"/>
     <use x="259.787109" xlink:href="#DejaVuSans-Bold-41"/>
     <use x="337.179688" xlink:href="#DejaVuSans-Bold-53"/>
     <use x="409.201172" xlink:href="#DejaVuSans-Bold-46"/>
     <use x="477.511719" xlink:href="#DejaVuSans-Bold-46"/>
     <use x="545.822266" xlink:href="#DejaVuSans-Bold-46"/>
    </g>
   </g>
   <g id="text_44">
    <!-- FLLLLLLQV -->
    <g transform="translate(407.635625 706.845947)rotate(-90)scale(0.22 -0.22)">
     <use xlink:href="#DejaVuSans-Bold-46"/>
     <use x="68.310547" xlink:href="#DejaVuSans-Bold-4c"/>
     <use x="132.03125" xlink:href="#DejaVuSans-Bold-4c"/>
     <use x="195.751953" xlink:href="#DejaVuSans-Bold-4c"/>
     <use x="259.472656" xlink:href="#DejaVuSans-Bold-4c"/>
     <use x="323.193359" xlink:href="#DejaVuSans-Bold-4c"/>
     <use x="386.914062" xlink:href="#DejaVuSans-Bold-4c"/>
     <use x="450.634766" xlink:href="#DejaVuSans-Bold-51"/>
     <use x="535.644531" xlink:href="#DejaVuSans-Bold-56"/>
    </g>
   </g>
   <g id="text_45">
    <!-- LLLTVLPCI -->
    <defs>
     <path d="M 67 4 
Q 61.8125 1.3125 56.203125 -0.046875 
Q 50.59375 -1.421875 44.484375 -1.421875 
Q 26.265625 -1.421875 15.625 8.765625 
Q 4.984375 18.953125 4.984375 36.375 
Q 4.984375 53.859375 15.625 64.03125 
Q 26.265625 74.21875 44.484375 74.21875 
Q 50.59375 74.21875 56.203125 72.84375 
Q 61.8125 71.484375 67 68.796875 
L 67 53.71875 
Q 61.765625 57.28125 56.6875 58.9375 
Q 51.609375 60.59375 46 60.59375 
Q 35.9375 60.59375 30.171875 54.140625 
Q 24.421875 47.703125 24.421875 36.375 
Q 24.421875 25.09375 30.171875 18.640625 
Q 35.9375 12.203125 46 12.203125 
Q 51.609375 12.203125 56.6875 13.859375 
Q 61.765625 15.53125 67 19.09375 
z
" id="DejaVuSans-Bold-43"/>
    </defs>
    <g transform="translate(463.435625 702.125211)rotate(-90)scale(0.22 -0.22)">
     <use xlink:href="#DejaVuSans-Bold-4c"/>
     <use x="63.720703" xlink:href="#DejaVuSans-Bold-4c"/>
     <use x="127.441406" xlink:href="#DejaVuSans-Bold-4c"/>
     <use x="190.912109" xlink:href="#DejaVuSans-Bold-54"/>
     <use x="259.125" xlink:href="#DejaVuSans-Bold-56"/>
     <use x="336.517578" xlink:href="#DejaVuSans-Bold-4c"/>
     <use x="400.238281" xlink:href="#DejaVuSans-Bold-50"/>
     <use x="473.529297" xlink:href="#DejaVuSans-Bold-43"/>
     <use x="546.917969" xlink:href="#DejaVuSans-Bold-49"/>
    </g>
   </g>
   <g id="text_46">
    <!-- ILLALCALV -->
    <g transform="translate(519.235625 681.811737)rotate(-90)scale(0.22 -0.22)">
     <use xlink:href="#DejaVuSans-Bold-49"/>
     <use x="37.207031" xlink:href="#DejaVuSans-Bold-4c"/>
     <use x="100.927734" xlink:href="#DejaVuSans-Bold-4c"/>
     <use x="164.648438" xlink:href="#DejaVuSans-Bold-41"/>
     <use x="242.041016" xlink:href="#DejaVuSans-Bold-4c"/>
     <use x="305.761719" xlink:href="#DejaVuSans-Bold-43"/>
     <use x="379.150391" xlink:href="#DejaVuSans-Bold-41"/>
     <use x="456.542969" xlink:href="#DejaVuSans-Bold-4c"/>
     <use x="520.060547" xlink:href="#DejaVuSans-Bold-56"/>
    </g>
   </g>
   <g id="text_47">
    <!-- DEGGFTCFF -->
    <g transform="translate(575.035625 671.368895)rotate(-90)scale(0.22 -0.22)">
     <use xlink:href="#DejaVuSans-Bold-44"/>
     <use x="83.007812" xlink:href="#DejaVuSans-Bold-45"/>
     <use x="151.318359" xlink:href="#DejaVuSans-Bold-47"/>
     <use x="233.398438" xlink:href="#DejaVuSans-Bold-47"/>
     <use x="315.478516" xlink:href="#DejaVuSans-Bold-46"/>
     <use x="383.789062" xlink:href="#DejaVuSans-Bold-54"/>
     <use x="452.001953" xlink:href="#DejaVuSans-Bold-43"/>
     <use x="525.390625" xlink:href="#DejaVuSans-Bold-46"/>
     <use x="593.701172" xlink:href="#DejaVuSans-Bold-46"/>
    </g>
   </g>
   <g id="text_48">
    <!-- VLLAVLPVL -->
    <g transform="translate(630.835625 664.788474)rotate(-90)scale(0.22 -0.22)">
     <use xlink:href="#DejaVuSans-Bold-56"/>
     <use x="77.392578" xlink:href="#DejaVuSans-Bold-4c"/>
     <use x="141.113281" xlink:href="#DejaVuSans-Bold-4c"/>
     <use x="204.833984" xlink:href="#DejaVuSans-Bold-41"/>
     <use x="282.132812" xlink:href="#DejaVuSans-Bold-56"/>
     <use x="359.525391" xlink:href="#DejaVuSans-Bold-4c"/>
     <use x="423.246094" xlink:href="#DejaVuSans-Bold-50"/>
     <use x="496.537109" xlink:href="#DejaVuSans-Bold-56"/>
     <use x="573.929688" xlink:href="#DejaVuSans-Bold-4c"/>
    </g>
   </g>
   <g id="text_49">
    <!-- LVATIWFPV -->
    <defs>
     <path d="M 2.984375 72.90625 
L 21 72.90625 
L 33.59375 19.921875 
L 46.09375 72.90625 
L 64.203125 72.90625 
L 76.703125 19.921875 
L 89.3125 72.90625 
L 107.171875 72.90625 
L 89.984375 0 
L 68.3125 0 
L 55.078125 55.421875 
L 42 0 
L 20.3125 0 
z
" id="DejaVuSans-Bold-57"/>
    </defs>
    <g transform="translate(686.635625 660.210789)rotate(-90)scale(0.22 -0.22)">
     <use xlink:href="#DejaVuSans-Bold-4c"/>
     <use x="63.517578" xlink:href="#DejaVuSans-Bold-56"/>
     <use x="140.816406" xlink:href="#DejaVuSans-Bold-41"/>
     <use x="218.099609" xlink:href="#DejaVuSans-Bold-54"/>
     <use x="286.3125" xlink:href="#DejaVuSans-Bold-49"/>
     <use x="323.519531" xlink:href="#DejaVuSans-Bold-57"/>
     <use x="433.822266" xlink:href="#DejaVuSans-Bold-46"/>
     <use x="502.132812" xlink:href="#DejaVuSans-Bold-50"/>
     <use x="575.423828" xlink:href="#DejaVuSans-Bold-56"/>
    </g>
   </g>
   <g id="text_50">
    <!-- GLYHCKPLV -->
    <defs>
     <path d="M 9.1875 72.90625 
L 27.984375 72.90625 
L 27.984375 46.296875 
L 55.078125 72.90625 
L 76.90625 72.90625 
L 41.796875 38.375 
L 80.515625 0 
L 56.984375 0 
L 27.984375 28.71875 
L 27.984375 0 
L 9.1875 0 
z
" id="DejaVuSans-Bold-4b"/>
    </defs>
    <g transform="translate(742.435625 643.473632)rotate(-90)scale(0.22 -0.22)">
     <use xlink:href="#DejaVuSans-Bold-47"/>
     <use x="82.080078" xlink:href="#DejaVuSans-Bold-4c"/>
     <use x="145.566406" xlink:href="#DejaVuSans-Bold-59"/>
     <use x="217.978516" xlink:href="#DejaVuSans-Bold-48"/>
     <use x="301.669922" xlink:href="#DejaVuSans-Bold-43"/>
     <use x="375.058594" xlink:href="#DejaVuSans-Bold-4b"/>
     <use x="452.548828" xlink:href="#DejaVuSans-Bold-50"/>
     <use x="525.839844" xlink:href="#DejaVuSans-Bold-4c"/>
     <use x="589.357422" xlink:href="#DejaVuSans-Bold-56"/>
    </g>
   </g>
   <g id="text_51">
    <!-- YRPPFSRVV -->
    <defs>
     <path d="M 35.890625 40.578125 
Q 41.796875 40.578125 44.359375 42.765625 
Q 46.921875 44.96875 46.921875 50 
Q 46.921875 54.984375 44.359375 57.125 
Q 41.796875 59.28125 35.890625 59.28125 
L 27.984375 59.28125 
L 27.984375 40.578125 
z
M 27.984375 27.59375 
L 27.984375 0 
L 9.1875 0 
L 9.1875 72.90625 
L 37.890625 72.90625 
Q 52.296875 72.90625 59 68.0625 
Q 65.71875 63.234375 65.71875 52.78125 
Q 65.71875 45.5625 62.21875 40.921875 
Q 58.734375 36.28125 51.703125 34.078125 
Q 55.5625 33.203125 58.609375 30.09375 
Q 61.671875 27 64.796875 20.703125 
L 75 0 
L 54.984375 0 
L 46.09375 18.109375 
Q 43.40625 23.578125 40.640625 25.578125 
Q 37.890625 27.59375 33.296875 27.59375 
z
" id="DejaVuSans-Bold-52"/>
    </defs>
    <g transform="translate(798.235625 633.746053)rotate(-90)scale(0.22 -0.22)">
     <use xlink:href="#DejaVuSans-Bold-59"/>
     <use x="72.412109" xlink:href="#DejaVuSans-Bold-52"/>
     <use x="149.414062" xlink:href="#DejaVuSans-Bold-50"/>
     <use x="222.705078" xlink:href="#DejaVuSans-Bold-50"/>
     <use x="295.996094" xlink:href="#DejaVuSans-Bold-46"/>
     <use x="364.306641" xlink:href="#DejaVuSans-Bold-53"/>
     <use x="436.328125" xlink:href="#DejaVuSans-Bold-52"/>
     <use x="513.330078" xlink:href="#DejaVuSans-Bold-56"/>
     <use x="590.722656" xlink:href="#DejaVuSans-Bold-56"/>
    </g>
   </g>
   <g id="text_52">
    <!-- YRPPFSRVV -->
    <g transform="translate(854.035625 620.156053)rotate(-90)scale(0.22 -0.22)">
     <use xlink:href="#DejaVuSans-Bold-59"/>
     <use x="72.412109" xlink:href="#DejaVuSans-Bold-52"/>
     <use x="149.414062" xlink:href="#DejaVuSans-Bold-50"/>
     <use x="222.705078" xlink:href="#DejaVuSans-Bold-50"/>
     <use x="295.996094" xlink:href="#DejaVuSans-Bold-46"/>
     <use x="364.306641" xlink:href="#DejaVuSans-Bold-53"/>
     <use x="436.328125" xlink:href="#DejaVuSans-Bold-52"/>
     <use x="513.330078" xlink:href="#DejaVuSans-Bold-56"/>
     <use x="590.722656" xlink:href="#DejaVuSans-Bold-56"/>
    </g>
   </g>
   <g id="text_53">
    <!-- SLLTFMIAA -->
    <g transform="translate(909.835625 605.421632)rotate(-90)scale(0.22 -0.22)">
     <use xlink:href="#DejaVuSans-Bold-53"/>
     <use x="72.021484" xlink:href="#DejaVuSans-Bold-4c"/>
     <use x="135.742188" xlink:href="#DejaVuSans-Bold-4c"/>
     <use x="199.212891" xlink:href="#DejaVuSans-Bold-54"/>
     <use x="267.425781" xlink:href="#DejaVuSans-Bold-46"/>
     <use x="335.736328" xlink:href="#DejaVuSans-Bold-4d"/>
     <use x="435.248047" xlink:href="#DejaVuSans-Bold-49"/>
     <use x="472.455078" xlink:href="#DejaVuSans-Bold-41"/>
     <use x="549.847656" xlink:href="#DejaVuSans-Bold-41"/>
    </g>
   </g>
   <g id="text_54">
    <!-- LLAEGFYTT -->
    <g transform="translate(965.635625 603.705)rotate(-90)scale(0.22 -0.22)">
     <use xlink:href="#DejaVuSans-Bold-4c"/>
     <use x="63.720703" xlink:href="#DejaVuSans-Bold-4c"/>
     <use x="127.441406" xlink:href="#DejaVuSans-Bold-41"/>
     <use x="204.833984" xlink:href="#DejaVuSans-Bold-45"/>
     <use x="273.144531" xlink:href="#DejaVuSans-Bold-47"/>
     <use x="355.224609" xlink:href="#DejaVuSans-Bold-46"/>
     <use x="423.535156" xlink:href="#DejaVuSans-Bold-59"/>
     <use x="495.947266" xlink:href="#DejaVuSans-Bold-54"/>
     <use x="564.191406" xlink:href="#DejaVuSans-Bold-54"/>
    </g>
   </g>
   <g id="text_55">
    <!-- YVIYGTASF -->
    <g transform="translate(1021.435625 561.361421)rotate(-90)scale(0.22 -0.22)">
     <use xlink:href="#DejaVuSans-Bold-59"/>
     <use x="72.412109" xlink:href="#DejaVuSans-Bold-56"/>
     <use x="149.804688" xlink:href="#DejaVuSans-Bold-49"/>
     <use x="187.011719" xlink:href="#DejaVuSans-Bold-59"/>
     <use x="259.423828" xlink:href="#DejaVuSans-Bold-47"/>
     <use x="341.488281" xlink:href="#DejaVuSans-Bold-54"/>
     <use x="409.591797" xlink:href="#DejaVuSans-Bold-41"/>
     <use x="486.984375" xlink:href="#DejaVuSans-Bold-53"/>
     <use x="559.005859" xlink:href="#DejaVuSans-Bold-46"/>
    </g>
   </g>
   <g id="text_56">
    <!-- QVVGFVTSF -->
    <g transform="translate(1077.235625 530.891211)rotate(-90)scale(0.22 -0.22)">
     <use xlink:href="#DejaVuSans-Bold-51"/>
     <use x="85.009766" xlink:href="#DejaVuSans-Bold-56"/>
     <use x="162.402344" xlink:href="#DejaVuSans-Bold-56"/>
     <use x="239.794922" xlink:href="#DejaVuSans-Bold-47"/>
     <use x="321.875" xlink:href="#DejaVuSans-Bold-46"/>
     <use x="390.185547" xlink:href="#DejaVuSans-Bold-56"/>
     <use x="467.578125" xlink:href="#DejaVuSans-Bold-54"/>
     <use x="535.791016" xlink:href="#DejaVuSans-Bold-53"/>
     <use x="607.8125" xlink:href="#DejaVuSans-Bold-46"/>
    </g>
   </g>
   <g id="text_57">
    <!-- GTASFFFLY -->
    <g transform="translate(1133.035625 517.873421)rotate(-90)scale(0.22 -0.22)">
     <use xlink:href="#DejaVuSans-Bold-47"/>
     <use x="82.064453" xlink:href="#DejaVuSans-Bold-54"/>
     <use x="150.167969" xlink:href="#DejaVuSans-Bold-41"/>
     <use x="227.560547" xlink:href="#DejaVuSans-Bold-53"/>
     <use x="299.582031" xlink:href="#DejaVuSans-Bold-46"/>
     <use x="367.892578" xlink:href="#DejaVuSans-Bold-46"/>
     <use x="436.203125" xlink:href="#DejaVuSans-Bold-46"/>
     <use x="504.513672" xlink:href="#DejaVuSans-Bold-4c"/>
     <use x="568" xlink:href="#DejaVuSans-Bold-59"/>
    </g>
   </g>
   <g id="text_58">
    <!-- MELKVEDPF -->
    <g transform="translate(1188.835625 509.004158)rotate(-90)scale(0.22 -0.22)">
     <use xlink:href="#DejaVuSans-Bold-4d"/>
     <use x="99.511719" xlink:href="#DejaVuSans-Bold-45"/>
     <use x="167.822266" xlink:href="#DejaVuSans-Bold-4c"/>
     <use x="231.542969" xlink:href="#DejaVuSans-Bold-4b"/>
     <use x="309.033203" xlink:href="#DejaVuSans-Bold-56"/>
     <use x="386.425781" xlink:href="#DejaVuSans-Bold-45"/>
     <use x="454.736328" xlink:href="#DejaVuSans-Bold-44"/>
     <use x="537.744141" xlink:href="#DejaVuSans-Bold-50"/>
     <use x="611.035156" xlink:href="#DejaVuSans-Bold-46"/>
    </g>
   </g>
   <g id="text_59">
    <!-- YLINVIHAF -->
    <g transform="translate(1244.635625 502.709842)rotate(-90)scale(0.22 -0.22)">
     <use xlink:href="#DejaVuSans-Bold-59"/>
     <use x="72.412109" xlink:href="#DejaVuSans-Bold-4c"/>
     <use x="136.132812" xlink:href="#DejaVuSans-Bold-49"/>
     <use x="173.339844" xlink:href="#DejaVuSans-Bold-4e"/>
     <use x="257.03125" xlink:href="#DejaVuSans-Bold-56"/>
     <use x="334.423828" xlink:href="#DejaVuSans-Bold-49"/>
     <use x="371.630859" xlink:href="#DejaVuSans-Bold-48"/>
     <use x="455.322266" xlink:href="#DejaVuSans-Bold-41"/>
     <use x="532.714844" xlink:href="#DejaVuSans-Bold-46"/>
    </g>
   </g>
   <g id="text_60">
    <!-- YAGWIGAVL -->
    <g transform="translate(1300.435625 496.415526)rotate(-90)scale(0.22 -0.22)">
     <use xlink:href="#DejaVuSans-Bold-59"/>
     <use x="72.271484" xlink:href="#DejaVuSans-Bold-41"/>
     <use x="149.664062" xlink:href="#DejaVuSans-Bold-47"/>
     <use x="231.744141" xlink:href="#DejaVuSans-Bold-57"/>
     <use x="342.046875" xlink:href="#DejaVuSans-Bold-49"/>
     <use x="379.253906" xlink:href="#DejaVuSans-Bold-47"/>
     <use x="461.333984" xlink:href="#DejaVuSans-Bold-41"/>
     <use x="538.632812" xlink:href="#DejaVuSans-Bold-56"/>
     <use x="616.025391" xlink:href="#DejaVuSans-Bold-4c"/>
    </g>
   </g>
   <g id="text_61">
    <!-- SLYAGWIGA -->
    <g transform="translate(1356.235625 489.405947)rotate(-90)scale(0.22 -0.22)">
     <use xlink:href="#DejaVuSans-Bold-53"/>
     <use x="72.021484" xlink:href="#DejaVuSans-Bold-4c"/>
     <use x="135.507812" xlink:href="#DejaVuSans-Bold-59"/>
     <use x="207.779297" xlink:href="#DejaVuSans-Bold-41"/>
     <use x="285.171875" xlink:href="#DejaVuSans-Bold-47"/>
     <use x="367.251953" xlink:href="#DejaVuSans-Bold-57"/>
     <use x="477.554688" xlink:href="#DejaVuSans-Bold-49"/>
     <use x="514.761719" xlink:href="#DejaVuSans-Bold-47"/>
     <use x="596.841797" xlink:href="#DejaVuSans-Bold-41"/>
    </g>
   </g>
   <g id="text_62">
    <!-- LLLQITVGL -->
    <g transform="translate(1412.035625 488.690684)rotate(-90)scale(0.22 -0.22)">
     <use xlink:href="#DejaVuSans-Bold-4c"/>
     <use x="63.720703" xlink:href="#DejaVuSans-Bold-4c"/>
     <use x="127.441406" xlink:href="#DejaVuSans-Bold-4c"/>
     <use x="191.162109" xlink:href="#DejaVuSans-Bold-51"/>
     <use x="276.171875" xlink:href="#DejaVuSans-Bold-49"/>
     <use x="313.378906" xlink:href="#DejaVuSans-Bold-54"/>
     <use x="381.591797" xlink:href="#DejaVuSans-Bold-56"/>
     <use x="458.984375" xlink:href="#DejaVuSans-Bold-47"/>
     <use x="541.064453" xlink:href="#DejaVuSans-Bold-4c"/>
    </g>
   </g>
   <g id="text_63">
    <!-- SLSRFSWGA -->
    <g transform="translate(1467.835625 483.540789)rotate(-90)scale(0.22 -0.22)">
     <use xlink:href="#DejaVuSans-Bold-53"/>
     <use x="72.021484" xlink:href="#DejaVuSans-Bold-4c"/>
     <use x="135.742188" xlink:href="#DejaVuSans-Bold-53"/>
     <use x="207.763672" xlink:href="#DejaVuSans-Bold-52"/>
     <use x="284.765625" xlink:href="#DejaVuSans-Bold-46"/>
     <use x="353.076172" xlink:href="#DejaVuSans-Bold-53"/>
     <use x="425.097656" xlink:href="#DejaVuSans-Bold-57"/>
     <use x="535.400391" xlink:href="#DejaVuSans-Bold-47"/>
     <use x="617.480469" xlink:href="#DejaVuSans-Bold-41"/>
    </g>
   </g>
   <g id="text_64">
    <!-- YEYLINVIH -->
    <g transform="translate(1523.635625 482.825526)rotate(-90)scale(0.22 -0.22)">
     <use xlink:href="#DejaVuSans-Bold-59"/>
     <use x="72.412109" xlink:href="#DejaVuSans-Bold-45"/>
     <use x="140.722656" xlink:href="#DejaVuSans-Bold-59"/>
     <use x="213.134766" xlink:href="#DejaVuSans-Bold-4c"/>
     <use x="276.855469" xlink:href="#DejaVuSans-Bold-49"/>
     <use x="314.0625" xlink:href="#DejaVuSans-Bold-4e"/>
     <use x="397.753906" xlink:href="#DejaVuSans-Bold-56"/>
     <use x="475.146484" xlink:href="#DejaVuSans-Bold-49"/>
     <use x="512.353516" xlink:href="#DejaVuSans-Bold-48"/>
    </g>
   </g>
   <g id="text_65">
    <!-- FACSAVPVY -->
    <g transform="translate(1579.435625 461.510684)rotate(-90)scale(0.22 -0.22)">
     <use xlink:href="#DejaVuSans-Bold-46"/>
     <use x="68.138672" xlink:href="#DejaVuSans-Bold-41"/>
     <use x="145.53125" xlink:href="#DejaVuSans-Bold-43"/>
     <use x="218.935547" xlink:href="#DejaVuSans-Bold-53"/>
     <use x="290.957031" xlink:href="#DejaVuSans-Bold-41"/>
     <use x="368.255859" xlink:href="#DejaVuSans-Bold-56"/>
     <use x="445.648438" xlink:href="#DejaVuSans-Bold-50"/>
     <use x="518.939453" xlink:href="#DejaVuSans-Bold-56"/>
     <use x="596.332031" xlink:href="#DejaVuSans-Bold-59"/>
    </g>
   </g>
   <g id="text_66">
    <!-- YALTVVWLL -->
    <g transform="translate(1635.235625 403.145211)rotate(-90)scale(0.22 -0.22)">
     <use xlink:href="#DejaVuSans-Bold-59"/>
     <use x="72.271484" xlink:href="#DejaVuSans-Bold-41"/>
     <use x="149.664062" xlink:href="#DejaVuSans-Bold-4c"/>
     <use x="213.134766" xlink:href="#DejaVuSans-Bold-54"/>
     <use x="281.347656" xlink:href="#DejaVuSans-Bold-56"/>
     <use x="358.740234" xlink:href="#DejaVuSans-Bold-56"/>
     <use x="436.132812" xlink:href="#DejaVuSans-Bold-57"/>
     <use x="546.435547" xlink:href="#DejaVuSans-Bold-4c"/>
     <use x="610.15625" xlink:href="#DejaVuSans-Bold-4c"/>
    </g>
   </g>
   <g id="text_67">
    <!-- YLINVIHAF -->
    <g transform="translate(1691.035625 332.477211)rotate(-90)scale(0.22 -0.22)">
     <use xlink:href="#DejaVuSans-Bold-59"/>
     <use x="72.412109" xlink:href="#DejaVuSans-Bold-4c"/>
     <use x="136.132812" xlink:href="#DejaVuSans-Bold-49"/>
     <use x="173.339844" xlink:href="#DejaVuSans-Bold-4e"/>
     <use x="257.03125" xlink:href="#DejaVuSans-Bold-56"/>
     <use x="334.423828" xlink:href="#DejaVuSans-Bold-49"/>
     <use x="371.630859" xlink:href="#DejaVuSans-Bold-48"/>
     <use x="455.322266" xlink:href="#DejaVuSans-Bold-41"/>
     <use x="532.714844" xlink:href="#DejaVuSans-Bold-46"/>
    </g>
   </g>
   <g id="text_68">
    <!-- MIAASVLGL -->
    <g transform="translate(1746.835625 304.009737)rotate(-90)scale(0.22 -0.22)">
     <use xlink:href="#DejaVuSans-Bold-4d"/>
     <use x="99.511719" xlink:href="#DejaVuSans-Bold-49"/>
     <use x="136.71875" xlink:href="#DejaVuSans-Bold-41"/>
     <use x="214.111328" xlink:href="#DejaVuSans-Bold-41"/>
     <use x="291.503906" xlink:href="#DejaVuSans-Bold-53"/>
     <use x="363.525391" xlink:href="#DejaVuSans-Bold-56"/>
     <use x="440.917969" xlink:href="#DejaVuSans-Bold-4c"/>
     <use x="504.638672" xlink:href="#DejaVuSans-Bold-47"/>
     <use x="586.71875" xlink:href="#DejaVuSans-Bold-4c"/>
    </g>
   </g>
   <g id="text_69">
    <!-- HLAI-Peptide pairs with lowest ic50 values IEDB -->
    <defs>
     <path d="M 9.8125 72.90625 
L 19.671875 72.90625 
L 19.671875 0 
L 9.8125 0 
z
" id="DejaVuSans-49"/>
     <path d="M 19.671875 64.796875 
L 19.671875 37.40625 
L 32.078125 37.40625 
Q 38.96875 37.40625 42.71875 40.96875 
Q 46.484375 44.53125 46.484375 51.125 
Q 46.484375 57.671875 42.71875 61.234375 
Q 38.96875 64.796875 32.078125 64.796875 
z
M 9.8125 72.90625 
L 32.078125 72.90625 
Q 44.34375 72.90625 50.609375 67.359375 
Q 56.890625 61.8125 56.890625 51.125 
Q 56.890625 40.328125 50.609375 34.8125 
Q 44.34375 29.296875 32.078125 29.296875 
L 19.671875 29.296875 
L 19.671875 0 
L 9.8125 0 
z
" id="DejaVuSans-50"/>
     <path d="M 45.40625 46.390625 
L 45.40625 75.984375 
L 54.390625 75.984375 
L 54.390625 0 
L 45.40625 0 
L 45.40625 8.203125 
Q 42.578125 3.328125 38.25 0.953125 
Q 33.9375 -1.421875 27.875 -1.421875 
Q 17.96875 -1.421875 11.734375 6.484375 
Q 5.515625 14.40625 5.515625 27.296875 
Q 5.515625 40.1875 11.734375 48.09375 
Q 17.96875 56 27.875 56 
Q 33.9375 56 38.25 53.625 
Q 42.578125 51.265625 45.40625 46.390625 
z
M 14.796875 27.296875 
Q 14.796875 17.390625 18.875 11.75 
Q 22.953125 6.109375 30.078125 6.109375 
Q 37.203125 6.109375 41.296875 11.75 
Q 45.40625 17.390625 45.40625 27.296875 
Q 45.40625 37.203125 41.296875 42.84375 
Q 37.203125 48.484375 30.078125 48.484375 
Q 22.953125 48.484375 18.875 42.84375 
Q 14.796875 37.203125 14.796875 27.296875 
z
" id="DejaVuSans-64"/>
     <path d="M 41.109375 46.296875 
Q 39.59375 47.171875 37.8125 47.578125 
Q 36.03125 48 33.890625 48 
Q 26.265625 48 22.1875 43.046875 
Q 18.109375 38.09375 18.109375 28.8125 
L 18.109375 0 
L 9.078125 0 
L 9.078125 54.6875 
L 18.109375 54.6875 
L 18.109375 46.1875 
Q 20.953125 51.171875 25.484375 53.578125 
Q 30.03125 56 36.53125 56 
Q 37.453125 56 38.578125 55.875 
Q 39.703125 55.765625 41.0625 55.515625 
z
" id="DejaVuSans-72"/>
     <path d="M 44.28125 53.078125 
L 44.28125 44.578125 
Q 40.484375 46.53125 36.375 47.5 
Q 32.28125 48.484375 27.875 48.484375 
Q 21.1875 48.484375 17.84375 46.4375 
Q 14.5 44.390625 14.5 40.28125 
Q 14.5 37.15625 16.890625 35.375 
Q 19.28125 33.59375 26.515625 31.984375 
L 29.59375 31.296875 
Q 39.15625 29.25 43.1875 25.515625 
Q 47.21875 21.78125 47.21875 15.09375 
Q 47.21875 7.46875 41.1875 3.015625 
Q 35.15625 -1.421875 24.609375 -1.421875 
Q 20.21875 -1.421875 15.453125 -0.5625 
Q 10.6875 0.296875 5.421875 2 
L 5.421875 11.28125 
Q 10.40625 8.6875 15.234375 7.390625 
Q 20.0625 6.109375 24.8125 6.109375 
Q 31.15625 6.109375 34.5625 8.28125 
Q 37.984375 10.453125 37.984375 14.40625 
Q 37.984375 18.0625 35.515625 20.015625 
Q 33.0625 21.96875 24.703125 23.78125 
L 21.578125 24.515625 
Q 13.234375 26.265625 9.515625 29.90625 
Q 5.8125 33.546875 5.8125 39.890625 
Q 5.8125 47.609375 11.28125 51.796875 
Q 16.75 56 26.8125 56 
Q 31.78125 56 36.171875 55.265625 
Q 40.578125 54.546875 44.28125 53.078125 
z
" id="DejaVuSans-73"/>
     <path d="M 4.203125 54.6875 
L 13.1875 54.6875 
L 24.421875 12.015625 
L 35.59375 54.6875 
L 46.1875 54.6875 
L 57.421875 12.015625 
L 68.609375 54.6875 
L 77.59375 54.6875 
L 63.28125 0 
L 52.6875 0 
L 40.921875 44.828125 
L 29.109375 0 
L 18.5 0 
z
" id="DejaVuSans-77"/>
     <path d="M 54.890625 33.015625 
L 54.890625 0 
L 45.90625 0 
L 45.90625 32.71875 
Q 45.90625 40.484375 42.875 44.328125 
Q 39.84375 48.1875 33.796875 48.1875 
Q 26.515625 48.1875 22.3125 43.546875 
Q 18.109375 38.921875 18.109375 30.90625 
L 18.109375 0 
L 9.078125 0 
L 9.078125 75.984375 
L 18.109375 75.984375 
L 18.109375 46.1875 
Q 21.34375 51.125 25.703125 53.5625 
Q 30.078125 56 35.796875 56 
Q 45.21875 56 50.046875 50.171875 
Q 54.890625 44.34375 54.890625 33.015625 
z
" id="DejaVuSans-68"/>
     <path d="M 2.984375 54.6875 
L 12.5 54.6875 
L 29.59375 8.796875 
L 46.6875 54.6875 
L 56.203125 54.6875 
L 35.6875 0 
L 23.484375 0 
z
" id="DejaVuSans-76"/>
     <path d="M 8.5 21.578125 
L 8.5 54.6875 
L 17.484375 54.6875 
L 17.484375 21.921875 
Q 17.484375 14.15625 20.5 10.265625 
Q 23.53125 6.390625 29.59375 6.390625 
Q 36.859375 6.390625 41.078125 11.03125 
Q 45.3125 15.671875 45.3125 23.6875 
L 45.3125 54.6875 
L 54.296875 54.6875 
L 54.296875 0 
L 45.3125 0 
L 45.3125 8.40625 
Q 42.046875 3.421875 37.71875 1 
Q 33.40625 -1.421875 27.6875 -1.421875 
Q 18.265625 -1.421875 13.375 4.4375 
Q 8.5 10.296875 8.5 21.578125 
z
M 31.109375 56 
z
" id="DejaVuSans-75"/>
     <path d="M 9.8125 72.90625 
L 55.90625 72.90625 
L 55.90625 64.59375 
L 19.671875 64.59375 
L 19.671875 43.015625 
L 54.390625 43.015625 
L 54.390625 34.71875 
L 19.671875 34.71875 
L 19.671875 8.296875 
L 56.78125 8.296875 
L 56.78125 0 
L 9.8125 0 
z
" id="DejaVuSans-45"/>
     <path d="M 19.671875 64.796875 
L 19.671875 8.109375 
L 31.59375 8.109375 
Q 46.6875 8.109375 53.6875 14.9375 
Q 60.6875 21.78125 60.6875 36.53125 
Q 60.6875 51.171875 53.6875 57.984375 
Q 46.6875 64.796875 31.59375 64.796875 
z
M 9.8125 72.90625 
L 30.078125 72.90625 
Q 51.265625 72.90625 61.171875 64.09375 
Q 71.09375 55.28125 71.09375 36.53125 
Q 71.09375 17.671875 61.125 8.828125 
Q 51.171875 0 30.078125 0 
L 9.8125 0 
z
" id="DejaVuSans-44"/>
    </defs>
    <g transform="translate(549.5975 31.515)scale(0.32 -0.32)">
     <use xlink:href="#DejaVuSans-48"/>
     <use x="75.195312" xlink:href="#DejaVuSans-4c"/>
     <use x="130.939453" xlink:href="#DejaVuSans-41"/>
     <use x="199.347656" xlink:href="#DejaVuSans-49"/>
     <use x="228.839844" xlink:href="#DejaVuSans-2d"/>
     <use x="264.923828" xlink:href="#DejaVuSans-50"/>
     <use x="325.179688" xlink:href="#DejaVuSans-65"/>
     <use x="386.703125" xlink:href="#DejaVuSans-70"/>
     <use x="450.179688" xlink:href="#DejaVuSans-74"/>
     <use x="489.388672" xlink:href="#DejaVuSans-69"/>
     <use x="517.171875" xlink:href="#DejaVuSans-64"/>
     <use x="580.648438" xlink:href="#DejaVuSans-65"/>
     <use x="642.171875" xlink:href="#DejaVuSans-20"/>
     <use x="673.958984" xlink:href="#DejaVuSans-70"/>
     <use x="737.435547" xlink:href="#DejaVuSans-61"/>
     <use x="798.714844" xlink:href="#DejaVuSans-69"/>
     <use x="826.498047" xlink:href="#DejaVuSans-72"/>
     <use x="867.611328" xlink:href="#DejaVuSans-73"/>
     <use x="919.710938" xlink:href="#DejaVuSans-20"/>
     <use x="951.498047" xlink:href="#DejaVuSans-77"/>
     <use x="1033.285156" xlink:href="#DejaVuSans-69"/>
     <use x="1061.068359" xlink:href="#DejaVuSans-74"/>
     <use x="1100.277344" xlink:href="#DejaVuSans-68"/>
     <use x="1163.65625" xlink:href="#DejaVuSans-20"/>
     <use x="1195.443359" xlink:href="#DejaVuSans-6c"/>
     <use x="1223.226562" xlink:href="#DejaVuSans-6f"/>
     <use x="1284.408203" xlink:href="#DejaVuSans-77"/>
     <use x="1366.195312" xlink:href="#DejaVuSans-65"/>
     <use x="1427.71875" xlink:href="#DejaVuSans-73"/>
     <use x="1479.818359" xlink:href="#DejaVuSans-74"/>
     <use x="1519.027344" xlink:href="#DejaVuSans-20"/>
     <use x="1550.814453" xlink:href="#DejaVuSans-69"/>
     <use x="1578.597656" xlink:href="#DejaVuSans-63"/>
     <use x="1633.578125" xlink:href="#DejaVuSans-35"/>
     <use x="1697.201172" xlink:href="#DejaVuSans-30"/>
     <use x="1760.824219" xlink:href="#DejaVuSans-20"/>
     <use x="1792.611328" xlink:href="#DejaVuSans-76"/>
     <use x="1851.791016" xlink:href="#DejaVuSans-61"/>
     <use x="1913.070312" xlink:href="#DejaVuSans-6c"/>
     <use x="1940.853516" xlink:href="#DejaVuSans-75"/>
     <use x="2004.232422" xlink:href="#DejaVuSans-65"/>
     <use x="2065.755859" xlink:href="#DejaVuSans-73"/>
     <use x="2117.855469" xlink:href="#DejaVuSans-20"/>
     <use x="2149.642578" xlink:href="#DejaVuSans-49"/>
     <use x="2179.134766" xlink:href="#DejaVuSans-45"/>
     <use x="2242.318359" xlink:href="#DejaVuSans-44"/>
     <use x="2319.320312" xlink:href="#DejaVuSans-42"/>
    </g>
   </g>
  </g>
 </g>
 <defs>
  <clipPath id="p400e1c474e">
   <rect height="815.4" width="1674" x="94.665" y="46.515"/>
  </clipPath>
 </defs>
</svg>
